<svg width="480" height="261" viewBox="0 0 480 261" fill="none" xmlns="http://www.w3.org/2000/svg">
<path d="M291.984 83.5883H303.831V85.3107H293.962V92.0435H302.035V93.6851H293.962V102.14H291.984V83.5835V83.5883Z" fill="white"/>
<path d="M304.446 98.6716C304.446 96.3115 306.025 95.0934 308.833 94.7508L312.443 94.3511C313.94 94.1656 314.396 93.8468 314.396 93.4233V92.7619C314.396 90.378 313.168 89.5834 310.758 89.5834C308.349 89.5834 307.096 90.4066 307.096 92.2337V92.5525H305.277V92.1005C305.277 89.3455 307.254 88.0989 310.811 88.0989C314.368 88.0989 316.292 89.4787 316.292 92.7904V102.145H314.473V99.7088H314.392C314.017 100.451 312.414 102.411 308.992 102.411C306.342 102.411 304.446 101.217 304.446 98.6763V98.6716ZM309.419 100.898C312.817 100.898 314.392 98.643 314.392 97.2917V95.0934C314.286 95.4122 313.777 95.6787 312.304 95.8357L309.285 96.2068C307.067 96.4733 306.342 97.2917 306.342 98.5669C306.342 100.266 307.653 100.898 309.419 100.898Z" fill="white"/>
<path d="M318.592 95.2791C318.592 90.4305 321.693 88.0942 325.278 88.0942C327.764 88.0942 330.625 89.2077 331.134 92.9714H329.396C328.969 90.559 327.126 89.712 325.254 89.712C322.475 89.712 320.416 91.62 320.416 95.2791C320.416 98.9381 322.475 100.794 325.254 100.794C327.126 100.794 328.969 99.9469 329.396 97.4821H331.134C330.654 101.298 327.764 102.412 325.278 102.412C321.697 102.412 318.592 100.132 318.592 95.2791Z" fill="white"/>
<path d="M339.125 100.794C341.717 100.794 343.378 99.1764 343.378 96.4738V88.3611H345.274V102.146H343.378V99.5476C343.085 100.475 341.664 102.412 338.511 102.412C335.784 102.412 333.485 100.956 333.485 96.8449V88.3611H335.386V96.4738C335.386 99.1764 336.509 100.794 339.13 100.794H339.125Z" fill="white"/>
<path d="M348.375 83.5894H350.276V102.146H348.375V83.5894Z" fill="white"/>
<path d="M352.756 95.2506C352.756 90.2925 355.775 88.0943 359.039 88.0943C361.098 88.0943 363.052 88.9698 364.064 90.716V83.5835H365.965V102.14H364.064V99.7803C363.047 101.531 361.098 102.402 359.039 102.402C355.775 102.402 352.756 100.175 352.756 95.2458V95.2506ZM359.332 100.818C361.765 100.818 364.146 99.0428 364.146 95.2506C364.146 91.4583 361.765 89.6835 359.332 89.6835C356.898 89.6835 354.546 91.4583 354.546 95.2506C354.546 99.0428 356.874 100.818 359.332 100.818Z" fill="white"/>
<path d="M368.398 98.672C368.398 96.312 369.978 95.0939 372.786 94.7513L376.395 94.3516C377.893 94.166 378.349 93.8472 378.349 93.4238V92.7624C378.349 90.3785 377.12 89.5839 374.71 89.5839C372.301 89.5839 371.048 90.4071 371.048 92.2342V92.553H369.229V92.101C369.229 89.346 371.206 88.0994 374.763 88.0994C378.32 88.0994 380.245 89.4792 380.245 92.7909V102.146H378.425V99.7093H378.344C377.969 100.452 376.366 102.412 372.944 102.412C370.294 102.412 368.398 101.218 368.398 98.6768V98.672ZM373.371 100.899C376.769 100.899 378.344 98.6435 378.344 97.2922V95.0939C378.238 95.4127 377.729 95.6791 376.256 95.8362L373.237 96.2073C371.019 96.4738 370.294 97.2922 370.294 98.5674C370.294 100.266 371.605 100.899 373.371 100.899Z" fill="white"/>
<path d="M382.571 95.2506C382.571 90.2925 385.59 88.0943 388.854 88.0943C390.914 88.0943 392.867 88.9698 393.88 90.716V83.5835H395.781V102.14H393.88V99.7803C392.862 101.531 390.914 102.402 388.854 102.402C385.59 102.402 382.571 100.175 382.571 95.2458V95.2506ZM389.147 100.818C391.581 100.818 393.961 99.0428 393.961 95.2506C393.961 91.4583 391.581 89.6835 389.147 89.6835C386.714 89.6835 384.362 91.4583 384.362 95.2506C384.362 99.0428 386.69 100.818 389.147 100.818Z" fill="white"/>
<path d="M398.212 95.3029C398.212 90.2925 401.101 88.0942 404.658 88.0942C408.215 88.0942 410.807 90.3496 410.807 94.8794C410.807 95.3314 410.778 95.5931 410.725 95.8596H400.055C400.213 99.2284 401.874 100.894 404.817 100.894C406.501 100.894 408.157 100.337 408.882 98.3481H410.62C409.684 101.398 407.332 102.402 404.793 102.402C400.914 102.402 398.217 100.094 398.217 95.2981L398.212 95.3029ZM408.988 94.375C408.935 91.2727 407.274 89.6026 404.629 89.6026C401.985 89.6026 400.271 91.1395 400.084 94.375H408.988Z" fill="white"/>
<path d="M418.741 95.2506C418.741 90.2925 421.76 88.0943 425.024 88.0943C427.083 88.0943 429.037 88.9698 430.05 90.716V83.5835H431.951V102.14H430.05V99.7803C429.032 101.531 427.083 102.402 425.024 102.402C421.76 102.402 418.741 100.175 418.741 95.2458V95.2506ZM425.317 100.818C427.751 100.818 430.131 99.0428 430.131 95.2506C430.131 91.4583 427.751 89.6835 425.317 89.6835C422.884 89.6835 420.532 91.4583 420.532 95.2506C420.532 99.0428 422.86 100.818 425.317 100.818Z" fill="white"/>
<path d="M434.388 95.3029C434.388 90.2925 437.277 88.0942 440.834 88.0942C444.391 88.0942 446.983 90.3496 446.983 94.8794C446.983 95.3314 446.954 95.5931 446.901 95.8596H436.231C436.389 99.2284 438.05 100.894 440.992 100.894C442.677 100.894 444.333 100.337 445.058 98.3481H446.795C445.859 101.398 443.508 102.402 440.968 102.402C437.09 102.402 434.392 100.094 434.392 95.2981L434.388 95.3029ZM445.163 94.375C445.111 91.2727 443.45 89.6026 440.805 89.6026C438.16 89.6026 436.447 91.1395 436.26 94.375H445.163Z" fill="white"/>
<path d="M291.972 127.854H298.394C298.519 130.442 300.093 132.579 304.115 132.579C307.389 132.579 309.295 131.18 309.295 128.839C309.295 126.869 307.927 125.965 305.272 125.427L301.211 124.604C296.613 123.743 292.759 121.687 292.759 116.553C292.759 111.005 297.276 108.131 303.947 108.131C310.619 108.131 315.098 111.091 315.098 117.005H308.714C308.795 114.417 306.683 113.227 303.823 113.227C300.468 113.227 299.263 114.869 299.263 116.553C299.263 117.867 300.093 119.142 302.704 119.675L306.434 120.412C313.274 121.811 315.885 124.438 315.885 128.791C315.885 134.996 310.706 137.665 304.072 137.665C296.57 137.665 291.972 134.173 291.972 127.844V127.854Z" fill="white"/>
<path d="M318.533 131.594C318.533 126.869 322.431 125.841 326.16 125.308L329.808 124.775C331.8 124.49 332.419 124.156 332.419 122.967V122.681C332.419 120.421 330.927 119.807 329.064 119.807C327.202 119.807 325.378 120.426 325.378 122.643V123.015L319.7 123.057V122.072C319.7 117.88 322.517 115.497 329.232 115.497C335.947 115.497 338.352 117.8 338.352 122.439V137.27H332.592V133.492H332.343C331.93 134.644 330.187 137.684 325.464 137.684C321.941 137.684 318.543 136 318.543 131.603L318.533 131.594ZM327.528 133.402C330.389 133.402 332.419 131.513 332.419 129.828V127.444C332.088 127.939 331.051 128.101 330.096 128.268L327.072 128.8C325.205 129.086 324.586 129.99 324.586 131.103C324.586 132.417 325.455 133.406 327.528 133.406V133.402Z" fill="white"/>
<path d="M351.854 132.702C354.384 132.702 356.371 131.265 356.371 128.02V115.901H362.423V137.265H356.371V132.788H356.121C355.747 134.801 353.678 137.675 349.243 137.675C345.057 137.675 341.822 135.005 341.822 129.457V115.901H347.875V128.02C347.875 131.265 349.324 132.702 351.854 132.702ZM353.553 107.684H358.819L354.427 113.436H349.205L353.558 107.684H353.553Z" fill="white"/>
<path d="M365.696 126.578C365.696 118.732 370.626 115.487 375.147 115.487C378.339 115.487 380.701 117.129 381.488 118.979V108.502H387.541V137.26H381.488V134.177C380.701 136.028 378.339 137.67 375.147 137.67C370.631 137.67 365.696 134.425 365.696 126.578ZM376.597 132.702C379.251 132.702 381.738 130.77 381.738 126.578C381.738 122.386 379.251 120.455 376.597 120.455C373.943 120.455 371.418 122.386 371.418 126.578C371.418 130.77 373.904 132.702 376.597 132.702Z" fill="white"/>
<path d="M390.809 126.541C390.809 118.571 395.906 115.488 401.628 115.488C407.349 115.488 411.866 118.361 411.866 126.455C411.866 127.235 411.823 127.645 411.741 128.097H396.573C396.904 131.67 398.772 133.107 401.752 133.107C404.532 133.107 405.731 131.998 406.231 130.271H411.578C410.503 135.158 406.687 137.665 401.671 137.665C396.199 137.665 390.813 134.668 390.813 126.531L390.809 126.541ZM406.144 124.566C406.063 122.101 404.776 120.046 401.46 120.046C398.642 120.046 396.981 121.607 396.568 124.566H406.139H406.144Z" fill="white"/>
<path d="M301.629 143.618H309.626L320.114 172.377H313.605L311.738 166.995H299.513L297.645 172.377H291.137L301.62 143.618H301.629ZM310.168 162.437L305.815 149.908H305.44L301.087 162.437H310.164H310.168Z" fill="white"/>
<path d="M317.373 151.017H323.55L328.936 166.628H329.142L334.528 151.017H340.662L332.829 172.381H325.202L317.368 151.017H317.373Z" fill="white"/>
<path d="M340.911 166.709C340.911 161.984 344.809 160.956 348.538 160.423L352.186 159.89C354.178 159.605 354.797 159.272 354.797 158.082V157.797C354.797 155.537 353.304 154.923 351.442 154.923C349.58 154.923 347.756 155.541 347.756 157.759V158.13L342.078 158.173V157.188C342.078 152.996 344.895 150.612 351.61 150.612C358.325 150.612 360.73 152.915 360.73 157.554V172.385H354.97V168.607H354.72C354.308 169.759 352.565 172.799 347.842 172.799C344.319 172.799 340.921 171.115 340.921 166.718L340.911 166.709ZM349.906 168.517C352.767 168.517 354.797 166.628 354.797 164.943V162.56C354.466 163.054 353.429 163.216 352.474 163.383L349.45 163.916C347.583 164.201 346.964 165.105 346.964 166.219C346.964 167.532 347.833 168.522 349.906 168.522V168.517Z" fill="white"/>
<path d="M375.809 155.575C373.279 155.575 371.292 157.012 371.292 160.257V172.376H365.239V151.011H371.292V155.489H371.542C371.916 153.476 373.985 150.602 378.42 150.602C382.605 150.602 385.836 153.272 385.836 158.82V172.376H379.783V160.257C379.783 157.012 378.333 155.575 375.804 155.575H375.809Z" fill="white"/>
<path d="M399.595 178.295C399.595 177.063 398.064 176.654 396.902 177.391L395.285 175.421L397.853 172.628C393.293 171.891 389.107 168.641 389.107 161.742C389.107 153.772 394.661 150.607 399.965 150.607C403.738 150.607 409.041 152.087 409.829 159.277H404.357C403.819 156.688 402.245 155.623 399.922 155.623C396.48 155.623 394.824 158.211 394.824 161.746C394.824 165.282 396.48 167.784 399.922 167.784C402.326 167.784 403.819 166.595 404.357 164.045H409.829C409.248 170.168 405.269 172.219 401.746 172.671L399.84 174.522H400.128C402.24 174.522 403.733 176.164 403.733 178.386C403.733 181.797 400.166 182.739 396.811 182.739V179.78C398.342 179.861 399.586 179.409 399.586 178.3L399.595 178.295Z" fill="white"/>
<path d="M412.188 166.709C412.188 161.984 416.086 160.956 419.816 160.423L423.463 159.89C425.455 159.605 426.075 159.272 426.075 158.082V157.797C426.075 155.537 424.582 154.923 422.719 154.923C420.857 154.923 419.033 155.541 419.033 157.759V158.13L413.355 158.173V157.188C413.355 152.996 416.172 150.612 422.887 150.612C429.603 150.612 432.007 152.915 432.007 157.554V172.385H426.247V168.607H425.998C425.585 169.759 423.843 172.799 419.12 172.799C415.596 172.799 412.198 171.115 412.198 166.718L412.188 166.709ZM421.183 168.517C424.044 168.517 426.075 166.628 426.075 164.943V162.56C425.743 163.054 424.707 163.216 423.751 163.383L420.727 163.916C418.86 164.201 418.241 165.105 418.241 166.219C418.241 167.532 419.11 168.522 421.183 168.522V168.517Z" fill="white"/>
<path d="M435.066 161.698C435.066 153.852 439.996 150.607 444.517 150.607C447.709 150.607 450.071 152.249 450.858 154.1V143.622H456.911V172.381H450.858V169.297C450.071 171.148 447.709 172.79 444.517 172.79C440.001 172.79 435.066 169.545 435.066 161.698ZM445.967 167.822C448.621 167.822 451.108 165.89 451.108 161.698C451.108 157.506 448.621 155.575 445.967 155.575C443.313 155.575 440.788 157.506 440.788 161.698C440.788 165.89 443.274 167.822 445.967 167.822Z" fill="white"/>
<path d="M460.181 166.709C460.181 161.984 464.078 160.956 467.808 160.423L471.456 159.89C473.448 159.605 474.067 159.272 474.067 158.082V157.797C474.067 155.537 472.574 154.923 470.712 154.923C468.849 154.923 467.025 155.541 467.025 157.759V158.13L461.347 158.173V157.188C461.347 152.996 464.165 150.612 470.88 150.612C477.595 150.612 479.999 152.915 479.999 157.554V172.385H474.24V168.607H473.99C473.577 169.759 471.835 172.799 467.112 172.799C463.589 172.799 460.19 171.115 460.19 166.718L460.181 166.709ZM469.176 168.517C472.036 168.517 474.067 166.628 474.067 164.943V162.56C473.736 163.054 472.699 163.216 471.744 163.383L468.72 163.916C466.853 164.201 466.233 165.105 466.233 166.219C466.233 167.532 467.102 168.522 469.176 168.522V168.517Z" fill="white"/>
<path d="M251.933 195.382C244.771 195.377 228.768 195.392 223.436 195.396C204.682 156.303 166.245 203.381 138.559 194.021C128.11 191.694 122.964 181.855 121.606 171.425H121.543C120.42 162.508 121.913 152.344 125.542 144.217C133.889 144.127 147.818 144.855 149.56 154.976C150.381 160.495 146.848 166.743 151.658 171.263C151.658 171.263 156.467 175.931 168.323 170.516C175.816 167.095 196.004 158.135 203.818 154.766L176.953 100.789C176.953 100.789 165.726 122.753 165.381 123.438C157.931 118.476 148.586 116.058 139.615 115.183C142.058 110.544 160.778 74.8669 165.659 65.4314H188.305C202.052 93.5237 243.883 178.933 251.928 195.392L251.933 195.382Z" fill="#DC2E5D"/>
<path d="M129.81 194.892C109.415 196.576 87.0816 192.166 74.1074 183.62V156.636H74.3474C84.0528 169.564 102.652 174.755 117.643 175.36C118.804 181.031 120.791 185.552 123.796 189.491H123.82C125.274 191.319 126.974 192.97 128.898 194.297C128.898 194.302 128.903 194.302 128.903 194.302C129.205 194.507 129.508 194.702 129.805 194.892H129.81Z" fill="white"/>
<path d="M173.244 162.303C173.153 162.845 173.066 163.331 172.999 163.768C167.983 166.447 161.345 169.992 155.35 168.793C148.716 167.118 157.346 155.822 150.204 147.729C149.902 147.343 149.542 146.982 149.187 146.63H149.182C147.996 145.464 146.436 144.426 144.896 143.637C133.726 138.393 120.978 140.287 109.083 140.886C96.2438 142.485 78.8153 144.293 65.1644 144.293C56.995 144.293 49.4687 143.97 44.736 142.775C35.7506 140.501 32.1267 136.071 29.5732 133.031C28.5508 131.508 27.5284 129.486 26.5108 127.968C26.5108 129.495 26.4964 142.78 26.4964 150.336C26.4964 166.7 26.4964 190.809 26.4964 195.044H0.000976562V65.3741C12.5815 65.5549 47.5056 65.5549 88.5495 65.5358V68.9427C81.6665 72.9919 76.5786 78.6589 73.401 85.8104C64.6028 85.8533 29.0932 86.0436 26.5012 86.0579C25.5604 105.624 37.0946 122.296 57.5038 123.59C59.6061 124.066 77.3514 123.433 80.3225 123.119C73.8426 114.155 72.6859 99.238 76.8234 88.7605C89.3319 57.0853 137.269 63.7658 157.471 71.2837C155.983 74.1244 154.14 77.6406 152.662 80.4623C151.284 83.0935 149.46 86.586 148.068 89.2459C132.901 84.2498 103.468 79.2632 97.9525 100.271C96.7286 106.366 97.9333 115.045 101.207 117.433C109.434 123.59 119.974 117.833 135.008 118.861C146.225 119.732 156.42 121.82 164.882 128.468H164.887C176.205 137.303 174.953 154.271 173.244 162.293V162.303Z" fill="white"/>
</svg>
