<svg width="136" height="70" viewBox="0 0 136 70" fill="none" xmlns="http://www.w3.org/2000/svg">
<path d="M135.277 69.9925C131.431 69.9899 122.839 69.9976 119.975 70.0002C109.905 49.0087 89.2661 74.2874 74.3999 69.2618C68.7891 68.0124 66.0261 62.7288 65.2968 57.1283H65.2632C64.6601 52.3404 65.4617 46.883 67.4102 42.5192C71.8922 42.4706 79.3716 42.8615 80.3072 48.2959C80.7479 51.2596 78.851 54.6143 81.4335 57.0415C81.4335 57.0415 84.016 59.5479 90.3821 56.6403C94.4053 54.8033 105.246 49.9924 109.442 48.1835L95.0161 19.2002C95.0161 19.2002 88.9877 30.9938 88.8022 31.3617C84.8021 28.6969 79.784 27.399 74.967 26.9289C76.2788 24.4378 86.3305 5.28081 88.9516 0.214355H101.112C108.493 15.2988 130.955 61.16 135.274 69.9976L135.277 69.9925Z" fill="white"/>
<path d="M69.7021 69.7293C58.751 70.6337 46.7586 68.2653 39.792 63.6766V49.1875H39.9209C45.1323 56.1293 55.1195 58.9167 63.1685 59.2412C63.7922 62.2867 64.8593 64.7139 66.4727 66.8294H66.4856C67.2665 67.8105 68.1789 68.6971 69.2124 69.4099C69.2124 69.4125 69.215 69.4125 69.215 69.4125C69.3774 69.5223 69.5397 69.6271 69.6995 69.7293H69.7021Z" fill="white"/>
<path d="M93.0242 52.2304C92.9752 52.5216 92.9288 52.7822 92.8927 53.0173C90.1994 54.4557 86.6349 56.3591 83.4158 55.7153C79.8539 54.816 84.488 48.7505 80.6529 44.4046C80.4905 44.1976 80.2973 44.0034 80.1065 43.8144H80.1039C79.4673 43.1884 78.6297 42.6314 77.8024 42.2073C71.8049 39.3917 64.9595 40.4086 58.5728 40.7305C51.6784 41.589 42.32 42.5599 34.9901 42.5599C30.6034 42.5599 26.5621 42.3861 24.0209 41.7449C19.1961 40.5236 17.2502 38.1449 15.879 36.5123C15.3301 35.6947 14.7811 34.6089 14.2347 33.7939C14.2347 34.614 14.227 41.7474 14.227 45.8047C14.227 54.5911 14.227 67.537 14.227 69.8109H0V0.18355C6.75523 0.280638 25.508 0.280638 47.5469 0.270418V2.09976C43.851 4.27402 41.119 7.31696 39.4128 11.157C34.6885 11.18 15.6213 11.2822 14.2295 11.2899C13.7244 21.7958 19.9177 30.7484 30.8766 31.4433C32.0055 31.6988 41.5339 31.359 43.1293 31.1904C39.6499 26.3769 39.0288 18.3671 41.2504 12.7411C47.967 -4.26716 73.707 -0.680021 84.555 3.35679C83.7561 4.8821 82.7663 6.7702 81.9725 8.28528C81.2328 9.69817 80.2534 11.5735 79.506 13.0017C71.3616 10.319 55.5573 7.64144 52.5959 18.9215C51.9387 22.1944 52.5856 26.8546 54.3434 28.1372C58.7609 31.4433 64.4208 28.3518 72.493 28.9037C78.5163 29.3712 83.9906 30.4929 88.5345 34.0621H88.537C94.6144 38.8067 93.9417 47.9176 93.0242 52.2252V52.2304Z" fill="white"/>
</svg>
