<svg width="665" height="228" viewBox="0 0 665 228" fill="none" xmlns="http://www.w3.org/2000/svg">
<path d="M6.6881 122V68.7992H43.7766V79.8194H19.2283V110.98H44.5366V122H6.6881ZM12.7682 100.188V89.6995H40.3566V100.188H12.7682ZM86.9096 122L70.4174 98.1357L49.2891 68.7992H65.0213L81.1335 92.3596L102.642 122H86.9096ZM48.9091 122L69.2014 93.0436L79.6135 99.0477L63.8813 122H48.9091ZM82.3495 97.2996L72.0134 91.5236L86.9096 68.7992H101.882L82.3495 97.2996ZM102.496 122L123.548 68.7992H134.492L155.393 122H142.32L132.288 95.0196C131.883 93.9556 131.478 92.8156 131.072 91.5996C130.667 90.3835 130.262 89.1422 129.856 87.8755C129.451 86.5582 129.045 85.2915 128.64 84.0755C128.285 82.8088 127.981 81.6434 127.728 80.5794L130.008 80.5034C129.704 81.7701 129.349 83.0114 128.944 84.2275C128.589 85.4435 128.209 86.6595 127.804 87.8755C127.449 89.0409 127.044 90.2315 126.588 91.4476C126.132 92.6129 125.701 93.8289 125.296 95.0956L115.264 122H102.496ZM112.528 111.816L116.556 102.088H141.028L144.98 111.816H112.528ZM162.03 122V68.7992H173.582L192.963 100.34L184.678 100.264L204.287 68.7992H215.383V122H202.843V105.432C202.843 100.872 202.944 96.7676 203.147 93.1196C203.4 89.4715 203.805 85.8488 204.363 82.2514L205.807 86.2035L191.063 109.08H186.046L171.606 86.3555L173.05 82.2514C173.608 85.6461 173.988 89.1422 174.19 92.7396C174.444 96.2863 174.57 100.517 174.57 105.432V122H162.03ZM228.754 122V68.7992H265.842V79.8194H241.294V110.98H266.602V122H228.754ZM234.834 100.188V89.6995H262.422V100.188H234.834ZM295.371 122.76C291.875 122.76 288.708 122.355 285.871 121.544C283.084 120.683 280.602 119.467 278.423 117.896C276.244 116.275 274.293 114.375 272.571 112.196L280.399 103.304C282.932 106.698 285.466 108.978 287.999 110.144C290.583 111.309 293.243 111.892 295.979 111.892C297.347 111.892 298.588 111.715 299.703 111.36C300.818 111.005 301.679 110.499 302.287 109.84C302.895 109.13 303.199 108.269 303.199 107.256C303.199 106.496 302.997 105.812 302.591 105.204C302.237 104.596 301.73 104.064 301.071 103.608C300.413 103.152 299.627 102.746 298.715 102.392C297.803 101.986 296.84 101.657 295.827 101.404C294.814 101.1 293.775 100.846 292.711 100.644C289.772 99.985 287.214 99.1743 285.035 98.2117C282.856 97.249 281.032 96.0836 279.563 94.7156C278.144 93.2969 277.08 91.7009 276.371 89.9275C275.661 88.1035 275.307 86.0768 275.307 83.8475C275.307 81.4661 275.839 79.2874 276.903 77.3114C278.018 75.2847 279.487 73.562 281.311 72.1433C283.186 70.6739 285.339 69.5592 287.771 68.7992C290.203 67.9886 292.736 67.5832 295.371 67.5832C298.867 67.5832 301.857 67.9632 304.339 68.7232C306.873 69.4326 309.026 70.4713 310.799 71.8393C312.623 73.2073 314.169 74.854 315.435 76.7794L307.455 84.4555C306.391 83.1381 305.226 82.0488 303.959 81.1874C302.743 80.3261 301.426 79.6674 300.007 79.2114C298.639 78.7554 297.22 78.5274 295.751 78.5274C294.231 78.5274 292.914 78.73 291.799 79.1354C290.735 79.4901 289.899 80.0221 289.291 80.7314C288.683 81.3901 288.379 82.2008 288.379 83.1634C288.379 84.0248 288.632 84.7595 289.139 85.3675C289.646 85.9755 290.33 86.5328 291.191 87.0395C292.052 87.4955 293.04 87.9008 294.155 88.2555C295.27 88.5595 296.435 88.8129 297.651 89.0155C300.438 89.5729 302.946 90.3075 305.175 91.2196C307.455 92.1316 309.406 93.2463 311.027 94.5636C312.699 95.881 313.966 97.4516 314.827 99.2757C315.739 101.049 316.195 103.126 316.195 105.508C316.195 109.206 315.283 112.348 313.459 114.932C311.686 117.465 309.229 119.416 306.087 120.784C302.997 122.101 299.424 122.76 295.371 122.76ZM6.6881 212V158.799H19.6083V200.6H43.3206V212H6.6881ZM46.2372 212L67.2895 158.799H78.2336L99.1339 212H86.0617L76.0296 185.02C75.6242 183.956 75.2189 182.816 74.8136 181.6C74.4082 180.384 74.0029 179.142 73.5976 177.876C73.1922 176.558 72.7869 175.291 72.3815 174.075C72.0269 172.809 71.7229 171.643 71.4695 170.579L73.7496 170.503C73.4455 171.77 73.0909 173.011 72.6855 174.227C72.3309 175.443 71.9509 176.659 71.5455 177.876C71.1908 179.041 70.7855 180.232 70.3295 181.448C69.8735 182.613 69.4428 183.829 69.0375 185.096L59.0053 212H46.2372ZM56.2693 201.816L60.2974 192.088H84.7697L88.7218 201.816H56.2693ZM105.772 212V158.799H129.256C132.904 158.799 135.995 159.331 138.528 160.395C141.061 161.409 142.961 162.903 144.228 164.879C145.545 166.805 146.204 169.135 146.204 171.871C146.204 174.911 145.444 177.47 143.924 179.548C142.455 181.625 140.301 183.018 137.464 183.728L137.312 182.284C139.693 182.79 141.745 183.677 143.468 184.944C145.241 186.21 146.609 187.781 147.572 189.656C148.535 191.48 149.016 193.557 149.016 195.888C149.016 198.573 148.56 200.929 147.648 202.956C146.736 204.932 145.419 206.604 143.696 207.972C141.973 209.34 139.947 210.353 137.616 211.012C135.336 211.671 132.803 212 130.016 212H105.772ZM117.932 201.208H129.56C130.979 201.208 132.169 200.98 133.132 200.524C134.145 200.068 134.931 199.409 135.488 198.548C136.045 197.636 136.324 196.546 136.324 195.28C136.324 194.114 136.02 193.126 135.412 192.316C134.855 191.505 134.044 190.897 132.98 190.492C131.916 190.036 130.649 189.808 129.18 189.808H117.932V201.208ZM117.932 180.156H127.432C128.749 180.156 129.864 179.953 130.776 179.548C131.739 179.092 132.448 178.484 132.904 177.724C133.411 176.913 133.664 175.95 133.664 174.835C133.664 173.214 133.107 171.947 131.992 171.035C130.877 170.073 129.205 169.591 126.976 169.591H117.932V180.156ZM183.306 212.76C179.252 212.76 175.554 212.076 172.21 210.708C168.865 209.34 165.952 207.415 163.469 204.932C160.987 202.449 159.061 199.536 157.693 196.192C156.325 192.848 155.641 189.174 155.641 185.172C155.641 181.169 156.325 177.496 157.693 174.151C159.061 170.807 160.987 167.894 163.469 165.411C165.952 162.929 168.865 161.003 172.21 159.635C175.554 158.267 179.227 157.583 183.23 157.583C187.232 157.583 190.906 158.267 194.25 159.635C197.594 161.003 200.507 162.929 202.99 165.411C205.473 167.894 207.373 170.807 208.69 174.151C210.058 177.496 210.742 181.169 210.742 185.172C210.742 189.124 210.058 192.797 208.69 196.192C207.373 199.536 205.473 202.449 202.99 204.932C200.507 207.415 197.594 209.34 194.25 210.708C190.906 212.076 187.258 212.76 183.306 212.76ZM183.23 200.6C185.307 200.6 187.207 200.22 188.93 199.46C190.703 198.7 192.223 197.636 193.49 196.268C194.807 194.849 195.821 193.202 196.53 191.328C197.239 189.453 197.594 187.401 197.594 185.172C197.594 182.942 197.239 180.89 196.53 179.016C195.821 177.141 194.807 175.519 193.49 174.151C192.223 172.733 190.703 171.643 188.93 170.883C187.207 170.123 185.307 169.743 183.23 169.743C181.152 169.743 179.227 170.123 177.454 170.883C175.731 171.643 174.211 172.733 172.894 174.151C171.576 175.519 170.563 177.141 169.854 179.016C169.195 180.89 168.865 182.942 168.865 185.172C168.865 187.401 169.195 189.478 169.854 191.404C170.563 193.278 171.576 194.9 172.894 196.268C174.211 197.636 175.731 198.7 177.454 199.46C179.227 200.22 181.152 200.6 183.23 200.6ZM220.738 212V158.799H244.678C248.073 158.799 251.138 159.534 253.874 161.003C256.661 162.473 258.84 164.499 260.411 167.083C261.981 169.617 262.767 172.505 262.767 175.747C262.767 179.092 261.981 182.106 260.411 184.792C258.84 187.426 256.687 189.504 253.95 191.024C251.214 192.544 248.124 193.304 244.678 193.304H233.05V212H220.738ZM250.226 212L236.698 187.984L249.922 186.084L264.971 212H250.226ZM233.05 183.424H243.538C244.856 183.424 245.996 183.145 246.958 182.588C247.972 181.98 248.732 181.144 249.238 180.08C249.796 179.016 250.074 177.8 250.074 176.431C250.074 175.063 249.77 173.873 249.162 172.859C248.554 171.795 247.668 170.985 246.502 170.427C245.388 169.87 244.02 169.591 242.398 169.591H233.05V183.424ZM267.338 212L288.39 158.799H299.334L320.235 212H307.163L297.13 185.02C296.725 183.956 296.32 182.816 295.914 181.6C295.509 180.384 295.104 179.142 294.698 177.876C294.293 176.558 293.888 175.291 293.482 174.075C293.128 172.809 292.824 171.643 292.57 170.579L294.85 170.503C294.546 171.77 294.192 173.011 293.786 174.227C293.432 175.443 293.052 176.659 292.646 177.876C292.292 179.041 291.886 180.232 291.43 181.448C290.974 182.613 290.544 183.829 290.138 185.096L280.106 212H267.338ZM277.37 201.816L281.398 192.088H305.871L309.823 201.816H277.37ZM334.639 212V170.199H318.831V158.799H363.748V170.199H347.559V212H334.639ZM394.832 212.76C390.779 212.76 387.08 212.076 383.736 210.708C380.392 209.34 377.479 207.415 374.996 204.932C372.513 202.449 370.588 199.536 369.22 196.192C367.852 192.848 367.168 189.174 367.168 185.172C367.168 181.169 367.852 177.496 369.22 174.151C370.588 170.807 372.513 167.894 374.996 165.411C377.479 162.929 380.392 161.003 383.736 159.635C387.08 158.267 390.753 157.583 394.756 157.583C398.759 157.583 402.432 158.267 405.776 159.635C409.12 161.003 412.034 162.929 414.516 165.411C416.999 167.894 418.899 170.807 420.217 174.151C421.585 177.496 422.269 181.169 422.269 185.172C422.269 189.124 421.585 192.797 420.217 196.192C418.899 199.536 416.999 202.449 414.516 204.932C412.034 207.415 409.12 209.34 405.776 210.708C402.432 212.076 398.784 212.76 394.832 212.76ZM394.756 200.6C396.834 200.6 398.734 200.22 400.456 199.46C402.23 198.7 403.75 197.636 405.016 196.268C406.334 194.849 407.347 193.202 408.056 191.328C408.766 189.453 409.12 187.401 409.12 185.172C409.12 182.942 408.766 180.89 408.056 179.016C407.347 177.141 406.334 175.519 405.016 174.151C403.75 172.733 402.23 171.643 400.456 170.883C398.734 170.123 396.834 169.743 394.756 169.743C392.679 169.743 390.753 170.123 388.98 170.883C387.257 171.643 385.737 172.733 384.42 174.151C383.103 175.519 382.089 177.141 381.38 179.016C380.721 180.89 380.392 182.942 380.392 185.172C380.392 187.401 380.721 189.478 381.38 191.404C382.089 193.278 383.103 194.9 384.42 196.268C385.737 197.636 387.257 198.7 388.98 199.46C390.753 200.22 392.679 200.6 394.756 200.6ZM432.264 212V158.799H456.205C459.6 158.799 462.665 159.534 465.401 161.003C468.188 162.473 470.366 164.499 471.937 167.083C473.508 169.617 474.293 172.505 474.293 175.747C474.293 179.092 473.508 182.106 471.937 184.792C470.366 187.426 468.213 189.504 465.477 191.024C462.741 192.544 459.65 193.304 456.205 193.304H444.577V212H432.264ZM461.753 212L448.225 187.984L461.449 186.084L476.497 212H461.753ZM444.577 183.424H455.065C456.382 183.424 457.522 183.145 458.485 182.588C459.498 181.98 460.258 181.144 460.765 180.08C461.322 179.016 461.601 177.8 461.601 176.431C461.601 175.063 461.297 173.873 460.689 172.859C460.081 171.795 459.194 170.985 458.029 170.427C456.914 169.87 455.546 169.591 453.925 169.591H444.577V183.424ZM484.565 212V201.132H493.533V169.667H484.565V158.799H515.497V169.667H506.453V201.132H515.497V212H484.565ZM521.021 212L542.074 158.799H553.018L573.918 212H560.846L550.814 185.02C550.408 183.956 550.003 182.816 549.598 181.6C549.192 180.384 548.787 179.142 548.382 177.876C547.976 176.558 547.571 175.291 547.166 174.075C546.811 172.809 546.507 171.643 546.254 170.579L548.534 170.503C548.23 171.77 547.875 173.011 547.47 174.227C547.115 175.443 546.735 176.659 546.33 177.876C545.975 179.041 545.57 180.232 545.114 181.448C544.658 182.613 544.227 183.829 543.822 185.096L533.789 212H521.021ZM531.053 201.816L535.081 192.088H559.554L563.506 201.816H531.053ZM579.492 212V201.132H588.46V169.667H579.492V158.799H610.424V169.667H601.38V201.132H610.424V212H579.492ZM640.345 212.76C636.849 212.76 633.682 212.355 630.845 211.544C628.058 210.683 625.575 209.467 623.397 207.896C621.218 206.275 619.267 204.375 617.544 202.196L625.373 193.304C627.906 196.698 630.439 198.978 632.973 200.144C635.557 201.309 638.217 201.892 640.953 201.892C642.321 201.892 643.562 201.715 644.677 201.36C645.792 201.005 646.653 200.499 647.261 199.84C647.869 199.13 648.173 198.269 648.173 197.256C648.173 196.496 647.97 195.812 647.565 195.204C647.21 194.596 646.704 194.064 646.045 193.608C645.386 193.152 644.601 192.746 643.689 192.392C642.777 191.986 641.814 191.657 640.801 191.404C639.787 191.1 638.749 190.846 637.685 190.644C634.746 189.985 632.187 189.174 630.009 188.212C627.83 187.249 626.006 186.084 624.537 184.716C623.118 183.297 622.054 181.701 621.344 179.928C620.635 178.104 620.28 176.077 620.28 173.847C620.28 171.466 620.812 169.287 621.876 167.311C622.991 165.285 624.461 163.562 626.285 162.143C628.159 160.674 630.313 159.559 632.745 158.799C635.177 157.989 637.71 157.583 640.345 157.583C643.841 157.583 646.83 157.963 649.313 158.723C651.846 159.433 654 160.471 655.773 161.839C657.597 163.207 659.142 164.854 660.409 166.779L652.429 174.455C651.365 173.138 650.2 172.049 648.933 171.187C647.717 170.326 646.4 169.667 644.981 169.211C643.613 168.755 642.194 168.527 640.725 168.527C639.205 168.527 637.887 168.73 636.773 169.135C635.709 169.49 634.873 170.022 634.265 170.731C633.657 171.39 633.353 172.201 633.353 173.163C633.353 174.025 633.606 174.759 634.113 175.367C634.619 175.975 635.303 176.533 636.165 177.04C637.026 177.496 638.014 177.901 639.129 178.256C640.243 178.56 641.409 178.813 642.625 179.016C645.412 179.573 647.92 180.308 650.149 181.22C652.429 182.132 654.38 183.246 656.001 184.564C657.673 185.881 658.94 187.452 659.801 189.276C660.713 191.049 661.169 193.126 661.169 195.508C661.169 199.206 660.257 202.348 658.433 204.932C656.66 207.465 654.202 209.416 651.061 210.784C647.97 212.101 644.398 212.76 640.345 212.76Z" fill="white"/>
<rect x="0.5" y="0.5" width="183" height="30" rx="15" stroke="white"/>
<path d="M31.7578 10.0499H37.2893C37.6978 10.0499 37.9021 10.2541 37.9021 10.6627C37.9021 11.0605 37.6978 11.2594 37.2893 11.2594H32.5318V14.7105L36.6603 14.7105C37.0581 14.7105 37.257 14.9148 37.257 15.3233C37.257 15.7211 37.0581 15.92 36.6603 15.92L32.5318 15.92V20.4033C32.5318 20.8011 32.3222 21 31.9029 21H31.7578C31.3385 21 31.1288 20.7957 31.1288 20.3872L31.1288 10.6627C31.1288 10.2541 31.3385 10.0499 31.7578 10.0499ZM43.3918 10.2595C44.0046 10.0337 44.6443 9.92085 45.3109 9.92085C45.9774 9.92085 46.6118 10.0337 47.2138 10.2595C47.8159 10.4745 48.3696 10.7971 48.8749 11.2271C49.391 11.6572 49.7995 12.2485 50.1005 13.0011C50.4123 13.7429 50.5682 14.5923 50.5682 15.5491C50.5682 16.4952 50.4123 17.3392 50.1005 18.081C49.7995 18.8121 49.391 19.3927 48.8749 19.8227C48.3696 20.2528 47.8159 20.5807 47.2138 20.8065C46.6118 21.0215 45.9774 21.129 45.3109 21.129C44.6443 21.129 44.0046 21.0215 43.3918 20.8065C42.7897 20.5807 42.2306 20.2528 41.7146 19.8227C41.2093 19.3927 40.8061 18.8121 40.5051 18.081C40.204 17.3392 40.0535 16.4952 40.0535 15.5491C40.0535 14.5923 40.204 13.7429 40.5051 13.0011C40.8061 12.2485 41.2093 11.6572 41.7146 11.2271C42.2306 10.7971 42.7897 10.4745 43.3918 10.2595ZM48.0202 12.2915C47.2676 11.5389 46.3645 11.1626 45.3109 11.1626C44.2573 11.1626 43.3488 11.5389 42.5854 12.2915C41.8328 13.0441 41.4566 14.1246 41.4566 15.533C41.4566 16.9307 41.8328 18.0058 42.5854 18.7584C43.3488 19.511 44.2573 19.8872 45.3109 19.8872C46.3645 19.8872 47.2676 19.511 48.0202 18.7584C48.7835 18.0058 49.1652 16.9307 49.1652 15.533C49.1652 14.1246 48.7835 13.0441 48.0202 12.2915ZM54.9483 11.2594V15.0814L57.2061 15.0814C57.8726 15.0814 58.4102 14.9148 58.8188 14.5815C59.2381 14.2482 59.4477 13.7752 59.4477 13.1623C59.4477 12.5388 59.2488 12.0657 58.851 11.7432C58.464 11.4206 57.9156 11.2594 57.2061 11.2594H54.9483ZM57.2544 10.0499C57.878 10.0499 58.4425 10.1412 58.9478 10.324C59.4531 10.496 59.8885 10.8293 60.254 11.3239C60.6196 11.8184 60.8024 12.4689 60.8024 13.2752C60.8024 14.0708 60.5067 14.7374 59.9154 15.275C59.3241 15.8125 58.6037 16.1136 57.7544 16.1781C58.1307 16.8877 58.6951 17.6886 59.4477 18.581C60.211 19.4733 60.9367 20.156 61.6248 20.6291C61.4098 20.9731 61.1303 21.1451 60.7862 21.1451C60.4422 21.1451 60.1035 21.0323 59.7702 20.8065C59.4477 20.5807 59.152 20.3173 58.8833 20.0163C58.6145 19.7152 58.3081 19.3121 57.964 18.8067C57.5985 18.2692 57.0878 17.4145 56.432 16.2426H54.9483V20.4033C54.9483 20.8011 54.7333 21 54.3032 21H54.2226C53.8033 21 53.5937 20.8011 53.5937 20.4033V10.6788C53.5937 10.2703 53.8033 10.066 54.2226 10.066L57.1416 10.0499C57.1738 10.0499 57.2114 10.0499 57.2544 10.0499ZM64.2985 20.4033L64.3952 10.8401C64.3952 10.3133 64.6586 10.0499 65.1855 10.0499L65.7176 10.0499C66.309 10.0499 66.7283 10.3885 66.9755 11.0659C67.2766 11.9152 67.7443 13.2914 68.3786 15.1943C69.0237 17.0973 69.5343 18.5702 69.9106 19.6131C70.2547 18.6455 70.7492 17.2209 71.3943 15.3395C72.0501 13.458 72.5501 12.0335 72.8941 11.0659C73.1306 10.3885 73.5445 10.0499 74.1359 10.0499H74.7164C74.9637 10.0499 75.1626 10.1251 75.3131 10.2756C75.4636 10.4154 75.5389 10.6036 75.5389 10.8401V11.7271L75.6034 20.4033C75.6034 20.8011 75.3938 21 74.9745 21H74.8293C74.41 21 74.2004 20.8011 74.2004 20.4033L74.2488 11.0659C72.4103 16.0867 71.276 19.1669 70.846 20.3065C70.6632 20.7688 70.3568 21 69.9268 21H69.8139C69.3623 21 69.0559 20.7688 68.8946 20.3065C68.6044 19.511 68.099 18.0488 67.3787 15.92C66.6691 13.7805 66.0939 12.1625 65.6531 11.0659L65.7015 20.4033C65.7015 20.8011 65.4919 21 65.0726 21H64.9274C64.5081 21 64.2985 20.8011 64.2985 20.4033ZM83.2043 10.066H83.3817C83.6505 10.066 83.8225 10.0982 83.8978 10.1628C83.9838 10.2273 84.0375 10.2703 84.0591 10.2918C84.0913 10.3025 84.1289 10.3455 84.1719 10.4208C84.2257 10.496 84.2579 10.5444 84.2687 10.5659C84.2902 10.5874 84.3278 10.6519 84.3816 10.7594C84.4353 10.867 84.473 10.9368 84.4945 10.9691C85.8169 13.3666 87.0371 16.4415 88.1553 20.1937C88.1875 20.3227 88.2037 20.4463 88.2037 20.5646C88.2037 20.8549 88.037 21 87.7037 21H87.3167C87.1339 21 87.0049 20.9677 86.9296 20.9032C86.8651 20.8387 86.8167 20.7904 86.7845 20.7581C86.7522 20.7258 86.72 20.6667 86.6877 20.5807C86.6555 20.4839 86.634 20.4141 86.6232 20.3711C86.591 20.3065 86.4835 19.941 86.3007 19.2744C86.1287 18.5971 85.9351 17.9466 85.7201 17.3231H80.8498C80.581 18.1509 80.3714 18.8551 80.2209 19.4357C80.0703 20.0163 79.9843 20.328 79.9628 20.3711C79.9521 20.4141 79.9306 20.4839 79.8983 20.5807C79.8661 20.6667 79.8338 20.7258 79.8016 20.7581C79.7693 20.7904 79.7263 20.828 79.6725 20.871C79.5865 20.957 79.4521 21 79.2694 21H78.8823C78.5383 21 78.3663 20.8549 78.3663 20.5646C78.3663 20.4893 78.3878 20.3657 78.4308 20.1937C79.5489 16.4415 80.7692 13.3666 82.0916 10.9691C82.1131 10.9368 82.1507 10.867 82.2045 10.7594C82.2582 10.6519 82.2905 10.5874 82.3012 10.5659C82.3227 10.5444 82.355 10.496 82.398 10.4208C82.4517 10.3455 82.4894 10.3025 82.5109 10.2918C82.5431 10.2703 82.5861 10.238 82.6399 10.195C82.6936 10.152 82.742 10.1251 82.785 10.1144C82.9355 10.0821 83.0753 10.066 83.2043 10.066ZM83.285 11.598C82.5861 12.8344 81.9088 14.3557 81.253 16.1619H85.3331C84.946 15.0976 84.2633 13.5763 83.285 11.598ZM95.6304 9.92085C96.7701 9.92085 97.7054 10.1466 98.4365 10.5982C99.1784 11.0497 99.5493 11.5497 99.5493 12.098C99.5493 12.3345 99.4579 12.528 99.2751 12.6785C99.1031 12.8183 98.8719 12.8882 98.5817 12.8882C98.2484 11.7486 97.2646 11.1787 95.6304 11.1787C94.5553 11.1787 93.6415 11.5443 92.8889 12.2754C92.147 12.9957 91.7761 14.0708 91.7761 15.5007C91.7761 16.9199 92.1524 18.0112 92.905 18.7745C93.6576 19.5271 94.5661 19.9034 95.6304 19.9034C97.2861 19.9034 98.3398 19.2959 98.7913 18.081C99.0493 18.081 99.2482 18.1563 99.388 18.3068C99.5385 18.4466 99.6138 18.6347 99.6138 18.8713C99.6138 19.4196 99.2375 19.9356 98.4849 20.4194C97.7323 20.8925 96.7808 21.129 95.6304 21.129C94.1145 21.129 92.8459 20.6398 91.8245 19.6615C90.8031 18.6831 90.2925 17.2962 90.2925 15.5007C90.2925 13.7053 90.8031 12.3291 91.8245 11.3723C92.8459 10.4047 94.1145 9.92085 95.6304 9.92085ZM95.9369 21.4516H95.7272L95.9369 20.7742H95.2273L94.9854 21.387C94.9531 21.4731 94.937 21.5429 94.937 21.5967C94.937 21.8117 95.0606 21.9192 95.3079 21.9192H95.6627C96.039 21.9192 96.2271 22.0375 96.2271 22.274C96.2271 22.403 96.168 22.5052 96.0497 22.5804C95.9315 22.6557 95.781 22.6933 95.5982 22.6933C95.1251 22.6933 94.8886 22.5589 94.8886 22.2901C94.7381 22.2901 94.6145 22.3385 94.5177 22.4353C94.4209 22.5428 94.3726 22.6718 94.3726 22.8223C94.3726 23.2954 94.765 23.5319 95.5498 23.5319C95.9476 23.5319 96.297 23.4298 96.5981 23.2255C96.9098 23.0212 97.0657 22.7525 97.0657 22.4192C97.0657 22.0859 96.9582 21.8386 96.7432 21.6773C96.5389 21.5268 96.2701 21.4516 95.9369 21.4516ZM106.52 10.066H106.697C106.966 10.066 107.138 10.0982 107.213 10.1628C107.299 10.2273 107.353 10.2703 107.374 10.2918C107.407 10.3025 107.444 10.3455 107.487 10.4208C107.541 10.496 107.573 10.5444 107.584 10.5659C107.605 10.5874 107.643 10.6519 107.697 10.7594C107.751 10.867 107.788 10.9368 107.81 10.9691C109.132 13.3666 110.352 16.4415 111.471 20.1937C111.503 20.3227 111.519 20.4463 111.519 20.5646C111.519 20.8549 111.352 21 111.019 21H110.632C110.449 21 110.32 20.9677 110.245 20.9032C110.18 20.8387 110.132 20.7904 110.1 20.7581C110.068 20.7258 110.035 20.6667 110.003 20.5807C109.971 20.4839 109.949 20.4141 109.939 20.3711C109.906 20.3065 109.799 19.941 109.616 19.2744C109.444 18.5971 109.25 17.9466 109.035 17.3231H104.165C103.896 18.1509 103.687 18.8551 103.536 19.4357C103.386 20.0163 103.3 20.328 103.278 20.3711C103.267 20.4141 103.246 20.4839 103.214 20.5807C103.181 20.6667 103.149 20.7258 103.117 20.7581C103.085 20.7904 103.042 20.828 102.988 20.871C102.902 20.957 102.767 21 102.585 21H102.198C101.854 21 101.682 20.8549 101.682 20.5646C101.682 20.4893 101.703 20.3657 101.746 20.1937C102.864 16.4415 104.084 13.3666 105.407 10.9691C105.428 10.9368 105.466 10.867 105.52 10.7594C105.573 10.6519 105.606 10.5874 105.617 10.5659C105.638 10.5444 105.67 10.496 105.713 10.4208C105.767 10.3455 105.805 10.3025 105.826 10.2918C105.858 10.2703 105.901 10.238 105.955 10.195C106.009 10.152 106.057 10.1251 106.1 10.1144C106.251 10.0821 106.391 10.066 106.52 10.066ZM106.6 11.598C105.901 12.8344 105.224 14.3557 104.568 16.1619H108.648C108.261 15.0976 107.579 13.5763 106.6 11.598ZM106.826 8.84035C106.805 8.8296 106.735 8.80272 106.616 8.75971C106.509 8.70596 106.353 8.63608 106.149 8.55007C105.944 8.4533 105.713 8.40492 105.455 8.40492C105.197 8.40492 104.988 8.46943 104.826 8.59845C104.665 8.72746 104.541 8.79197 104.455 8.79197C104.219 8.79197 104.101 8.6737 104.101 8.43718C104.101 7.65234 104.552 7.25992 105.455 7.25992C105.617 7.25992 105.746 7.27067 105.842 7.29217C105.95 7.31367 106.02 7.3298 106.052 7.34055C106.095 7.34055 106.159 7.35668 106.245 7.38893C106.331 7.42119 106.385 7.44269 106.407 7.45344C106.428 7.46419 106.493 7.49644 106.6 7.5502C106.719 7.5932 106.788 7.62008 106.81 7.63083C107.197 7.80285 107.519 7.88886 107.778 7.88886C108.036 7.88886 108.245 7.82436 108.406 7.69534C108.568 7.56633 108.691 7.50182 108.777 7.50182C108.874 7.50182 108.955 7.53407 109.019 7.59858C109.095 7.66309 109.132 7.7491 109.132 7.85661C109.132 8.64145 108.681 9.03387 107.778 9.03387C107.616 9.03387 107.482 9.02312 107.374 9.00162C107.278 8.98011 107.208 8.96936 107.165 8.96936C107.132 8.95861 107.073 8.93711 106.987 8.90486C106.901 8.8726 106.848 8.8511 106.826 8.84035ZM116.865 10.2595C117.478 10.0337 118.118 9.92085 118.784 9.92085C119.451 9.92085 120.085 10.0337 120.687 10.2595C121.289 10.4745 121.843 10.7971 122.348 11.2271C122.865 11.6572 123.273 12.2485 123.574 13.0011C123.886 13.7429 124.042 14.5923 124.042 15.5491C124.042 16.4952 123.886 17.3392 123.574 18.081C123.273 18.8121 122.865 19.3927 122.348 19.8227C121.843 20.2528 121.289 20.5807 120.687 20.8065C120.085 21.0215 119.451 21.129 118.784 21.129C118.118 21.129 117.478 21.0215 116.865 20.8065C116.263 20.5807 115.704 20.2528 115.188 19.8227C114.683 19.3927 114.28 18.8121 113.979 18.081C113.678 17.3392 113.527 16.4952 113.527 15.5491C113.527 14.5923 113.678 13.7429 113.979 13.0011C114.28 12.2485 114.683 11.6572 115.188 11.2271C115.704 10.7971 116.263 10.4745 116.865 10.2595ZM121.494 12.2915C120.741 11.5389 119.838 11.1626 118.784 11.1626C117.731 11.1626 116.822 11.5389 116.059 12.2915C115.306 13.0441 114.93 14.1246 114.93 15.533C114.93 16.9307 115.306 18.0058 116.059 18.7584C116.822 19.511 117.731 19.8872 118.784 19.8872C119.838 19.8872 120.741 19.511 121.494 18.7584C122.257 18.0058 122.639 16.9307 122.639 15.533C122.639 14.1246 122.257 13.0441 121.494 12.2915ZM132.369 10.0499H137.933C138.331 10.0499 138.53 10.2541 138.53 10.6627C138.53 11.0605 138.331 11.2594 137.933 11.2594H133.143V14.7105L137.401 14.7105C137.799 14.7105 137.997 14.9148 137.997 15.3233C137.997 15.7211 137.799 15.92 137.401 15.92L133.143 15.92V19.7905L137.933 19.7905C138.331 19.7905 138.53 19.9948 138.53 20.4033C138.53 20.8011 138.331 21 137.933 21H132.369C131.95 21 131.74 20.7957 131.74 20.3872V10.6627C131.74 10.2541 131.95 10.0499 132.369 10.0499ZM141.532 20.4033L141.628 10.8401C141.628 10.3133 141.892 10.0499 142.419 10.0499H142.951C143.542 10.0499 143.961 10.3885 144.209 11.0659C144.51 11.9152 144.977 13.2914 145.612 15.1943C146.257 17.0973 146.767 18.5702 147.144 19.6131C147.488 18.6455 147.982 17.2209 148.627 15.3395C149.283 13.458 149.783 12.0335 150.127 11.0659C150.364 10.3885 150.778 10.0499 151.369 10.0499H151.95C152.197 10.0499 152.396 10.1251 152.546 10.2756C152.697 10.4154 152.772 10.6036 152.772 10.8401V11.7271L152.837 20.4033C152.837 20.8011 152.627 21 152.208 21H152.062C151.643 21 151.434 20.8011 151.434 20.4033L151.482 11.0659C149.643 16.0867 148.509 19.1669 148.079 20.3065C147.896 20.7688 147.59 21 147.16 21H147.047C146.595 21 146.289 20.7688 146.128 20.3065C145.838 19.511 145.332 18.0488 144.612 15.92C143.902 13.7805 143.327 12.1625 142.886 11.0659L142.935 20.4033C142.935 20.8011 142.725 21 142.306 21H142.161C141.741 21 141.532 20.8011 141.532 20.4033Z" fill="white"/>
</svg>
