<svg width="710" height="220" viewBox="0 0 710 220" fill="none" xmlns="http://www.w3.org/2000/svg">
<path d="M498.07 97V76.1355H500.395V97H498.07ZM499.233 87.7004V85.4053H509.784V87.7004H499.233ZM499.233 78.4008V76.1355H511.185V78.4008H499.233ZM515.739 97V76.1355H528.376V78.4008H518.063V94.7347H528.317V97H515.739ZM516.812 87.4023V85.137H526.707V87.4023H516.812ZM533.582 97V76.1355H541.749C542.961 76.1355 544.054 76.4236 545.027 76.9999C546.021 77.5563 546.806 78.3213 547.382 79.295C547.958 80.2686 548.246 81.3715 548.246 82.6035C548.246 83.756 547.968 84.7992 547.412 85.7332C546.855 86.6671 546.1 87.4123 545.147 87.9686C544.193 88.5052 543.12 88.7734 541.927 88.7734H535.907V97H533.582ZM546.309 97L541.063 87.8196L543.299 87.0446L549.081 97H546.309ZM535.907 86.5081H542.136C542.871 86.5081 543.517 86.3392 544.074 86.0014C544.63 85.6636 545.067 85.2066 545.385 84.6303C545.703 84.0342 545.862 83.3586 545.862 82.6035C545.862 81.7888 545.673 81.0635 545.296 80.4276C544.918 79.7917 544.391 79.295 543.716 78.9373C543.06 78.5796 542.305 78.4008 541.451 78.4008H535.907V86.5081ZM553.259 97V76.1355H561.426C562.638 76.1355 563.731 76.4236 564.704 76.9999C565.698 77.5563 566.483 78.3213 567.059 79.295C567.635 80.2686 567.923 81.3715 567.923 82.6035C567.923 83.756 567.645 84.7992 567.089 85.7332C566.532 86.6671 565.777 87.4123 564.823 87.9686C563.87 88.5052 562.797 88.7734 561.604 88.7734H555.583V97H553.259ZM565.986 97L560.74 87.8196L562.975 87.0446L568.758 97H565.986ZM555.583 86.5081H561.813C562.548 86.5081 563.194 86.3392 563.75 86.0014C564.307 85.6636 564.744 85.2066 565.062 84.6303C565.38 84.0342 565.539 83.3586 565.539 82.6035C565.539 81.7888 565.35 81.0635 564.973 80.4276C564.595 79.7917 564.068 79.295 563.393 78.9373C562.737 78.5796 561.982 78.4008 561.127 78.4008H555.583V86.5081ZM570.611 97L578.599 76.1355H581.251L589.18 97H586.646L581.55 83.4679C581.41 83.0903 581.251 82.6532 581.073 82.1564C580.914 81.6397 580.735 81.1132 580.536 80.5766C580.357 80.0203 580.178 79.4837 580 78.9671C579.841 78.4505 579.692 77.9934 579.553 77.596H580.149C579.99 78.0928 579.821 78.5995 579.642 79.1161C579.483 79.6129 579.314 80.1196 579.135 80.6363C578.956 81.133 578.778 81.6298 578.599 82.1266C578.42 82.6234 578.241 83.1201 578.062 83.6169L572.995 97H570.611ZM574.009 91.2474L574.873 88.9821H584.739L585.693 91.2474H574.009ZM592.991 97V76.1355H595.256L603.274 89.1609L602.201 89.1311L610.308 76.1355H612.425V97H610.1V87.4619C610.1 85.6735 610.13 84.064 610.189 82.6333C610.249 81.2026 610.358 79.7818 610.517 78.371L610.934 79.2055L603.453 90.9493H601.843L594.571 79.3546L594.898 78.371C595.057 79.7023 595.167 81.0734 595.226 82.4843C595.286 83.8752 595.316 85.5345 595.316 87.4619V97H592.991ZM618.577 97V76.1355H631.215V78.4008H620.902V94.7347H631.155V97H618.577ZM619.65 87.4023V85.137H629.545V87.4023H619.65ZM636.42 97V76.1355H638.536L652.187 94.1982L651.77 94.7347C651.71 94.4168 651.661 93.9399 651.621 93.304C651.601 92.6681 651.571 91.9528 651.532 91.1579C651.512 90.3432 651.492 89.4987 651.472 88.6244C651.452 87.7501 651.432 86.8956 651.412 86.061C651.412 85.2265 651.412 84.4714 651.412 83.7957V76.1355H653.737V97H651.561L637.97 79.1757L638.327 78.5498C638.387 79.3446 638.437 80.1295 638.476 80.9045C638.536 81.6795 638.576 82.4246 638.596 83.14C638.635 83.8554 638.665 84.5111 638.685 85.1072C638.705 85.7034 638.715 86.2101 638.715 86.6274C638.735 87.0446 638.745 87.3427 638.745 87.5215V97H636.42ZM663.666 97V78.4008H657.705V76.1355H672.191V78.4008H665.991V97H663.666ZM672.313 97L680.302 76.1355H682.954L690.883 97H688.349L683.252 83.4679C683.113 83.0903 682.954 82.6532 682.776 82.1564C682.617 81.6397 682.438 81.1132 682.239 80.5766C682.06 80.0203 681.881 79.4837 681.702 78.9671C681.544 78.4505 681.394 77.9934 681.255 77.596H681.852C681.693 78.0928 681.524 78.5995 681.345 79.1161C681.186 79.6129 681.017 80.1196 680.838 80.6363C680.659 81.133 680.48 81.6298 680.302 82.1266C680.123 82.6234 679.944 83.1201 679.765 83.6169L674.698 97H672.313ZM675.711 91.2474L676.576 88.9821H686.442L687.396 91.2474H675.711ZM700.774 97.2981C699.721 97.2981 698.727 97.149 697.794 96.851C696.86 96.5529 696.005 96.1058 695.23 95.5097C694.455 94.9135 693.77 94.1783 693.174 93.304L694.783 91.5156C695.717 92.847 696.671 93.7809 697.645 94.3174C698.638 94.8539 699.751 95.1222 700.983 95.1222C701.877 95.1222 702.692 94.9732 703.427 94.6751C704.162 94.377 704.738 93.9597 705.156 93.4232C705.573 92.8867 705.782 92.2707 705.782 91.5752C705.782 91.1182 705.702 90.7108 705.543 90.3532C705.404 89.9955 705.186 89.6775 704.887 89.3994C704.589 89.1212 704.222 88.8728 703.785 88.6542C703.347 88.4356 702.841 88.2369 702.265 88.0581C701.708 87.8792 701.082 87.7004 700.387 87.5215C699.373 87.2831 698.479 87.0049 697.704 86.687C696.949 86.3492 696.303 85.9418 695.767 85.4649C695.25 84.988 694.853 84.4415 694.574 83.8255C694.316 83.1897 694.187 82.4445 694.187 81.5901C694.187 80.7754 694.356 80.0203 694.694 79.3248C695.051 78.6293 695.538 78.0332 696.154 77.5364C696.77 77.0197 697.495 76.6223 698.33 76.3441C699.165 76.0659 700.059 75.9268 701.013 75.9268C702.086 75.9268 703.039 76.0759 703.874 76.3739C704.729 76.6521 705.484 77.0694 706.139 77.6258C706.795 78.1822 707.361 78.8479 707.838 79.6228L706.199 81.2324C705.782 80.5766 705.305 80.0103 704.768 79.5334C704.252 79.0565 703.675 78.6988 703.039 78.4604C702.423 78.2021 701.738 78.0729 700.983 78.0729C700.109 78.0729 699.334 78.2219 698.658 78.52C698.002 78.8181 697.486 79.2354 697.108 79.7719C696.73 80.2885 696.542 80.8846 696.542 81.5603C696.542 82.057 696.631 82.5041 696.81 82.9015C696.989 83.2791 697.267 83.6169 697.645 83.915C698.042 84.1932 698.549 84.4515 699.165 84.6899C699.801 84.9085 700.556 85.1172 701.43 85.3159C702.463 85.5543 703.387 85.8425 704.202 86.1803C705.037 86.5181 705.742 86.9254 706.318 87.4023C706.914 87.8594 707.361 88.3959 707.659 89.0119C707.977 89.6279 708.136 90.3333 708.136 91.1281C708.136 92.3601 707.828 93.4431 707.212 94.377C706.596 95.2911 705.732 96.0065 704.619 96.5231C703.526 97.0397 702.245 97.2981 700.774 97.2981ZM498.07 135V114.135H506.326C507.419 114.135 508.403 114.404 509.277 114.94C510.152 115.477 510.847 116.222 511.364 117.176C511.88 118.11 512.139 119.163 512.139 120.335C512.139 121.567 511.88 122.67 511.364 123.644C510.847 124.598 510.152 125.363 509.277 125.939C508.403 126.495 507.419 126.773 506.326 126.773H500.395V135H498.07ZM500.395 124.508H506.446C507.062 124.508 507.608 124.329 508.085 123.972C508.582 123.594 508.979 123.097 509.277 122.481C509.575 121.845 509.724 121.12 509.724 120.305C509.724 119.57 509.575 118.914 509.277 118.338C508.979 117.742 508.582 117.275 508.085 116.937C507.608 116.58 507.062 116.401 506.446 116.401H500.395V124.508ZM512.337 135L520.325 114.135H522.978L530.906 135H528.373L523.276 121.468C523.137 121.09 522.978 120.653 522.799 120.156C522.64 119.64 522.461 119.113 522.262 118.577C522.083 118.02 521.905 117.484 521.726 116.967C521.567 116.45 521.418 115.993 521.279 115.596H521.875C521.716 116.093 521.547 116.599 521.368 117.116C521.209 117.613 521.04 118.12 520.861 118.636C520.682 119.133 520.504 119.63 520.325 120.127C520.146 120.623 519.967 121.12 519.788 121.617L514.721 135H512.337ZM515.735 129.247L516.599 126.982H526.465L527.419 129.247H515.735ZM534.717 135V114.135H542.884C544.096 114.135 545.189 114.424 546.163 115C547.156 115.556 547.941 116.321 548.517 117.295C549.094 118.269 549.382 119.371 549.382 120.603C549.382 121.756 549.103 122.799 548.547 123.733C547.991 124.667 547.236 125.412 546.282 125.969C545.328 126.505 544.255 126.773 543.063 126.773H537.042V135H534.717ZM547.444 135L542.198 125.82L544.434 125.045L550.216 135H547.444ZM537.042 124.508H543.271C544.007 124.508 544.652 124.339 545.209 124.001C545.765 123.664 546.202 123.207 546.52 122.63C546.838 122.034 546.997 121.359 546.997 120.603C546.997 119.789 546.808 119.063 546.431 118.428C546.053 117.792 545.527 117.295 544.851 116.937C544.195 116.58 543.44 116.401 542.586 116.401H537.042V124.508ZM552.069 135L560.057 114.135H562.71L570.638 135H568.105L563.008 121.468C562.869 121.09 562.71 120.653 562.531 120.156C562.372 119.64 562.193 119.113 561.994 118.577C561.816 118.02 561.637 117.484 561.458 116.967C561.299 116.45 561.15 115.993 561.011 115.596H561.607C561.448 116.093 561.279 116.599 561.1 117.116C560.941 117.613 560.772 118.12 560.594 118.636C560.415 119.133 560.236 119.63 560.057 120.127C559.878 120.623 559.699 121.12 559.52 121.617L554.453 135H552.069ZM555.467 129.247L556.331 126.982H566.197L567.151 129.247H555.467ZM580.478 135L588.466 114.135H591.119L599.048 135H596.514L591.417 121.468C591.278 121.09 591.119 120.653 590.94 120.156C590.781 119.64 590.602 119.113 590.404 118.577C590.225 118.02 590.046 117.484 589.867 116.967C589.708 116.45 589.559 115.993 589.42 115.596H590.016C589.857 116.093 589.688 116.599 589.51 117.116C589.351 117.613 589.182 118.12 589.003 118.636C588.824 119.133 588.645 119.63 588.466 120.127C588.287 120.623 588.109 121.12 587.93 121.617L582.863 135H580.478ZM583.876 129.247L584.74 126.982H594.606L595.56 129.247H583.876ZM617.293 135.298C616.24 135.298 615.246 135.149 614.312 134.851C613.378 134.553 612.524 134.106 611.749 133.51C610.974 132.914 610.288 132.178 609.692 131.304L611.302 129.516C612.236 130.847 613.189 131.781 614.163 132.317C615.157 132.854 616.269 133.122 617.501 133.122C618.396 133.122 619.21 132.973 619.946 132.675C620.681 132.377 621.257 131.96 621.674 131.423C622.092 130.887 622.3 130.271 622.3 129.575C622.3 129.118 622.221 128.711 622.062 128.353C621.923 127.995 621.704 127.678 621.406 127.399C621.108 127.121 620.74 126.873 620.303 126.654C619.866 126.436 619.359 126.237 618.783 126.058C618.227 125.879 617.601 125.7 616.905 125.522C615.892 125.283 614.998 125.005 614.223 124.687C613.468 124.349 612.822 123.942 612.285 123.465C611.769 122.988 611.371 122.442 611.093 121.826C610.835 121.19 610.706 120.445 610.706 119.59C610.706 118.775 610.875 118.02 611.212 117.325C611.57 116.629 612.057 116.033 612.673 115.536C613.289 115.02 614.014 114.622 614.849 114.344C615.683 114.066 616.577 113.927 617.531 113.927C618.604 113.927 619.558 114.076 620.393 114.374C621.247 114.652 622.002 115.069 622.658 115.626C623.314 116.182 623.88 116.848 624.357 117.623L622.718 119.232C622.3 118.577 621.823 118.01 621.287 117.533C620.77 117.057 620.194 116.699 619.558 116.46C618.942 116.202 618.257 116.073 617.501 116.073C616.627 116.073 615.852 116.222 615.177 116.52C614.521 116.818 614.004 117.235 613.627 117.772C613.249 118.289 613.06 118.885 613.06 119.56C613.06 120.057 613.15 120.504 613.329 120.902C613.507 121.279 613.786 121.617 614.163 121.915C614.561 122.193 615.067 122.451 615.683 122.69C616.319 122.909 617.074 123.117 617.949 123.316C618.982 123.554 619.906 123.842 620.721 124.18C621.555 124.518 622.261 124.925 622.837 125.402C623.433 125.859 623.88 126.396 624.178 127.012C624.496 127.628 624.655 128.333 624.655 129.128C624.655 130.36 624.347 131.443 623.731 132.377C623.115 133.291 622.251 134.006 621.138 134.523C620.045 135.04 618.763 135.298 617.293 135.298ZM627.022 135L635.01 114.135H637.663L645.591 135H643.057L637.961 121.468C637.821 121.09 637.663 120.653 637.484 120.156C637.325 119.64 637.146 119.113 636.947 118.577C636.768 118.02 636.589 117.484 636.411 116.967C636.252 116.45 636.103 115.993 635.964 115.596H636.56C636.401 116.093 636.232 116.599 636.053 117.116C635.894 117.613 635.725 118.12 635.546 118.636C635.367 119.133 635.189 119.63 635.01 120.127C634.831 120.623 634.652 121.12 634.473 121.617L629.406 135H627.022ZM630.42 129.247L631.284 126.982H641.15L642.104 129.247H630.42ZM656.838 135.209C655.268 135.209 653.867 134.861 652.635 134.165C651.403 133.45 650.429 132.476 649.714 131.244C649.018 129.993 648.671 128.582 648.671 127.012V114.135H650.996V126.744C650.996 127.916 651.254 128.969 651.771 129.903C652.287 130.837 652.983 131.572 653.857 132.109C654.751 132.645 655.745 132.914 656.838 132.914C657.99 132.914 659.013 132.645 659.908 132.109C660.822 131.572 661.537 130.837 662.054 129.903C662.57 128.969 662.829 127.916 662.829 126.744V114.135H665.064V127.012C665.064 128.582 664.707 129.993 663.991 131.244C663.296 132.476 662.322 133.45 661.07 134.165C659.838 134.861 658.427 135.209 656.838 135.209ZM655.049 112.437L654.364 111.185L659.341 108.055L660.563 110.141L655.049 112.437ZM671.087 135V114.135H678.956C680.387 114.135 681.688 114.394 682.861 114.91C684.053 115.407 685.086 116.123 685.961 117.057C686.835 117.99 687.511 119.093 687.987 120.365C688.464 121.637 688.703 123.038 688.703 124.568C688.703 126.098 688.464 127.509 687.987 128.8C687.511 130.072 686.835 131.175 685.961 132.109C685.106 133.023 684.083 133.738 682.891 134.255C681.698 134.752 680.387 135 678.956 135H671.087ZM673.412 133.152L673.144 132.735H678.807C679.9 132.735 680.903 132.546 681.818 132.168C682.751 131.771 683.546 131.215 684.202 130.499C684.878 129.764 685.394 128.9 685.752 127.906C686.13 126.913 686.318 125.8 686.318 124.568C686.318 123.336 686.13 122.223 685.752 121.229C685.394 120.236 684.878 119.381 684.202 118.666C683.526 117.931 682.732 117.374 681.818 116.997C680.903 116.599 679.9 116.401 678.807 116.401H673.054L673.412 116.043V133.152ZM693.238 135V114.135H705.876V116.401H695.563V132.735H705.817V135H693.238ZM694.311 125.402V123.137H704.207V125.402H694.311Z" fill="white"/>
<path d="M459 70V140" stroke="white"/>
<g filter="url(#filter0_d_44_1486)">
<path d="M319.792 147.873C312.022 147.873 308.137 144.067 308.137 136.454V96.1514C308.137 84.7323 310.727 76.056 315.907 70.1226C321.195 64.1891 328.749 61.2224 338.569 61.2224C351.951 61.2224 361.015 66.2043 365.764 76.168C370.512 66.2043 379.577 61.2224 392.958 61.2224C402.779 61.2224 410.279 64.1891 415.459 70.1226C420.747 76.056 423.391 84.7323 423.391 96.1514V136.454C423.391 144.067 419.506 147.873 411.736 147.873C403.966 147.873 400.081 144.067 400.081 136.454V97.4948C400.081 91.7853 399.164 87.699 397.329 85.2361C395.494 82.6612 392.635 81.3738 388.75 81.3738C380.98 81.3738 377.095 86.7474 377.095 97.4948V135.782C377.095 143.395 373.318 147.201 365.764 147.201C358.21 147.201 354.433 143.395 354.433 135.782V97.4948C354.433 86.7474 350.548 81.3738 342.778 81.3738C335.224 81.3738 331.447 86.7474 331.447 97.4948V136.454C331.447 144.067 327.562 147.873 319.792 147.873Z" fill="white"/>
<path d="M255.557 147.873C248.438 147.873 242.183 146.356 236.79 143.322C231.397 140.287 227.191 136.017 224.171 130.51C221.259 125.003 219.803 118.597 219.803 111.292V71.8444C219.803 64.2022 223.686 60.3811 231.451 60.3811C239.217 60.3811 243.099 64.2022 243.099 71.8444V110.955C243.099 116.237 244.178 120.339 246.335 123.261C248.492 126.183 251.566 127.644 255.557 127.644C259.547 127.644 262.621 126.183 264.778 123.261C266.935 120.339 268.014 116.237 268.014 110.955V71.8444C268.014 64.2022 271.897 60.3811 279.662 60.3811C287.428 60.3811 291.311 64.2022 291.311 71.8444V111.292C291.311 118.597 289.801 125.003 286.781 130.51C283.869 136.017 279.716 140.287 274.323 143.322C269.039 146.356 262.783 147.873 255.557 147.873Z" fill="white"/>
<path d="M190.689 48.7903C186.632 48.7903 183.232 47.4194 180.491 44.6774C177.749 41.9355 176.379 38.5652 176.379 34.5665C176.379 30.3394 177.749 26.8548 180.491 24.1129C183.232 21.371 186.632 20 190.689 20C194.856 20 198.256 21.371 200.888 24.1129C203.629 26.8548 205 30.3394 205 34.5665C205 38.5652 203.629 41.9355 200.888 44.6774C198.256 47.4194 194.856 48.7903 190.689 48.7903ZM190.854 63.1855C195.131 63.1855 198.146 64.4993 199.901 67.127C201.765 69.6405 202.697 72.8394 202.697 76.7238V145.786C202.697 158.925 199.956 169.55 194.473 177.661C189.099 185.773 180.71 189.886 169.305 190H167.496C158.614 189.772 152.144 188.401 148.086 185.887C144.029 183.488 142 179.718 142 174.577C142 170.806 142.987 168.293 144.961 167.036C146.825 165.894 149.457 165.323 152.856 165.323C155.817 165.323 158.339 165.551 160.423 166.008C162.507 166.579 165.084 166.979 168.154 167.208H169.141C173.527 167.208 176.379 165.437 177.695 161.895C179.01 158.468 179.668 154.241 179.668 149.214V76.7238C179.668 72.0396 180.601 68.6122 182.465 66.4415C184.439 64.2708 187.235 63.1855 190.854 63.1855Z" fill="#DC2E5D"/>
<path d="M135.658 144.508C124.877 144.508 116.414 142.661 110.269 138.966C104.232 135.272 99.9199 130.178 97.3326 123.685C94.853 117.192 93.6133 109.747 93.6133 101.35C93.6133 85.9011 96.9014 74.8179 103.478 68.1008C110.054 61.2717 118.894 57.8572 129.998 57.8572C136.682 57.8572 142.611 59.0327 147.786 61.3837C152.96 63.7347 157.003 67.0932 159.914 71.4593C162.825 75.7135 164.28 80.9193 164.28 87.0766C164.28 104.989 151.99 113.945 127.41 113.945H118.031C118.894 117.416 120.295 120.158 122.236 122.174C124.284 124.077 127.842 125.028 132.908 125.028C135.711 125.028 137.975 124.86 139.7 124.525C141.425 124.189 143.042 123.853 144.551 123.517C146.169 123.181 148.001 123.013 150.05 123.013C152.96 123.013 155.278 123.573 157.003 124.692C158.728 125.7 159.59 127.827 159.59 131.074C159.59 135.664 157.65 139.078 153.769 141.317C149.996 143.444 143.959 144.508 135.658 144.508ZM116.899 101.518C117.762 100.287 118.732 99.5033 119.81 99.1674C120.888 98.7196 122.559 98.4957 124.823 98.4957C131.184 98.4957 135.55 97.88 137.921 96.6485C140.401 95.3051 141.641 92.9541 141.641 89.5955C141.641 85.3414 140.509 82.0948 138.245 79.8557C135.981 77.5047 133.124 76.3292 129.674 76.3292C125.685 76.3292 122.559 78.0645 120.295 81.535C118.031 85.0055 116.899 91.6666 116.899 101.518Z" fill="white"/>
<path d="M45.2384 148.327C41.2433 148.327 37.572 147.949 34.2248 147.194C30.8775 146.546 28.0701 145.736 25.8025 144.764C21.2675 142.821 19 139.743 19 135.532C19 129.054 22.8872 125.814 30.6615 125.814C33.037 125.814 35.5205 126.03 38.1119 126.462C40.8113 126.786 43.1868 126.948 45.2384 126.948C48.6937 126.948 51.0692 125.922 52.3649 123.871C53.7686 121.819 54.4704 118.148 54.4704 112.857V37.6812C54.4704 29.259 58.3576 25.0479 66.1319 25.0479C73.9063 25.0479 77.7935 29.259 77.7935 37.6812V116.42C77.7935 126.678 74.9861 134.56 69.3713 140.067C63.8644 145.574 55.8201 148.327 45.2384 148.327Z" fill="white"/>
</g>
<rect x="24.5" y="163.5" width="101" height="26" rx="3.94191" stroke="#DC2E5D"/>
<mask id="path-9-outside-1_44_1486" maskUnits="userSpaceOnUse" x="51" y="171" width="48" height="11" fill="black">
<rect fill="white" x="51" y="171" width="48" height="11"/>
<path d="M56.3034 171.753C57.2546 171.753 58.0353 171.941 58.6455 172.318C59.2646 172.695 59.5742 173.112 59.5742 173.57C59.5742 173.767 59.4979 173.929 59.3454 174.054C59.2018 174.171 59.0089 174.229 58.7666 174.229C58.4884 173.278 57.6673 172.803 56.3034 172.803C55.406 172.803 54.6433 173.108 54.0151 173.718C53.3959 174.319 53.0863 175.217 53.0863 176.41C53.0863 177.595 53.4004 178.505 54.0286 179.142C54.6567 179.771 55.415 180.085 56.3034 180.085C57.6853 180.085 58.5647 179.578 58.9416 178.564C59.157 178.564 59.323 178.626 59.4396 178.752C59.5652 178.869 59.6281 179.026 59.6281 179.223C59.6281 179.681 59.314 180.112 58.6858 180.515C58.0577 180.91 57.2635 181.108 56.3034 181.108C55.0381 181.108 53.9792 180.699 53.1267 179.883C52.2742 179.066 51.848 177.909 51.848 176.41C51.848 174.911 52.2742 173.763 53.1267 172.964C53.9792 172.157 55.0381 171.753 56.3034 171.753ZM62.6461 171.86H62.7807C63.1307 171.86 63.3057 172.035 63.3057 172.385V177.177C63.3057 179.134 64.1357 180.112 65.7958 180.112C67.4559 180.112 68.286 179.134 68.286 177.177V172.385C68.286 172.035 68.461 171.86 68.8109 171.86H68.9186C69.2865 171.86 69.4705 172.035 69.4705 172.385V177.123C69.4705 177.913 69.3404 178.622 69.0802 179.25C68.9186 179.618 68.7077 179.937 68.4475 180.206C68.1873 180.466 67.8283 180.681 67.3707 180.852C66.922 181.022 66.3971 181.108 65.7958 181.108C65.1946 181.108 64.6652 181.022 64.2075 180.852C63.7588 180.681 63.4044 180.466 63.1442 180.206C62.8839 179.937 62.673 179.618 62.5115 179.25C62.2513 178.622 62.1212 177.913 62.1212 177.123V172.385C62.1212 172.035 62.2962 171.86 62.6461 171.86ZM73.6733 172.87V176.06H75.5577C76.1141 176.06 76.5628 175.921 76.9038 175.643C77.2537 175.365 77.4287 174.97 77.4287 174.458C77.4287 173.938 77.2627 173.543 76.9307 173.274C76.6076 173.005 76.15 172.87 75.5577 172.87H73.6733ZM75.5981 171.86C76.1186 171.86 76.5897 171.937 77.0114 172.089C77.4332 172.233 77.7966 172.511 78.1017 172.924C78.4068 173.337 78.5594 173.879 78.5594 174.553C78.5594 175.217 78.3126 175.773 77.8191 176.222C77.3255 176.67 76.7243 176.922 76.0154 176.975C76.3294 177.568 76.8006 178.236 77.4287 178.981C78.0658 179.726 78.6715 180.296 79.2458 180.69C79.0664 180.978 78.8331 181.121 78.5459 181.121C78.2588 181.121 77.9761 181.027 77.6979 180.838C77.4287 180.65 77.1819 180.43 76.9576 180.179C76.7333 179.928 76.4775 179.591 76.1904 179.169C75.8853 178.721 75.459 178.007 74.9116 177.029H73.6733V180.502C73.6733 180.834 73.4938 181 73.1349 181H73.0676C72.7176 181 72.5426 180.834 72.5426 180.502V172.385C72.5426 172.044 72.7176 171.874 73.0676 171.874L75.5039 171.86C75.5308 171.86 75.5622 171.86 75.5981 171.86ZM80.939 174.243C80.939 173.561 81.2441 172.978 81.8543 172.493C82.4645 172.009 83.2138 171.766 84.1022 171.766C84.9995 171.766 85.686 171.878 86.1616 172.103C86.6372 172.318 86.875 172.587 86.875 172.91C86.875 173.233 86.6776 173.435 86.2828 173.516C85.9418 173.005 85.2553 172.749 84.2233 172.749C83.6131 172.749 83.1151 172.892 82.7292 173.18C82.3434 173.458 82.1504 173.799 82.1504 174.203C82.1504 174.606 82.3075 174.916 82.6215 175.131C82.9356 175.347 83.3933 175.535 83.9945 175.697C84.6047 175.849 85.0713 175.988 85.3944 176.114C85.7264 176.24 86.0584 176.406 86.3904 176.612C87.0365 177.007 87.3596 177.604 87.3596 178.402C87.3596 179.192 87.0365 179.842 86.3904 180.354C85.7443 180.856 84.9367 181.108 83.9676 181.108C82.9984 181.108 82.2402 180.982 81.6928 180.731C81.1544 180.471 80.8852 180.165 80.8852 179.815C80.8852 179.457 81.114 179.219 81.5716 179.102C81.9037 179.775 82.653 180.112 83.8195 180.112C84.5643 180.112 85.1431 179.964 85.5559 179.667C85.9777 179.362 86.1885 178.976 86.1885 178.51C86.1885 178.034 85.9777 177.671 85.5559 177.42C85.1431 177.168 84.4925 176.935 83.6041 176.72C82.7247 176.495 82.0607 176.195 81.612 175.818C81.1633 175.441 80.939 174.916 80.939 174.243ZM92.0808 172.035C92.5923 171.847 93.1262 171.753 93.6826 171.753C94.2389 171.753 94.7684 171.847 95.2709 172.035C95.7734 172.215 96.2355 172.484 96.6573 172.843C97.088 173.202 97.429 173.696 97.6803 174.324C97.9405 174.943 98.0706 175.652 98.0706 176.45C98.0706 177.24 97.9405 177.945 97.6803 178.564C97.429 179.174 97.088 179.658 96.6573 180.017C96.2355 180.376 95.7734 180.65 95.2709 180.838C94.7684 181.018 94.2389 181.108 93.6826 181.108C93.1262 181.108 92.5923 181.018 92.0808 180.838C91.5783 180.65 91.1116 180.376 90.6809 180.017C90.2592 179.658 89.9226 179.174 89.6714 178.564C89.4201 177.945 89.2945 177.24 89.2945 176.45C89.2945 175.652 89.4201 174.943 89.6714 174.324C89.9226 173.696 90.2592 173.202 90.6809 172.843C91.1116 172.484 91.5783 172.215 92.0808 172.035ZM95.9439 173.731C95.3157 173.103 94.562 172.789 93.6826 172.789C92.8032 172.789 92.0449 173.103 91.4078 173.731C90.7796 174.36 90.4655 175.261 90.4655 176.437C90.4655 177.604 90.7796 178.501 91.4078 179.129C92.0449 179.757 92.8032 180.071 93.6826 180.071C94.562 180.071 95.3157 179.757 95.9439 179.129C96.581 178.501 96.8996 177.604 96.8996 176.437C96.8996 175.261 96.581 174.36 95.9439 173.731Z"/>
</mask>
<path d="M56.3034 171.753C57.2546 171.753 58.0353 171.941 58.6455 172.318C59.2646 172.695 59.5742 173.112 59.5742 173.57C59.5742 173.767 59.4979 173.929 59.3454 174.054C59.2018 174.171 59.0089 174.229 58.7666 174.229C58.4884 173.278 57.6673 172.803 56.3034 172.803C55.406 172.803 54.6433 173.108 54.0151 173.718C53.3959 174.319 53.0863 175.217 53.0863 176.41C53.0863 177.595 53.4004 178.505 54.0286 179.142C54.6567 179.771 55.415 180.085 56.3034 180.085C57.6853 180.085 58.5647 179.578 58.9416 178.564C59.157 178.564 59.323 178.626 59.4396 178.752C59.5652 178.869 59.6281 179.026 59.6281 179.223C59.6281 179.681 59.314 180.112 58.6858 180.515C58.0577 180.91 57.2635 181.108 56.3034 181.108C55.0381 181.108 53.9792 180.699 53.1267 179.883C52.2742 179.066 51.848 177.909 51.848 176.41C51.848 174.911 52.2742 173.763 53.1267 172.964C53.9792 172.157 55.0381 171.753 56.3034 171.753ZM62.6461 171.86H62.7807C63.1307 171.86 63.3057 172.035 63.3057 172.385V177.177C63.3057 179.134 64.1357 180.112 65.7958 180.112C67.4559 180.112 68.286 179.134 68.286 177.177V172.385C68.286 172.035 68.461 171.86 68.8109 171.86H68.9186C69.2865 171.86 69.4705 172.035 69.4705 172.385V177.123C69.4705 177.913 69.3404 178.622 69.0802 179.25C68.9186 179.618 68.7077 179.937 68.4475 180.206C68.1873 180.466 67.8283 180.681 67.3707 180.852C66.922 181.022 66.3971 181.108 65.7958 181.108C65.1946 181.108 64.6652 181.022 64.2075 180.852C63.7588 180.681 63.4044 180.466 63.1442 180.206C62.8839 179.937 62.673 179.618 62.5115 179.25C62.2513 178.622 62.1212 177.913 62.1212 177.123V172.385C62.1212 172.035 62.2962 171.86 62.6461 171.86ZM73.6733 172.87V176.06H75.5577C76.1141 176.06 76.5628 175.921 76.9038 175.643C77.2537 175.365 77.4287 174.97 77.4287 174.458C77.4287 173.938 77.2627 173.543 76.9307 173.274C76.6076 173.005 76.15 172.87 75.5577 172.87H73.6733ZM75.5981 171.86C76.1186 171.86 76.5897 171.937 77.0114 172.089C77.4332 172.233 77.7966 172.511 78.1017 172.924C78.4068 173.337 78.5594 173.879 78.5594 174.553C78.5594 175.217 78.3126 175.773 77.8191 176.222C77.3255 176.67 76.7243 176.922 76.0154 176.975C76.3294 177.568 76.8006 178.236 77.4287 178.981C78.0658 179.726 78.6715 180.296 79.2458 180.69C79.0664 180.978 78.8331 181.121 78.5459 181.121C78.2588 181.121 77.9761 181.027 77.6979 180.838C77.4287 180.65 77.1819 180.43 76.9576 180.179C76.7333 179.928 76.4775 179.591 76.1904 179.169C75.8853 178.721 75.459 178.007 74.9116 177.029H73.6733V180.502C73.6733 180.834 73.4938 181 73.1349 181H73.0676C72.7176 181 72.5426 180.834 72.5426 180.502V172.385C72.5426 172.044 72.7176 171.874 73.0676 171.874L75.5039 171.86C75.5308 171.86 75.5622 171.86 75.5981 171.86ZM80.939 174.243C80.939 173.561 81.2441 172.978 81.8543 172.493C82.4645 172.009 83.2138 171.766 84.1022 171.766C84.9995 171.766 85.686 171.878 86.1616 172.103C86.6372 172.318 86.875 172.587 86.875 172.91C86.875 173.233 86.6776 173.435 86.2828 173.516C85.9418 173.005 85.2553 172.749 84.2233 172.749C83.6131 172.749 83.1151 172.892 82.7292 173.18C82.3434 173.458 82.1504 173.799 82.1504 174.203C82.1504 174.606 82.3075 174.916 82.6215 175.131C82.9356 175.347 83.3933 175.535 83.9945 175.697C84.6047 175.849 85.0713 175.988 85.3944 176.114C85.7264 176.24 86.0584 176.406 86.3904 176.612C87.0365 177.007 87.3596 177.604 87.3596 178.402C87.3596 179.192 87.0365 179.842 86.3904 180.354C85.7443 180.856 84.9367 181.108 83.9676 181.108C82.9984 181.108 82.2402 180.982 81.6928 180.731C81.1544 180.471 80.8852 180.165 80.8852 179.815C80.8852 179.457 81.114 179.219 81.5716 179.102C81.9037 179.775 82.653 180.112 83.8195 180.112C84.5643 180.112 85.1431 179.964 85.5559 179.667C85.9777 179.362 86.1885 178.976 86.1885 178.51C86.1885 178.034 85.9777 177.671 85.5559 177.42C85.1431 177.168 84.4925 176.935 83.6041 176.72C82.7247 176.495 82.0607 176.195 81.612 175.818C81.1633 175.441 80.939 174.916 80.939 174.243ZM92.0808 172.035C92.5923 171.847 93.1262 171.753 93.6826 171.753C94.2389 171.753 94.7684 171.847 95.2709 172.035C95.7734 172.215 96.2355 172.484 96.6573 172.843C97.088 173.202 97.429 173.696 97.6803 174.324C97.9405 174.943 98.0706 175.652 98.0706 176.45C98.0706 177.24 97.9405 177.945 97.6803 178.564C97.429 179.174 97.088 179.658 96.6573 180.017C96.2355 180.376 95.7734 180.65 95.2709 180.838C94.7684 181.018 94.2389 181.108 93.6826 181.108C93.1262 181.108 92.5923 181.018 92.0808 180.838C91.5783 180.65 91.1116 180.376 90.6809 180.017C90.2592 179.658 89.9226 179.174 89.6714 178.564C89.4201 177.945 89.2945 177.24 89.2945 176.45C89.2945 175.652 89.4201 174.943 89.6714 174.324C89.9226 173.696 90.2592 173.202 90.6809 172.843C91.1116 172.484 91.5783 172.215 92.0808 172.035ZM95.9439 173.731C95.3157 173.103 94.562 172.789 93.6826 172.789C92.8032 172.789 92.0449 173.103 91.4078 173.731C90.7796 174.36 90.4655 175.261 90.4655 176.437C90.4655 177.604 90.7796 178.501 91.4078 179.129C92.0449 179.757 92.8032 180.071 93.6826 180.071C94.562 180.071 95.3157 179.757 95.9439 179.129C96.581 178.501 96.8996 177.604 96.8996 176.437C96.8996 175.261 96.581 174.36 95.9439 173.731Z" fill="white"/>
<path d="M58.6455 172.318L58.3537 172.791L58.3568 172.792L58.6455 172.318ZM59.3454 174.054L59.6955 174.485L59.6984 174.483L59.3454 174.054ZM58.7666 174.229L58.2337 174.385L58.3505 174.785H58.7666V174.229ZM54.0151 173.718L54.4019 174.116L54.402 174.116L54.0151 173.718ZM54.0286 179.142L53.6332 179.532L53.636 179.535L54.0286 179.142ZM58.9416 178.564V178.008H58.5556L58.4211 178.37L58.9416 178.564ZM59.4396 178.752L59.0327 179.13L59.0467 179.145L59.0618 179.159L59.4396 178.752ZM58.6858 180.515L58.9813 180.986L58.9861 180.982L58.6858 180.515ZM53.1267 179.883L52.7426 180.284H52.7426L53.1267 179.883ZM53.1267 172.964L53.5063 173.369L53.5086 173.367L53.1267 172.964ZM56.3034 172.308C57.1843 172.308 57.8554 172.483 58.3537 172.79L58.9372 171.846C58.2151 171.4 57.3249 171.198 56.3034 171.198V172.308ZM58.3568 172.792C58.9121 173.13 59.019 173.401 59.019 173.57H60.1295C60.1295 172.824 59.6172 172.26 58.9342 171.844L58.3568 172.792ZM59.019 173.57C59.019 173.583 59.0177 173.592 59.0168 173.596C59.016 173.6 59.0152 173.602 59.0149 173.602C59.0147 173.603 59.0139 173.604 59.0113 173.607C59.0086 173.611 59.0029 173.617 58.9924 173.626L59.6984 174.483C59.9788 174.252 60.1295 173.933 60.1295 173.57H59.019ZM58.9953 173.624C58.9777 173.638 58.9212 173.674 58.7666 173.674V174.785C59.0966 174.785 59.4259 174.704 59.6955 174.485L58.9953 173.624ZM59.2995 174.074C59.1224 173.468 58.7603 172.992 58.2205 172.679C57.6963 172.375 57.0428 172.247 56.3034 172.247V173.358C56.9279 173.358 57.367 173.468 57.6639 173.64C57.9451 173.803 58.1327 174.04 58.2337 174.385L59.2995 174.074ZM56.3034 172.247C55.2655 172.247 54.3628 172.606 53.6282 173.32L54.402 174.116C54.9237 173.609 55.5465 173.358 56.3034 173.358V172.247ZM53.6283 173.32C52.8655 174.06 52.5311 175.125 52.5311 176.41H53.6416C53.6416 175.308 53.9264 174.578 54.4019 174.116L53.6283 173.32ZM52.5311 176.41C52.5311 177.692 52.8728 178.761 53.6332 179.532L54.424 178.753C53.9281 178.25 53.6416 177.497 53.6416 176.41H52.5311ZM53.636 179.535C54.3682 180.267 55.2677 180.64 56.3034 180.64V179.529C55.5622 179.529 54.9452 179.274 54.4212 178.75L53.636 179.535ZM56.3034 180.64C57.0579 180.64 57.7276 180.502 58.2767 180.185C58.8362 179.863 59.2317 179.377 59.462 178.757L58.4211 178.37C58.2746 178.765 58.042 179.039 57.722 179.223C57.3918 179.414 56.9307 179.529 56.3034 179.529V180.64ZM58.9416 179.119C58.996 179.119 59.0227 179.127 59.0311 179.13C59.0352 179.132 59.036 179.132 59.0349 179.132C59.0345 179.131 59.0339 179.131 59.0334 179.131C59.0329 179.13 59.0327 179.13 59.0327 179.13L59.8465 178.374C59.5991 178.108 59.2691 178.008 58.9416 178.008V179.119ZM59.0618 179.159C59.0644 179.161 59.065 179.162 59.0647 179.162C59.0645 179.162 59.0648 179.162 59.0654 179.164C59.0666 179.167 59.0728 179.184 59.0728 179.223H60.1833C60.1833 178.897 60.0737 178.583 59.8174 178.345L59.0618 179.159ZM59.0728 179.223C59.0728 179.395 58.958 179.68 58.3856 180.048L58.9861 180.982C59.67 180.543 60.1833 179.966 60.1833 179.223H59.0728ZM58.3904 180.045C57.8733 180.37 57.1893 180.552 56.3034 180.552V181.663C57.3378 181.663 58.2421 181.45 58.9813 180.986L58.3904 180.045ZM56.3034 180.552C55.1699 180.552 54.2521 180.192 53.5108 179.482L52.7426 180.284C53.7064 181.207 54.9063 181.663 56.3034 181.663V180.552ZM53.5108 179.482C52.7953 178.796 52.4032 177.8 52.4032 176.41H51.2928C51.2928 178.017 51.7532 179.336 52.7426 180.284L53.5108 179.482ZM52.4032 176.41C52.4032 175.019 52.7955 174.035 53.5063 173.369L52.7471 172.559C51.753 173.49 51.2928 174.804 51.2928 176.41H52.4032ZM53.5086 173.367C54.2495 172.665 55.1681 172.308 56.3034 172.308V171.198C54.9081 171.198 53.7089 171.648 52.7449 172.561L53.5086 173.367ZM69.0802 179.25L69.5887 179.473L69.5931 179.463L69.0802 179.25ZM68.4475 180.206L68.8402 180.599L68.8467 180.592L68.4475 180.206ZM67.3707 180.852L67.1768 180.332L67.1735 180.333L67.3707 180.852ZM64.2075 180.852L64.0103 181.371L64.0137 181.372L64.2075 180.852ZM63.1442 180.206L62.7449 180.592L62.7515 180.598L63.1442 180.206ZM62.5115 179.25L61.9984 179.463L62.0031 179.473L62.5115 179.25ZM62.6461 172.416H62.7807V171.305H62.6461V172.416ZM62.7807 172.416C62.8236 172.416 62.8385 172.421 62.8348 172.42C62.8324 172.419 62.8251 172.416 62.8149 172.41C62.8046 172.404 62.793 172.395 62.7818 172.384C62.7706 172.373 62.762 172.362 62.7557 172.351C62.7496 172.341 62.7469 172.334 62.7461 172.331C62.7449 172.328 62.7504 172.343 62.7504 172.385H63.8609C63.8609 172.125 63.7954 171.827 63.567 171.599C63.3387 171.371 63.0413 171.305 62.7807 171.305V172.416ZM62.7504 172.385V177.177H63.8609V172.385H62.7504ZM62.7504 177.177C62.7504 178.221 62.9699 179.107 63.5049 179.737C64.0547 180.385 64.8542 180.667 65.7958 180.667V179.556C65.0774 179.556 64.6318 179.349 64.3516 179.019C64.0565 178.671 63.8609 178.09 63.8609 177.177H62.7504ZM65.7958 180.667C66.7375 180.667 67.537 180.385 68.0868 179.737C68.6218 179.107 68.8412 178.221 68.8412 177.177H67.7308C67.7308 178.09 67.5352 178.671 67.2401 179.019C66.9598 179.349 66.5143 179.556 65.7958 179.556V180.667ZM68.8412 177.177V172.385H67.7308V177.177H68.8412ZM68.8412 172.385C68.8412 172.343 68.8468 172.328 68.8455 172.331C68.8447 172.334 68.842 172.341 68.8359 172.351C68.8297 172.362 68.821 172.373 68.8098 172.384C68.7986 172.395 68.7871 172.404 68.7767 172.41C68.7665 172.416 68.7593 172.419 68.7569 172.42C68.7532 172.421 68.7681 172.416 68.8109 172.416V171.305C68.5504 171.305 68.253 171.371 68.0246 171.599C67.7963 171.827 67.7308 172.125 67.7308 172.385H68.8412ZM68.8109 172.416H68.9186V171.305H68.8109V172.416ZM68.9186 172.416C68.9428 172.416 68.9607 172.417 68.9732 172.419C68.9857 172.421 68.9915 172.422 68.9923 172.423C68.9928 172.423 68.988 172.421 68.9797 172.416C68.9712 172.412 68.9607 172.404 68.9499 172.394C68.939 172.384 68.9301 172.372 68.9233 172.362C68.9166 172.351 68.9133 172.343 68.912 172.339C68.9108 172.336 68.9116 172.337 68.9128 172.345C68.914 172.353 68.9153 172.366 68.9153 172.385H70.0257C70.0257 172.118 69.954 171.816 69.7152 171.589C69.4817 171.367 69.1814 171.305 68.9186 171.305V172.416ZM68.9153 172.385V177.123H70.0257V172.385H68.9153ZM68.9153 177.123C68.9153 177.852 68.7954 178.487 68.5672 179.038L69.5931 179.463C69.8854 178.757 70.0257 177.974 70.0257 177.123H68.9153ZM68.5718 179.027C68.4347 179.339 68.2595 179.601 68.0483 179.82L68.8467 180.592C69.156 180.272 69.4025 179.897 69.5886 179.473L68.5718 179.027ZM68.0549 179.813C67.8662 180.002 67.5831 180.18 67.1769 180.332L67.5645 181.372C68.0736 181.183 68.5083 180.93 68.8401 180.598L68.0549 179.813ZM67.1735 180.333C66.8015 180.474 66.346 180.552 65.7958 180.552V181.663C66.4481 181.663 67.0426 181.571 67.5679 181.371L67.1735 180.333ZM65.7958 180.552C65.246 180.552 64.7845 180.474 64.4014 180.332L64.0137 181.372C64.5458 181.57 65.1432 181.663 65.7958 181.663V180.552ZM64.4047 180.333C64.0081 180.182 63.7274 180.004 63.5368 179.813L62.7515 180.598C63.0814 180.928 63.5096 181.181 64.0103 181.371L64.4047 180.333ZM63.5434 179.82C63.3321 179.601 63.1569 179.339 63.0199 179.027L62.0031 179.473C62.1892 179.897 62.4357 180.272 62.7449 180.592L63.5434 179.82ZM63.0245 179.038C62.7963 178.487 62.6764 177.852 62.6764 177.123H61.5659C61.5659 177.974 61.7063 178.757 61.9986 179.463L63.0245 179.038ZM62.6764 177.123V172.385H61.5659V177.123H62.6764ZM62.6764 172.385C62.6764 172.343 62.682 172.328 62.6807 172.331C62.6799 172.334 62.6772 172.341 62.6711 172.351C62.6649 172.362 62.6562 172.373 62.645 172.384C62.6338 172.395 62.6223 172.404 62.6119 172.41C62.6017 172.416 62.5944 172.419 62.592 172.42C62.5883 172.421 62.6032 172.416 62.6461 172.416V171.305C62.3855 171.305 62.0881 171.371 61.8598 171.599C61.6314 171.827 61.5659 172.125 61.5659 172.385H62.6764ZM73.6733 172.87V172.315H73.118V172.87H73.6733ZM73.6733 176.06H73.118V176.615H73.6733V176.06ZM76.9037 175.643L76.5582 175.208L76.5528 175.213L76.9037 175.643ZM76.9307 173.274L76.5752 173.7L76.581 173.705L76.9307 173.274ZM77.0114 172.089L76.8225 172.611L76.8325 172.615L77.0114 172.089ZM78.1017 172.924L77.6552 173.254V173.254L78.1017 172.924ZM77.8191 176.222L78.1925 176.632L77.8191 176.222ZM76.0154 176.975L75.9733 176.422L75.1274 176.486L75.5248 177.235L76.0154 176.975ZM77.4287 178.981L77.0042 179.339L77.0068 179.342L77.4287 178.981ZM79.2458 180.69L79.7167 180.985L79.9984 180.534L79.5604 180.233L79.2458 180.69ZM77.6979 180.838L77.3795 181.293L77.3865 181.298L77.6979 180.838ZM76.9576 180.179L77.3718 179.809L76.9576 180.179ZM76.1904 179.169L75.7312 179.482L75.7314 179.482L76.1904 179.169ZM74.9116 177.029L75.3961 176.758L75.2372 176.474H74.9116V177.029ZM73.6733 177.029V176.474H73.118V177.029H73.6733ZM73.0676 171.874V172.429L73.0706 172.429L73.0676 171.874ZM75.5039 171.86V171.305L75.5008 171.305L75.5039 171.86ZM73.118 172.87V176.06H74.2285V172.87H73.118ZM73.6733 176.615H75.5577V175.505H73.6733V176.615ZM75.5577 176.615C76.2074 176.615 76.7908 176.451 77.2547 176.073L76.5528 175.213C76.3347 175.39 76.0207 175.505 75.5577 175.505V176.615ZM77.2492 176.077C77.7519 175.678 77.9839 175.112 77.9839 174.458H76.8735C76.8735 174.828 76.7555 175.051 76.5583 175.208L77.2492 176.077ZM77.9839 174.458C77.9839 173.811 77.7707 173.24 77.2804 172.842L76.581 173.705C76.7547 173.846 76.8735 174.065 76.8735 174.458H77.9839ZM77.2861 172.847C76.8294 172.467 76.2275 172.315 75.5577 172.315V173.425C76.0724 173.425 76.3859 173.543 76.5752 173.7L77.2861 172.847ZM75.5577 172.315H73.6733V173.425H75.5577V172.315ZM75.5981 172.416C76.0643 172.416 76.4702 172.484 76.8226 172.611L77.2003 171.567C76.7091 171.389 76.1728 171.305 75.5981 171.305V172.416ZM76.8325 172.615C77.1316 172.717 77.4068 172.918 77.6552 173.254L78.5482 172.594C78.1865 172.104 77.7348 171.749 77.1904 171.564L76.8325 172.615ZM77.6552 173.254C77.8705 173.545 78.0041 173.961 78.0041 174.553H79.1146C79.1146 173.798 78.9431 173.128 78.5482 172.594L77.6552 173.254ZM78.0041 174.553C78.0041 175.059 77.8239 175.467 77.4456 175.811L78.1925 176.632C78.8013 176.079 79.1146 175.374 79.1146 174.553H78.0041ZM77.4456 175.811C77.0498 176.171 76.5676 176.377 75.9733 176.422L76.0574 177.529C76.8809 177.466 77.6013 177.17 78.1925 176.632L77.4456 175.811ZM75.5248 177.235C75.8637 177.874 76.361 178.576 77.0043 179.339L77.8531 178.623C77.2401 177.896 76.7952 177.261 76.5059 176.715L75.5248 177.235ZM77.0068 179.342C77.6637 180.11 78.3047 180.717 78.9313 181.148L79.5604 180.233C79.0384 179.874 78.468 179.342 77.8506 178.62L77.0068 179.342ZM78.775 180.396C78.6757 180.555 78.6047 180.566 78.5459 180.566V181.676C79.0615 181.676 79.457 181.4 79.7167 180.985L78.775 180.396ZM78.5459 180.566C78.3877 180.566 78.2116 180.516 78.0093 180.379L77.3865 181.298C77.7406 181.538 78.1298 181.676 78.5459 181.676V180.566ZM78.0163 180.384C77.7831 180.22 77.5683 180.029 77.3718 179.809L76.5434 180.549C76.7956 180.831 77.0743 181.08 77.3795 181.293L78.0163 180.384ZM77.3718 179.809C77.1695 179.583 76.929 179.268 76.6493 178.857L75.7314 179.482C76.026 179.915 76.297 180.273 76.5434 180.549L77.3718 179.809ZM76.6495 178.857C76.3587 178.429 75.9421 177.734 75.3961 176.758L74.4271 177.3C74.9759 178.281 75.4119 179.012 75.7312 179.482L76.6495 178.857ZM74.9116 176.474H73.6733V177.584H74.9116V176.474ZM73.118 177.029V180.502H74.2285V177.029H73.118ZM73.118 180.502C73.118 180.536 73.1132 180.543 73.1173 180.532C73.1195 180.526 73.1239 180.515 73.1317 180.503C73.1397 180.491 73.1498 180.479 73.1616 180.468C73.1734 180.457 73.1846 180.449 73.1935 180.444C73.2022 180.44 73.2073 180.438 73.2068 180.438C73.2047 180.439 73.1836 180.445 73.1349 180.445V181.555C73.3896 181.555 73.6842 181.497 73.9157 181.283C74.1554 181.061 74.2285 180.765 74.2285 180.502H73.118ZM73.1349 180.445H73.0676V181.555H73.1349V180.445ZM73.0676 180.445C73.0222 180.445 73.0044 180.439 73.0053 180.439C73.0086 180.441 73.0306 180.449 73.056 180.473C73.068 180.484 73.078 180.497 73.0857 180.509C73.0933 180.521 73.0973 180.53 73.0993 180.536C73.1027 180.546 73.0978 180.538 73.0978 180.502H71.9874C71.9874 180.761 72.0571 181.056 72.2917 181.278C72.5208 181.496 72.8141 181.555 73.0676 181.555V180.445ZM73.0978 180.502V172.385H71.9874V180.502H73.0978ZM73.0978 172.385C73.0978 172.346 73.1031 172.335 73.1008 172.341C73.0994 172.345 73.0961 172.354 73.0892 172.365C73.0823 172.376 73.073 172.388 73.0613 172.399C73.0497 172.411 73.038 172.419 73.0279 172.425C73.018 172.431 73.0111 172.433 73.0094 172.434C73.0071 172.435 73.0235 172.429 73.0676 172.429V171.319C72.8106 171.319 72.5151 171.381 72.2864 171.604C72.0549 171.83 71.9874 172.126 71.9874 172.385H73.0978ZM73.0706 172.429L75.5069 172.416L75.5008 171.305L73.0645 171.319L73.0706 172.429ZM75.5039 172.416C75.5039 172.416 75.504 172.416 75.504 172.416C75.5041 172.416 75.5041 172.416 75.5042 172.416C75.5042 172.416 75.5043 172.416 75.5044 172.416C75.5044 172.416 75.5045 172.416 75.5045 172.416C75.5046 172.416 75.5046 172.416 75.5047 172.416C75.5047 172.416 75.5048 172.416 75.5048 172.416C75.5049 172.416 75.5049 172.416 75.505 172.416C75.505 172.416 75.5051 172.416 75.5051 172.416C75.5052 172.416 75.5052 172.416 75.5053 172.416C75.5054 172.416 75.5054 172.416 75.5055 172.416C75.5055 172.416 75.5056 172.416 75.5056 172.416C75.5057 172.416 75.5057 172.416 75.5058 172.416C75.5058 172.416 75.5059 172.416 75.5059 172.416C75.506 172.416 75.506 172.416 75.5061 172.416C75.5061 172.416 75.5062 172.416 75.5063 172.416C75.5063 172.416 75.5064 172.416 75.5064 172.416C75.5065 172.416 75.5065 172.416 75.5066 172.416C75.5066 172.416 75.5067 172.416 75.5067 172.416C75.5068 172.416 75.5068 172.416 75.5069 172.416C75.5069 172.416 75.507 172.416 75.5071 172.416C75.5071 172.416 75.5072 172.416 75.5072 172.416C75.5073 172.416 75.5073 172.416 75.5074 172.416C75.5074 172.416 75.5075 172.416 75.5075 172.416C75.5076 172.416 75.5076 172.416 75.5077 172.416C75.5077 172.416 75.5078 172.416 75.5079 172.416C75.5079 172.416 75.508 172.416 75.508 172.416C75.5081 172.416 75.5081 172.416 75.5082 172.416C75.5082 172.416 75.5083 172.416 75.5083 172.416C75.5084 172.416 75.5084 172.416 75.5085 172.416C75.5085 172.416 75.5086 172.416 75.5087 172.416C75.5087 172.416 75.5088 172.416 75.5088 172.416C75.5089 172.416 75.5089 172.416 75.509 172.416C75.509 172.416 75.5091 172.416 75.5091 172.416C75.5092 172.416 75.5092 172.416 75.5093 172.416C75.5094 172.416 75.5094 172.416 75.5095 172.416C75.5095 172.416 75.5096 172.416 75.5096 172.416C75.5097 172.416 75.5097 172.416 75.5098 172.416C75.5098 172.416 75.5099 172.416 75.5099 172.416C75.51 172.416 75.5101 172.416 75.5101 172.416C75.5102 172.416 75.5102 172.416 75.5103 172.416C75.5103 172.416 75.5104 172.416 75.5104 172.416C75.5105 172.416 75.5105 172.416 75.5106 172.416C75.5106 172.416 75.5107 172.416 75.5108 172.416C75.5108 172.416 75.5109 172.416 75.5109 172.416C75.511 172.416 75.511 172.416 75.5111 172.416C75.5111 172.416 75.5112 172.416 75.5112 172.416C75.5113 172.416 75.5114 172.416 75.5114 172.416C75.5115 172.416 75.5115 172.416 75.5116 172.416C75.5116 172.416 75.5117 172.416 75.5117 172.416C75.5118 172.416 75.5118 172.416 75.5119 172.416C75.5119 172.416 75.512 172.416 75.5121 172.416C75.5121 172.416 75.5122 172.416 75.5122 172.416C75.5123 172.416 75.5123 172.416 75.5124 172.416C75.5124 172.416 75.5125 172.416 75.5125 172.416C75.5126 172.416 75.5127 172.416 75.5127 172.416C75.5128 172.416 75.5128 172.416 75.5129 172.416C75.5129 172.416 75.513 172.416 75.513 172.416C75.5131 172.416 75.5131 172.416 75.5132 172.416C75.5133 172.416 75.5133 172.416 75.5134 172.416C75.5134 172.416 75.5135 172.416 75.5135 172.416C75.5136 172.416 75.5136 172.416 75.5137 172.416C75.5137 172.416 75.5138 172.416 75.5139 172.416C75.5139 172.416 75.514 172.416 75.514 172.416C75.5141 172.416 75.5141 172.416 75.5142 172.416C75.5142 172.416 75.5143 172.416 75.5143 172.416C75.5144 172.416 75.5145 172.416 75.5145 172.416C75.5146 172.416 75.5146 172.416 75.5147 172.416C75.5147 172.416 75.5148 172.416 75.5148 172.416C75.5149 172.416 75.5149 172.416 75.515 172.416C75.5151 172.416 75.5151 172.416 75.5152 172.416C75.5152 172.416 75.5153 172.416 75.5153 172.416C75.5154 172.416 75.5154 172.416 75.5155 172.416C75.5156 172.416 75.5156 172.416 75.5157 172.416C75.5157 172.416 75.5158 172.416 75.5158 172.416C75.5159 172.416 75.5159 172.416 75.516 172.416C75.5161 172.416 75.5161 172.416 75.5162 172.416C75.5162 172.416 75.5163 172.416 75.5163 172.416C75.5164 172.416 75.5164 172.416 75.5165 172.416C75.5165 172.416 75.5166 172.416 75.5167 172.416C75.5167 172.416 75.5168 172.416 75.5168 172.416C75.5169 172.416 75.5169 172.416 75.517 172.416C75.517 172.416 75.5171 172.416 75.5172 172.416C75.5172 172.416 75.5173 172.416 75.5173 172.416C75.5174 172.416 75.5174 172.416 75.5175 172.416C75.5175 172.416 75.5176 172.416 75.5177 172.416C75.5177 172.416 75.5178 172.416 75.5178 172.416C75.5179 172.416 75.5179 172.416 75.518 172.416C75.518 172.416 75.5181 172.416 75.5182 172.416C75.5182 172.416 75.5183 172.416 75.5183 172.416C75.5184 172.416 75.5184 172.416 75.5185 172.416C75.5185 172.416 75.5186 172.416 75.5187 172.416C75.5187 172.416 75.5188 172.416 75.5188 172.416C75.5189 172.416 75.5189 172.416 75.519 172.416C75.519 172.416 75.5191 172.416 75.5192 172.416C75.5192 172.416 75.5193 172.416 75.5193 172.416C75.5194 172.416 75.5194 172.416 75.5195 172.416C75.5195 172.416 75.5196 172.416 75.5197 172.416C75.5197 172.416 75.5198 172.416 75.5198 172.416C75.5199 172.416 75.5199 172.416 75.52 172.416C75.5201 172.416 75.5201 172.416 75.5202 172.416C75.5202 172.416 75.5203 172.416 75.5203 172.416C75.5204 172.416 75.5204 172.416 75.5205 172.416C75.5206 172.416 75.5206 172.416 75.5207 172.416C75.5207 172.416 75.5208 172.416 75.5208 172.416C75.5209 172.416 75.521 172.416 75.521 172.416C75.5211 172.416 75.5211 172.416 75.5212 172.416C75.5212 172.416 75.5213 172.416 75.5213 172.416C75.5214 172.416 75.5215 172.416 75.5215 172.416C75.5216 172.416 75.5216 172.416 75.5217 172.416C75.5217 172.416 75.5218 172.416 75.5218 172.416C75.5219 172.416 75.522 172.416 75.522 172.416C75.5221 172.416 75.5221 172.416 75.5222 172.416C75.5222 172.416 75.5223 172.416 75.5224 172.416C75.5224 172.416 75.5225 172.416 75.5225 172.416C75.5226 172.416 75.5226 172.416 75.5227 172.416C75.5228 172.416 75.5228 172.416 75.5229 172.416C75.5229 172.416 75.523 172.416 75.523 172.416C75.5231 172.416 75.5231 172.416 75.5232 172.416C75.5233 172.416 75.5233 172.416 75.5234 172.416C75.5234 172.416 75.5235 172.416 75.5235 172.416C75.5236 172.416 75.5237 172.416 75.5237 172.416C75.5238 172.416 75.5238 172.416 75.5239 172.416C75.5239 172.416 75.524 172.416 75.5241 172.416C75.5241 172.416 75.5242 172.416 75.5242 172.416C75.5243 172.416 75.5243 172.416 75.5244 172.416C75.5245 172.416 75.5245 172.416 75.5246 172.416C75.5246 172.416 75.5247 172.416 75.5247 172.416C75.5248 172.416 75.5249 172.416 75.5249 172.416C75.525 172.416 75.525 172.416 75.5251 172.416C75.5251 172.416 75.5252 172.416 75.5253 172.416C75.5253 172.416 75.5254 172.416 75.5254 172.416C75.5255 172.416 75.5255 172.416 75.5256 172.416C75.5257 172.416 75.5257 172.416 75.5258 172.416C75.5258 172.416 75.5259 172.416 75.5259 172.416C75.526 172.416 75.5261 172.416 75.5261 172.416C75.5262 172.416 75.5262 172.416 75.5263 172.416C75.5263 172.416 75.5264 172.416 75.5265 172.416C75.5265 172.416 75.5266 172.416 75.5266 172.416C75.5267 172.416 75.5267 172.416 75.5268 172.416C75.5269 172.416 75.5269 172.416 75.527 172.416C75.527 172.416 75.5271 172.416 75.5271 172.416C75.5272 172.416 75.5273 172.416 75.5273 172.416C75.5274 172.416 75.5274 172.416 75.5275 172.416C75.5275 172.416 75.5276 172.416 75.5277 172.416C75.5277 172.416 75.5278 172.416 75.5278 172.416C75.5279 172.416 75.5279 172.416 75.528 172.416C75.5281 172.416 75.5281 172.416 75.5282 172.416C75.5282 172.416 75.5283 172.416 75.5283 172.416C75.5284 172.416 75.5285 172.416 75.5285 172.416C75.5286 172.416 75.5286 172.416 75.5287 172.416C75.5288 172.416 75.5288 172.416 75.5289 172.416C75.5289 172.416 75.529 172.416 75.529 172.416C75.5291 172.416 75.5292 172.416 75.5292 172.416C75.5293 172.416 75.5293 172.416 75.5294 172.416C75.5294 172.416 75.5295 172.416 75.5296 172.416C75.5296 172.416 75.5297 172.416 75.5297 172.416C75.5298 172.416 75.5299 172.416 75.5299 172.416C75.53 172.416 75.53 172.416 75.5301 172.416C75.5301 172.416 75.5302 172.416 75.5303 172.416C75.5303 172.416 75.5304 172.416 75.5304 172.416C75.5305 172.416 75.5305 172.416 75.5306 172.416C75.5307 172.416 75.5307 172.416 75.5308 172.416C75.5308 172.416 75.5309 172.416 75.531 172.416C75.531 172.416 75.5311 172.416 75.5311 172.416C75.5312 172.416 75.5312 172.416 75.5313 172.416C75.5314 172.416 75.5314 172.416 75.5315 172.416C75.5315 172.416 75.5316 172.416 75.5317 172.416C75.5317 172.416 75.5318 172.416 75.5318 172.416C75.5319 172.416 75.5319 172.416 75.532 172.416C75.5321 172.416 75.5321 172.416 75.5322 172.416C75.5322 172.416 75.5323 172.416 75.5324 172.416C75.5324 172.416 75.5325 172.416 75.5325 172.416C75.5326 172.416 75.5326 172.416 75.5327 172.416C75.5328 172.416 75.5328 172.416 75.5329 172.416C75.5329 172.416 75.533 172.416 75.5331 172.416C75.5331 172.416 75.5332 172.416 75.5332 172.416C75.5333 172.416 75.5333 172.416 75.5334 172.416C75.5335 172.416 75.5335 172.416 75.5336 172.416C75.5336 172.416 75.5337 172.416 75.5338 172.416C75.5338 172.416 75.5339 172.416 75.5339 172.416C75.534 172.416 75.5341 172.416 75.5341 172.416C75.5342 172.416 75.5342 172.416 75.5343 172.416C75.5343 172.416 75.5344 172.416 75.5345 172.416C75.5345 172.416 75.5346 172.416 75.5346 172.416C75.5347 172.416 75.5348 172.416 75.5348 172.416C75.5349 172.416 75.5349 172.416 75.535 172.416C75.5351 172.416 75.5351 172.416 75.5352 172.416C75.5352 172.416 75.5353 172.416 75.5353 172.416C75.5354 172.416 75.5355 172.416 75.5355 172.416C75.5356 172.416 75.5356 172.416 75.5357 172.416C75.5358 172.416 75.5358 172.416 75.5359 172.416C75.5359 172.416 75.536 172.416 75.5361 172.416C75.5361 172.416 75.5362 172.416 75.5362 172.416C75.5363 172.416 75.5364 172.416 75.5364 172.416C75.5365 172.416 75.5365 172.416 75.5366 172.416C75.5366 172.416 75.5367 172.416 75.5368 172.416C75.5368 172.416 75.5369 172.416 75.5369 172.416C75.537 172.416 75.5371 172.416 75.5371 172.416C75.5372 172.416 75.5372 172.416 75.5373 172.416C75.5374 172.416 75.5374 172.416 75.5375 172.416C75.5375 172.416 75.5376 172.416 75.5377 172.416C75.5377 172.416 75.5378 172.416 75.5378 172.416C75.5379 172.416 75.538 172.416 75.538 172.416C75.5381 172.416 75.5381 172.416 75.5382 172.416C75.5383 172.416 75.5383 172.416 75.5384 172.416C75.5384 172.416 75.5385 172.416 75.5385 172.416C75.5386 172.416 75.5387 172.416 75.5387 172.416C75.5388 172.416 75.5388 172.416 75.5389 172.416C75.539 172.416 75.539 172.416 75.5391 172.416C75.5391 172.416 75.5392 172.416 75.5393 172.416C75.5393 172.416 75.5394 172.416 75.5394 172.416C75.5395 172.416 75.5396 172.416 75.5396 172.416C75.5397 172.416 75.5397 172.416 75.5398 172.416C75.5399 172.416 75.5399 172.416 75.54 172.416C75.54 172.416 75.5401 172.416 75.5402 172.416C75.5402 172.416 75.5403 172.416 75.5403 172.416C75.5404 172.416 75.5405 172.416 75.5405 172.416C75.5406 172.416 75.5406 172.416 75.5407 172.416C75.5408 172.416 75.5408 172.416 75.5409 172.416C75.5409 172.416 75.541 172.416 75.5411 172.416C75.5411 172.416 75.5412 172.416 75.5412 172.416C75.5413 172.416 75.5414 172.416 75.5414 172.416C75.5415 172.416 75.5415 172.416 75.5416 172.416C75.5417 172.416 75.5417 172.416 75.5418 172.416C75.5418 172.416 75.5419 172.416 75.542 172.416C75.542 172.416 75.5421 172.416 75.5421 172.416C75.5422 172.416 75.5423 172.416 75.5423 172.416C75.5424 172.416 75.5424 172.416 75.5425 172.416C75.5426 172.416 75.5426 172.416 75.5427 172.416C75.5428 172.416 75.5428 172.416 75.5429 172.416C75.5429 172.416 75.543 172.416 75.5431 172.416C75.5431 172.416 75.5432 172.416 75.5432 172.416C75.5433 172.416 75.5434 172.416 75.5434 172.416C75.5435 172.416 75.5435 172.416 75.5436 172.416C75.5437 172.416 75.5437 172.416 75.5438 172.416C75.5438 172.416 75.5439 172.416 75.544 172.416C75.544 172.416 75.5441 172.416 75.5441 172.416C75.5442 172.416 75.5443 172.416 75.5443 172.416C75.5444 172.416 75.5444 172.416 75.5445 172.416C75.5446 172.416 75.5446 172.416 75.5447 172.416C75.5448 172.416 75.5448 172.416 75.5449 172.416C75.5449 172.416 75.545 172.416 75.5451 172.416C75.5451 172.416 75.5452 172.416 75.5452 172.416C75.5453 172.416 75.5454 172.416 75.5454 172.416C75.5455 172.416 75.5455 172.416 75.5456 172.416C75.5457 172.416 75.5457 172.416 75.5458 172.416C75.5458 172.416 75.5459 172.416 75.546 172.416C75.546 172.416 75.5461 172.416 75.5462 172.416C75.5462 172.416 75.5463 172.416 75.5463 172.416C75.5464 172.416 75.5465 172.416 75.5465 172.416C75.5466 172.416 75.5466 172.416 75.5467 172.416C75.5468 172.416 75.5468 172.416 75.5469 172.416C75.5469 172.416 75.547 172.416 75.5471 172.416C75.5471 172.416 75.5472 172.416 75.5473 172.416C75.5473 172.416 75.5474 172.416 75.5474 172.416C75.5475 172.416 75.5476 172.416 75.5476 172.416C75.5477 172.416 75.5477 172.416 75.5478 172.416C75.5479 172.416 75.5479 172.416 75.548 172.416C75.5481 172.416 75.5481 172.416 75.5482 172.416C75.5482 172.416 75.5483 172.416 75.5484 172.416C75.5484 172.416 75.5485 172.416 75.5485 172.416C75.5486 172.416 75.5487 172.416 75.5487 172.416C75.5488 172.416 75.5489 172.416 75.5489 172.416C75.549 172.416 75.549 172.416 75.5491 172.416C75.5492 172.416 75.5492 172.416 75.5493 172.416C75.5493 172.416 75.5494 172.416 75.5495 172.416C75.5495 172.416 75.5496 172.416 75.5497 172.416C75.5497 172.416 75.5498 172.416 75.5498 172.416C75.5499 172.416 75.55 172.416 75.55 172.416C75.5501 172.416 75.5501 172.416 75.5502 172.416C75.5503 172.416 75.5503 172.416 75.5504 172.416C75.5505 172.416 75.5505 172.416 75.5506 172.416C75.5506 172.416 75.5507 172.416 75.5508 172.416C75.5508 172.416 75.5509 172.416 75.551 172.416C75.551 172.416 75.5511 172.416 75.5511 172.416C75.5512 172.416 75.5513 172.416 75.5513 172.416C75.5514 172.416 75.5514 172.416 75.5515 172.416C75.5516 172.416 75.5516 172.416 75.5517 172.416C75.5518 172.416 75.5518 172.416 75.5519 172.416C75.5519 172.416 75.552 172.416 75.5521 172.416C75.5521 172.416 75.5522 172.416 75.5523 172.416C75.5523 172.416 75.5524 172.416 75.5524 172.416C75.5525 172.416 75.5526 172.416 75.5526 172.416C75.5527 172.416 75.5528 172.416 75.5528 172.416C75.5529 172.416 75.5529 172.416 75.553 172.416C75.5531 172.416 75.5531 172.416 75.5532 172.416C75.5533 172.416 75.5533 172.416 75.5534 172.416C75.5534 172.416 75.5535 172.416 75.5536 172.416C75.5536 172.416 75.5537 172.416 75.5538 172.416C75.5538 172.416 75.5539 172.416 75.5539 172.416C75.554 172.416 75.5541 172.416 75.5541 172.416C75.5542 172.416 75.5543 172.416 75.5543 172.416C75.5544 172.416 75.5544 172.416 75.5545 172.416C75.5546 172.416 75.5546 172.416 75.5547 172.416C75.5548 172.416 75.5548 172.416 75.5549 172.416C75.5549 172.416 75.555 172.416 75.5551 172.416C75.5551 172.416 75.5552 172.416 75.5553 172.416C75.5553 172.416 75.5554 172.416 75.5554 172.416C75.5555 172.416 75.5556 172.416 75.5556 172.416C75.5557 172.416 75.5558 172.416 75.5558 172.416C75.5559 172.416 75.5559 172.416 75.556 172.416C75.5561 172.416 75.5561 172.416 75.5562 172.416C75.5563 172.416 75.5563 172.416 75.5564 172.416C75.5564 172.416 75.5565 172.416 75.5566 172.416C75.5566 172.416 75.5567 172.416 75.5568 172.416C75.5568 172.416 75.5569 172.416 75.557 172.416C75.557 172.416 75.5571 172.416 75.5571 172.416C75.5572 172.416 75.5573 172.416 75.5573 172.416C75.5574 172.416 75.5575 172.416 75.5575 172.416C75.5576 172.416 75.5576 172.416 75.5577 172.416C75.5578 172.416 75.5578 172.416 75.5579 172.416C75.558 172.416 75.558 172.416 75.5581 172.416C75.5582 172.416 75.5582 172.416 75.5583 172.416C75.5583 172.416 75.5584 172.416 75.5585 172.416C75.5585 172.416 75.5586 172.416 75.5587 172.416C75.5587 172.416 75.5588 172.416 75.5588 172.416C75.5589 172.416 75.559 172.416 75.559 172.416C75.5591 172.416 75.5592 172.416 75.5592 172.416C75.5593 172.416 75.5594 172.416 75.5594 172.416C75.5595 172.416 75.5595 172.416 75.5596 172.416C75.5597 172.416 75.5597 172.416 75.5598 172.416C75.5599 172.416 75.5599 172.416 75.56 172.416C75.5601 172.416 75.5601 172.416 75.5602 172.416C75.5602 172.416 75.5603 172.416 75.5604 172.416C75.5604 172.416 75.5605 172.416 75.5606 172.416C75.5606 172.416 75.5607 172.416 75.5608 172.416C75.5608 172.416 75.5609 172.416 75.5609 172.416C75.561 172.416 75.5611 172.416 75.5611 172.416C75.5612 172.416 75.5613 172.416 75.5613 172.416C75.5614 172.416 75.5615 172.416 75.5615 172.416C75.5616 172.416 75.5616 172.416 75.5617 172.416C75.5618 172.416 75.5618 172.416 75.5619 172.416C75.562 172.416 75.562 172.416 75.5621 172.416C75.5622 172.416 75.5622 172.416 75.5623 172.416C75.5624 172.416 75.5624 172.416 75.5625 172.416C75.5625 172.416 75.5626 172.416 75.5627 172.416C75.5627 172.416 75.5628 172.416 75.5629 172.416C75.5629 172.416 75.563 172.416 75.5631 172.416C75.5631 172.416 75.5632 172.416 75.5633 172.416C75.5633 172.416 75.5634 172.416 75.5634 172.416C75.5635 172.416 75.5636 172.416 75.5636 172.416C75.5637 172.416 75.5638 172.416 75.5638 172.416C75.5639 172.416 75.564 172.416 75.564 172.416C75.5641 172.416 75.5641 172.416 75.5642 172.416C75.5643 172.416 75.5643 172.416 75.5644 172.416C75.5645 172.416 75.5645 172.416 75.5646 172.416C75.5647 172.416 75.5647 172.416 75.5648 172.416C75.5649 172.416 75.5649 172.416 75.565 172.416C75.5651 172.416 75.5651 172.416 75.5652 172.416C75.5652 172.416 75.5653 172.416 75.5654 172.416C75.5654 172.416 75.5655 172.416 75.5656 172.416C75.5656 172.416 75.5657 172.416 75.5658 172.416C75.5658 172.416 75.5659 172.416 75.566 172.416C75.566 172.416 75.5661 172.416 75.5662 172.416C75.5662 172.416 75.5663 172.416 75.5663 172.416C75.5664 172.416 75.5665 172.416 75.5665 172.416C75.5666 172.416 75.5667 172.416 75.5667 172.416C75.5668 172.416 75.5669 172.416 75.5669 172.416C75.567 172.416 75.5671 172.416 75.5671 172.416C75.5672 172.416 75.5673 172.416 75.5673 172.416C75.5674 172.416 75.5674 172.416 75.5675 172.416C75.5676 172.416 75.5676 172.416 75.5677 172.416C75.5678 172.416 75.5678 172.416 75.5679 172.416C75.568 172.416 75.568 172.416 75.5681 172.416C75.5682 172.416 75.5682 172.416 75.5683 172.416C75.5684 172.416 75.5684 172.416 75.5685 172.416C75.5686 172.416 75.5686 172.416 75.5687 172.416C75.5687 172.416 75.5688 172.416 75.5689 172.416C75.5689 172.416 75.569 172.416 75.5691 172.416C75.5691 172.416 75.5692 172.416 75.5693 172.416C75.5693 172.416 75.5694 172.416 75.5695 172.416C75.5695 172.416 75.5696 172.416 75.5697 172.416C75.5697 172.416 75.5698 172.416 75.5699 172.416C75.5699 172.416 75.57 172.416 75.5701 172.416C75.5701 172.416 75.5702 172.416 75.5702 172.416C75.5703 172.416 75.5704 172.416 75.5704 172.416C75.5705 172.416 75.5706 172.416 75.5706 172.416C75.5707 172.416 75.5708 172.416 75.5708 172.416C75.5709 172.416 75.571 172.416 75.571 172.416C75.5711 172.416 75.5712 172.416 75.5712 172.416C75.5713 172.416 75.5714 172.416 75.5714 172.416C75.5715 172.416 75.5716 172.416 75.5716 172.416C75.5717 172.416 75.5718 172.416 75.5718 172.416C75.5719 172.416 75.572 172.416 75.572 172.416C75.5721 172.416 75.5722 172.416 75.5722 172.416C75.5723 172.416 75.5723 172.416 75.5724 172.416C75.5725 172.416 75.5725 172.416 75.5726 172.416C75.5727 172.416 75.5727 172.416 75.5728 172.416C75.5729 172.416 75.5729 172.416 75.573 172.416C75.5731 172.416 75.5731 172.416 75.5732 172.416C75.5733 172.416 75.5733 172.416 75.5734 172.416C75.5735 172.416 75.5735 172.416 75.5736 172.416C75.5737 172.416 75.5737 172.416 75.5738 172.416C75.5739 172.416 75.5739 172.416 75.574 172.416C75.5741 172.416 75.5741 172.416 75.5742 172.416C75.5743 172.416 75.5743 172.416 75.5744 172.416C75.5745 172.416 75.5745 172.416 75.5746 172.416C75.5747 172.416 75.5747 172.416 75.5748 172.416C75.5749 172.416 75.5749 172.416 75.575 172.416C75.5751 172.416 75.5751 172.416 75.5752 172.416C75.5753 172.416 75.5753 172.416 75.5754 172.416C75.5755 172.416 75.5755 172.416 75.5756 172.416C75.5757 172.416 75.5757 172.416 75.5758 172.416C75.5759 172.416 75.5759 172.416 75.576 172.416C75.576 172.416 75.5761 172.416 75.5762 172.416C75.5763 172.416 75.5763 172.416 75.5764 172.416C75.5764 172.416 75.5765 172.416 75.5766 172.416C75.5766 172.416 75.5767 172.416 75.5768 172.416C75.5768 172.416 75.5769 172.416 75.577 172.416C75.577 172.416 75.5771 172.416 75.5772 172.416C75.5772 172.416 75.5773 172.416 75.5774 172.416C75.5774 172.416 75.5775 172.416 75.5776 172.416C75.5776 172.416 75.5777 172.416 75.5778 172.416C75.5778 172.416 75.5779 172.416 75.578 172.416C75.578 172.416 75.5781 172.416 75.5782 172.416C75.5782 172.416 75.5783 172.416 75.5784 172.416C75.5784 172.416 75.5785 172.416 75.5786 172.416C75.5786 172.416 75.5787 172.416 75.5788 172.416C75.5788 172.416 75.5789 172.416 75.579 172.416C75.5791 172.416 75.5791 172.416 75.5792 172.416C75.5793 172.416 75.5793 172.416 75.5794 172.416C75.5795 172.416 75.5795 172.416 75.5796 172.416C75.5797 172.416 75.5797 172.416 75.5798 172.416C75.5799 172.416 75.5799 172.416 75.58 172.416C75.5801 172.416 75.5801 172.416 75.5802 172.416C75.5803 172.416 75.5803 172.416 75.5804 172.416C75.5805 172.416 75.5805 172.416 75.5806 172.416C75.5807 172.416 75.5807 172.416 75.5808 172.416C75.5809 172.416 75.5809 172.416 75.581 172.416C75.5811 172.416 75.5811 172.416 75.5812 172.416C75.5813 172.416 75.5813 172.416 75.5814 172.416C75.5815 172.416 75.5815 172.416 75.5816 172.416C75.5817 172.416 75.5817 172.416 75.5818 172.416C75.5819 172.416 75.5819 172.416 75.582 172.416C75.5821 172.416 75.5821 172.416 75.5822 172.416C75.5823 172.416 75.5823 172.416 75.5824 172.416C75.5825 172.416 75.5825 172.416 75.5826 172.416C75.5827 172.416 75.5828 172.416 75.5828 172.416C75.5829 172.416 75.583 172.416 75.583 172.416C75.5831 172.416 75.5832 172.416 75.5832 172.416C75.5833 172.416 75.5834 172.416 75.5834 172.416C75.5835 172.416 75.5836 172.416 75.5836 172.416C75.5837 172.416 75.5838 172.416 75.5838 172.416C75.5839 172.416 75.584 172.416 75.584 172.416C75.5841 172.416 75.5842 172.416 75.5842 172.416C75.5843 172.416 75.5844 172.416 75.5844 172.416C75.5845 172.416 75.5846 172.416 75.5846 172.416C75.5847 172.416 75.5848 172.416 75.5848 172.416C75.5849 172.416 75.585 172.416 75.5851 172.416C75.5851 172.416 75.5852 172.416 75.5853 172.416C75.5853 172.416 75.5854 172.416 75.5855 172.416C75.5855 172.416 75.5856 172.416 75.5857 172.416C75.5857 172.416 75.5858 172.416 75.5859 172.416C75.5859 172.416 75.586 172.416 75.5861 172.416C75.5861 172.416 75.5862 172.416 75.5863 172.416C75.5863 172.416 75.5864 172.416 75.5865 172.416C75.5866 172.416 75.5866 172.416 75.5867 172.416C75.5868 172.416 75.5868 172.416 75.5869 172.416C75.587 172.416 75.587 172.416 75.5871 172.416C75.5872 172.416 75.5872 172.416 75.5873 172.416C75.5874 172.416 75.5874 172.416 75.5875 172.416C75.5876 172.416 75.5876 172.416 75.5877 172.416C75.5878 172.416 75.5878 172.416 75.5879 172.416C75.588 172.416 75.5881 172.416 75.5881 172.416C75.5882 172.416 75.5883 172.416 75.5883 172.416C75.5884 172.416 75.5885 172.416 75.5885 172.416C75.5886 172.416 75.5887 172.416 75.5887 172.416C75.5888 172.416 75.5889 172.416 75.5889 172.416C75.589 172.416 75.5891 172.416 75.5892 172.416C75.5892 172.416 75.5893 172.416 75.5894 172.416C75.5894 172.416 75.5895 172.416 75.5896 172.416C75.5896 172.416 75.5897 172.416 75.5898 172.416C75.5898 172.416 75.5899 172.416 75.59 172.416C75.59 172.416 75.5901 172.416 75.5902 172.416C75.5903 172.416 75.5903 172.416 75.5904 172.416C75.5905 172.416 75.5905 172.416 75.5906 172.416C75.5907 172.416 75.5907 172.416 75.5908 172.416C75.5909 172.416 75.5909 172.416 75.591 172.416C75.5911 172.416 75.5911 172.416 75.5912 172.416C75.5913 172.416 75.5914 172.416 75.5914 172.416C75.5915 172.416 75.5916 172.416 75.5916 172.416C75.5917 172.416 75.5918 172.416 75.5918 172.416C75.5919 172.416 75.592 172.416 75.592 172.416C75.5921 172.416 75.5922 172.416 75.5923 172.416C75.5923 172.416 75.5924 172.416 75.5925 172.416C75.5925 172.416 75.5926 172.416 75.5927 172.416C75.5927 172.416 75.5928 172.416 75.5929 172.416C75.5929 172.416 75.593 172.416 75.5931 172.416C75.5932 172.416 75.5932 172.416 75.5933 172.416C75.5934 172.416 75.5934 172.416 75.5935 172.416C75.5936 172.416 75.5936 172.416 75.5937 172.416C75.5938 172.416 75.5938 172.416 75.5939 172.416C75.594 172.416 75.5941 172.416 75.5941 172.416C75.5942 172.416 75.5943 172.416 75.5943 172.416C75.5944 172.416 75.5945 172.416 75.5945 172.416C75.5946 172.416 75.5947 172.416 75.5947 172.416C75.5948 172.416 75.5949 172.416 75.595 172.416C75.595 172.416 75.5951 172.416 75.5952 172.416C75.5952 172.416 75.5953 172.416 75.5954 172.416C75.5954 172.416 75.5955 172.416 75.5956 172.416C75.5957 172.416 75.5957 172.416 75.5958 172.416C75.5959 172.416 75.5959 172.416 75.596 172.416C75.5961 172.416 75.5961 172.416 75.5962 172.416C75.5963 172.416 75.5963 172.416 75.5964 172.416C75.5965 172.416 75.5966 172.416 75.5966 172.416C75.5967 172.416 75.5968 172.416 75.5968 172.416C75.5969 172.416 75.597 172.416 75.597 172.416C75.5971 172.416 75.5972 172.416 75.5973 172.416C75.5973 172.416 75.5974 172.416 75.5975 172.416C75.5975 172.416 75.5976 172.416 75.5977 172.416C75.5977 172.416 75.5978 172.416 75.5979 172.416C75.598 172.416 75.598 172.416 75.5981 172.416V171.305C75.598 171.305 75.598 171.305 75.5979 171.305C75.5978 171.305 75.5977 171.305 75.5977 171.305C75.5976 171.305 75.5975 171.305 75.5975 171.305C75.5974 171.305 75.5973 171.305 75.5973 171.305C75.5972 171.305 75.5971 171.305 75.597 171.305C75.597 171.305 75.5969 171.305 75.5968 171.305C75.5968 171.305 75.5967 171.305 75.5966 171.305C75.5966 171.305 75.5965 171.305 75.5964 171.305C75.5963 171.305 75.5963 171.305 75.5962 171.305C75.5961 171.305 75.5961 171.305 75.596 171.305C75.5959 171.305 75.5959 171.305 75.5958 171.305C75.5957 171.305 75.5957 171.305 75.5956 171.305C75.5955 171.305 75.5954 171.305 75.5954 171.305C75.5953 171.305 75.5952 171.305 75.5952 171.305C75.5951 171.305 75.595 171.305 75.595 171.305C75.5949 171.305 75.5948 171.305 75.5947 171.305C75.5947 171.305 75.5946 171.305 75.5945 171.305C75.5945 171.305 75.5944 171.305 75.5943 171.305C75.5943 171.305 75.5942 171.305 75.5941 171.305C75.5941 171.305 75.594 171.305 75.5939 171.305C75.5938 171.305 75.5938 171.305 75.5937 171.305C75.5936 171.305 75.5936 171.305 75.5935 171.305C75.5934 171.305 75.5934 171.305 75.5933 171.305C75.5932 171.305 75.5932 171.305 75.5931 171.305C75.593 171.305 75.5929 171.305 75.5929 171.305C75.5928 171.305 75.5927 171.305 75.5927 171.305C75.5926 171.305 75.5925 171.305 75.5925 171.305C75.5924 171.305 75.5923 171.305 75.5923 171.305C75.5922 171.305 75.5921 171.305 75.592 171.305C75.592 171.305 75.5919 171.305 75.5918 171.305C75.5918 171.305 75.5917 171.305 75.5916 171.305C75.5916 171.305 75.5915 171.305 75.5914 171.305C75.5914 171.305 75.5913 171.305 75.5912 171.305C75.5911 171.305 75.5911 171.305 75.591 171.305C75.5909 171.305 75.5909 171.305 75.5908 171.305C75.5907 171.305 75.5907 171.305 75.5906 171.305C75.5905 171.305 75.5905 171.305 75.5904 171.305C75.5903 171.305 75.5903 171.305 75.5902 171.305C75.5901 171.305 75.59 171.305 75.59 171.305C75.5899 171.305 75.5898 171.305 75.5898 171.305C75.5897 171.305 75.5896 171.305 75.5896 171.305C75.5895 171.305 75.5894 171.305 75.5894 171.305C75.5893 171.305 75.5892 171.305 75.5892 171.305C75.5891 171.305 75.589 171.305 75.5889 171.305C75.5889 171.305 75.5888 171.305 75.5887 171.305C75.5887 171.305 75.5886 171.305 75.5885 171.305C75.5885 171.305 75.5884 171.305 75.5883 171.305C75.5883 171.305 75.5882 171.305 75.5881 171.305C75.5881 171.305 75.588 171.305 75.5879 171.305C75.5878 171.305 75.5878 171.305 75.5877 171.305C75.5876 171.305 75.5876 171.305 75.5875 171.305C75.5874 171.305 75.5874 171.305 75.5873 171.305C75.5872 171.305 75.5872 171.305 75.5871 171.305C75.587 171.305 75.587 171.305 75.5869 171.305C75.5868 171.305 75.5868 171.305 75.5867 171.305C75.5866 171.305 75.5866 171.305 75.5865 171.305C75.5864 171.305 75.5863 171.305 75.5863 171.305C75.5862 171.305 75.5861 171.305 75.5861 171.305C75.586 171.305 75.5859 171.305 75.5859 171.305C75.5858 171.305 75.5857 171.305 75.5857 171.305C75.5856 171.305 75.5855 171.305 75.5855 171.305C75.5854 171.305 75.5853 171.305 75.5853 171.305C75.5852 171.305 75.5851 171.305 75.5851 171.305C75.585 171.305 75.5849 171.305 75.5848 171.305C75.5848 171.305 75.5847 171.305 75.5846 171.305C75.5846 171.305 75.5845 171.305 75.5844 171.305C75.5844 171.305 75.5843 171.305 75.5842 171.305C75.5842 171.305 75.5841 171.305 75.584 171.305C75.584 171.305 75.5839 171.305 75.5838 171.305C75.5838 171.305 75.5837 171.305 75.5836 171.305C75.5836 171.305 75.5835 171.305 75.5834 171.305C75.5834 171.305 75.5833 171.305 75.5832 171.305C75.5832 171.305 75.5831 171.305 75.583 171.305C75.583 171.305 75.5829 171.305 75.5828 171.305C75.5828 171.305 75.5827 171.305 75.5826 171.305C75.5825 171.305 75.5825 171.305 75.5824 171.305C75.5823 171.305 75.5823 171.305 75.5822 171.305C75.5821 171.305 75.5821 171.305 75.582 171.305C75.5819 171.305 75.5819 171.305 75.5818 171.305C75.5817 171.305 75.5817 171.305 75.5816 171.305C75.5815 171.305 75.5815 171.305 75.5814 171.305C75.5813 171.305 75.5813 171.305 75.5812 171.305C75.5811 171.305 75.5811 171.305 75.581 171.305C75.5809 171.305 75.5809 171.305 75.5808 171.305C75.5807 171.305 75.5807 171.305 75.5806 171.305C75.5805 171.305 75.5805 171.305 75.5804 171.305C75.5803 171.305 75.5803 171.305 75.5802 171.305C75.5801 171.305 75.5801 171.305 75.58 171.305C75.5799 171.305 75.5799 171.305 75.5798 171.305C75.5797 171.305 75.5797 171.305 75.5796 171.305C75.5795 171.305 75.5795 171.305 75.5794 171.305C75.5793 171.305 75.5793 171.305 75.5792 171.305C75.5791 171.305 75.5791 171.305 75.579 171.305C75.5789 171.305 75.5788 171.305 75.5788 171.305C75.5787 171.305 75.5786 171.305 75.5786 171.305C75.5785 171.305 75.5784 171.305 75.5784 171.305C75.5783 171.305 75.5782 171.305 75.5782 171.305C75.5781 171.305 75.578 171.305 75.578 171.305C75.5779 171.305 75.5778 171.305 75.5778 171.305C75.5777 171.305 75.5776 171.305 75.5776 171.305C75.5775 171.305 75.5774 171.305 75.5774 171.305C75.5773 171.305 75.5772 171.305 75.5772 171.305C75.5771 171.305 75.577 171.305 75.577 171.305C75.5769 171.305 75.5768 171.305 75.5768 171.305C75.5767 171.305 75.5766 171.305 75.5766 171.305C75.5765 171.305 75.5764 171.305 75.5764 171.305C75.5763 171.305 75.5763 171.305 75.5762 171.305C75.5761 171.305 75.576 171.305 75.576 171.305C75.5759 171.305 75.5759 171.305 75.5758 171.305C75.5757 171.305 75.5757 171.305 75.5756 171.305C75.5755 171.305 75.5755 171.305 75.5754 171.305C75.5753 171.305 75.5753 171.305 75.5752 171.305C75.5751 171.305 75.5751 171.305 75.575 171.305C75.5749 171.305 75.5749 171.305 75.5748 171.305C75.5747 171.305 75.5747 171.305 75.5746 171.305C75.5745 171.305 75.5745 171.305 75.5744 171.305C75.5743 171.305 75.5743 171.305 75.5742 171.305C75.5741 171.305 75.5741 171.305 75.574 171.305C75.5739 171.305 75.5739 171.305 75.5738 171.305C75.5737 171.305 75.5737 171.305 75.5736 171.305C75.5735 171.305 75.5735 171.305 75.5734 171.305C75.5733 171.305 75.5733 171.305 75.5732 171.305C75.5731 171.305 75.5731 171.305 75.573 171.305C75.5729 171.305 75.5729 171.305 75.5728 171.305C75.5727 171.305 75.5727 171.305 75.5726 171.305C75.5725 171.305 75.5725 171.305 75.5724 171.305C75.5723 171.305 75.5723 171.305 75.5722 171.305C75.5722 171.305 75.5721 171.305 75.572 171.305C75.572 171.305 75.5719 171.305 75.5718 171.305C75.5718 171.305 75.5717 171.305 75.5716 171.305C75.5716 171.305 75.5715 171.305 75.5714 171.305C75.5714 171.305 75.5713 171.305 75.5712 171.305C75.5712 171.305 75.5711 171.305 75.571 171.305C75.571 171.305 75.5709 171.305 75.5708 171.305C75.5708 171.305 75.5707 171.305 75.5706 171.305C75.5706 171.305 75.5705 171.305 75.5704 171.305C75.5704 171.305 75.5703 171.305 75.5702 171.305C75.5702 171.305 75.5701 171.305 75.5701 171.305C75.57 171.305 75.5699 171.305 75.5699 171.305C75.5698 171.305 75.5697 171.305 75.5697 171.305C75.5696 171.305 75.5695 171.305 75.5695 171.305C75.5694 171.305 75.5693 171.305 75.5693 171.305C75.5692 171.305 75.5691 171.305 75.5691 171.305C75.569 171.305 75.5689 171.305 75.5689 171.305C75.5688 171.305 75.5687 171.305 75.5687 171.305C75.5686 171.305 75.5686 171.305 75.5685 171.305C75.5684 171.305 75.5684 171.305 75.5683 171.305C75.5682 171.305 75.5682 171.305 75.5681 171.305C75.568 171.305 75.568 171.305 75.5679 171.305C75.5678 171.305 75.5678 171.305 75.5677 171.305C75.5676 171.305 75.5676 171.305 75.5675 171.305C75.5674 171.305 75.5674 171.305 75.5673 171.305C75.5673 171.305 75.5672 171.305 75.5671 171.305C75.5671 171.305 75.567 171.305 75.5669 171.305C75.5669 171.305 75.5668 171.305 75.5667 171.305C75.5667 171.305 75.5666 171.305 75.5665 171.305C75.5665 171.305 75.5664 171.305 75.5663 171.305C75.5663 171.305 75.5662 171.305 75.5662 171.305C75.5661 171.305 75.566 171.305 75.566 171.305C75.5659 171.305 75.5658 171.305 75.5658 171.305C75.5657 171.305 75.5656 171.305 75.5656 171.305C75.5655 171.305 75.5654 171.305 75.5654 171.305C75.5653 171.305 75.5652 171.305 75.5652 171.305C75.5651 171.305 75.5651 171.305 75.565 171.305C75.5649 171.305 75.5649 171.305 75.5648 171.305C75.5647 171.305 75.5647 171.305 75.5646 171.305C75.5645 171.305 75.5645 171.305 75.5644 171.305C75.5643 171.305 75.5643 171.305 75.5642 171.305C75.5641 171.305 75.5641 171.305 75.564 171.305C75.564 171.305 75.5639 171.305 75.5638 171.305C75.5638 171.305 75.5637 171.305 75.5636 171.305C75.5636 171.305 75.5635 171.305 75.5634 171.305C75.5634 171.305 75.5633 171.305 75.5633 171.305C75.5632 171.305 75.5631 171.305 75.5631 171.305C75.563 171.305 75.5629 171.305 75.5629 171.305C75.5628 171.305 75.5627 171.305 75.5627 171.305C75.5626 171.305 75.5625 171.305 75.5625 171.305C75.5624 171.305 75.5624 171.305 75.5623 171.305C75.5622 171.305 75.5622 171.305 75.5621 171.305C75.562 171.305 75.562 171.305 75.5619 171.305C75.5618 171.305 75.5618 171.305 75.5617 171.305C75.5616 171.305 75.5616 171.305 75.5615 171.305C75.5615 171.305 75.5614 171.305 75.5613 171.305C75.5613 171.305 75.5612 171.305 75.5611 171.305C75.5611 171.305 75.561 171.305 75.5609 171.305C75.5609 171.305 75.5608 171.305 75.5608 171.305C75.5607 171.305 75.5606 171.305 75.5606 171.305C75.5605 171.305 75.5604 171.305 75.5604 171.305C75.5603 171.305 75.5602 171.305 75.5602 171.305C75.5601 171.305 75.5601 171.305 75.56 171.305C75.5599 171.305 75.5599 171.305 75.5598 171.305C75.5597 171.305 75.5597 171.305 75.5596 171.305C75.5595 171.305 75.5595 171.305 75.5594 171.305C75.5594 171.305 75.5593 171.305 75.5592 171.305C75.5592 171.305 75.5591 171.305 75.559 171.305C75.559 171.305 75.5589 171.305 75.5588 171.305C75.5588 171.305 75.5587 171.305 75.5587 171.305C75.5586 171.305 75.5585 171.305 75.5585 171.305C75.5584 171.305 75.5583 171.305 75.5583 171.305C75.5582 171.305 75.5582 171.305 75.5581 171.305C75.558 171.305 75.558 171.305 75.5579 171.305C75.5578 171.305 75.5578 171.305 75.5577 171.305C75.5576 171.305 75.5576 171.305 75.5575 171.305C75.5575 171.305 75.5574 171.305 75.5573 171.305C75.5573 171.305 75.5572 171.305 75.5571 171.305C75.5571 171.305 75.557 171.305 75.557 171.305C75.5569 171.305 75.5568 171.305 75.5568 171.305C75.5567 171.305 75.5566 171.305 75.5566 171.305C75.5565 171.305 75.5564 171.305 75.5564 171.305C75.5563 171.305 75.5563 171.305 75.5562 171.305C75.5561 171.305 75.5561 171.305 75.556 171.305C75.5559 171.305 75.5559 171.305 75.5558 171.305C75.5558 171.305 75.5557 171.305 75.5556 171.305C75.5556 171.305 75.5555 171.305 75.5554 171.305C75.5554 171.305 75.5553 171.305 75.5553 171.305C75.5552 171.305 75.5551 171.305 75.5551 171.305C75.555 171.305 75.5549 171.305 75.5549 171.305C75.5548 171.305 75.5548 171.305 75.5547 171.305C75.5546 171.305 75.5546 171.305 75.5545 171.305C75.5544 171.305 75.5544 171.305 75.5543 171.305C75.5543 171.305 75.5542 171.305 75.5541 171.305C75.5541 171.305 75.554 171.305 75.5539 171.305C75.5539 171.305 75.5538 171.305 75.5538 171.305C75.5537 171.305 75.5536 171.305 75.5536 171.305C75.5535 171.305 75.5534 171.305 75.5534 171.305C75.5533 171.305 75.5533 171.305 75.5532 171.305C75.5531 171.305 75.5531 171.305 75.553 171.305C75.5529 171.305 75.5529 171.305 75.5528 171.305C75.5528 171.305 75.5527 171.305 75.5526 171.305C75.5526 171.305 75.5525 171.305 75.5524 171.305C75.5524 171.305 75.5523 171.305 75.5523 171.305C75.5522 171.305 75.5521 171.305 75.5521 171.305C75.552 171.305 75.5519 171.305 75.5519 171.305C75.5518 171.305 75.5518 171.305 75.5517 171.305C75.5516 171.305 75.5516 171.305 75.5515 171.305C75.5514 171.305 75.5514 171.305 75.5513 171.305C75.5513 171.305 75.5512 171.305 75.5511 171.305C75.5511 171.305 75.551 171.305 75.551 171.305C75.5509 171.305 75.5508 171.305 75.5508 171.305C75.5507 171.305 75.5506 171.305 75.5506 171.305C75.5505 171.305 75.5505 171.305 75.5504 171.305C75.5503 171.305 75.5503 171.305 75.5502 171.305C75.5501 171.305 75.5501 171.305 75.55 171.305C75.55 171.305 75.5499 171.305 75.5498 171.305C75.5498 171.305 75.5497 171.305 75.5497 171.305C75.5496 171.305 75.5495 171.305 75.5495 171.305C75.5494 171.305 75.5493 171.305 75.5493 171.305C75.5492 171.305 75.5492 171.305 75.5491 171.305C75.549 171.305 75.549 171.305 75.5489 171.305C75.5489 171.305 75.5488 171.305 75.5487 171.305C75.5487 171.305 75.5486 171.305 75.5485 171.305C75.5485 171.305 75.5484 171.305 75.5484 171.305C75.5483 171.305 75.5482 171.305 75.5482 171.305C75.5481 171.305 75.5481 171.305 75.548 171.305C75.5479 171.305 75.5479 171.305 75.5478 171.305C75.5477 171.305 75.5477 171.305 75.5476 171.305C75.5476 171.305 75.5475 171.305 75.5474 171.305C75.5474 171.305 75.5473 171.305 75.5473 171.305C75.5472 171.305 75.5471 171.305 75.5471 171.305C75.547 171.305 75.5469 171.305 75.5469 171.305C75.5468 171.305 75.5468 171.305 75.5467 171.305C75.5466 171.305 75.5466 171.305 75.5465 171.305C75.5465 171.305 75.5464 171.305 75.5463 171.305C75.5463 171.305 75.5462 171.305 75.5462 171.305C75.5461 171.305 75.546 171.305 75.546 171.305C75.5459 171.305 75.5458 171.305 75.5458 171.305C75.5457 171.305 75.5457 171.305 75.5456 171.305C75.5455 171.305 75.5455 171.305 75.5454 171.305C75.5454 171.305 75.5453 171.305 75.5452 171.305C75.5452 171.305 75.5451 171.305 75.5451 171.305C75.545 171.305 75.5449 171.305 75.5449 171.305C75.5448 171.305 75.5448 171.305 75.5447 171.305C75.5446 171.305 75.5446 171.305 75.5445 171.305C75.5444 171.305 75.5444 171.305 75.5443 171.305C75.5443 171.305 75.5442 171.305 75.5441 171.305C75.5441 171.305 75.544 171.305 75.544 171.305C75.5439 171.305 75.5438 171.305 75.5438 171.305C75.5437 171.305 75.5437 171.305 75.5436 171.305C75.5435 171.305 75.5435 171.305 75.5434 171.305C75.5434 171.305 75.5433 171.305 75.5432 171.305C75.5432 171.305 75.5431 171.305 75.5431 171.305C75.543 171.305 75.5429 171.305 75.5429 171.305C75.5428 171.305 75.5428 171.305 75.5427 171.305C75.5426 171.305 75.5426 171.305 75.5425 171.305C75.5424 171.305 75.5424 171.305 75.5423 171.305C75.5423 171.305 75.5422 171.305 75.5421 171.305C75.5421 171.305 75.542 171.305 75.542 171.305C75.5419 171.305 75.5418 171.305 75.5418 171.305C75.5417 171.305 75.5417 171.305 75.5416 171.305C75.5415 171.305 75.5415 171.305 75.5414 171.305C75.5414 171.305 75.5413 171.305 75.5412 171.305C75.5412 171.305 75.5411 171.305 75.5411 171.305C75.541 171.305 75.5409 171.305 75.5409 171.305C75.5408 171.305 75.5408 171.305 75.5407 171.305C75.5406 171.305 75.5406 171.305 75.5405 171.305C75.5405 171.305 75.5404 171.305 75.5403 171.305C75.5403 171.305 75.5402 171.305 75.5402 171.305C75.5401 171.305 75.54 171.305 75.54 171.305C75.5399 171.305 75.5399 171.305 75.5398 171.305C75.5397 171.305 75.5397 171.305 75.5396 171.305C75.5396 171.305 75.5395 171.305 75.5394 171.305C75.5394 171.305 75.5393 171.305 75.5393 171.305C75.5392 171.305 75.5391 171.305 75.5391 171.305C75.539 171.305 75.539 171.305 75.5389 171.305C75.5388 171.305 75.5388 171.305 75.5387 171.305C75.5387 171.305 75.5386 171.305 75.5385 171.305C75.5385 171.305 75.5384 171.305 75.5384 171.305C75.5383 171.305 75.5383 171.305 75.5382 171.305C75.5381 171.305 75.5381 171.305 75.538 171.305C75.538 171.305 75.5379 171.305 75.5378 171.305C75.5378 171.305 75.5377 171.305 75.5377 171.305C75.5376 171.305 75.5375 171.305 75.5375 171.305C75.5374 171.305 75.5374 171.305 75.5373 171.305C75.5372 171.305 75.5372 171.305 75.5371 171.305C75.5371 171.305 75.537 171.305 75.5369 171.305C75.5369 171.305 75.5368 171.305 75.5368 171.305C75.5367 171.305 75.5366 171.305 75.5366 171.305C75.5365 171.305 75.5365 171.305 75.5364 171.305C75.5364 171.305 75.5363 171.305 75.5362 171.305C75.5362 171.305 75.5361 171.305 75.5361 171.305C75.536 171.305 75.5359 171.305 75.5359 171.305C75.5358 171.305 75.5358 171.305 75.5357 171.305C75.5356 171.305 75.5356 171.305 75.5355 171.305C75.5355 171.305 75.5354 171.305 75.5353 171.305C75.5353 171.305 75.5352 171.305 75.5352 171.305C75.5351 171.305 75.5351 171.305 75.535 171.305C75.5349 171.305 75.5349 171.305 75.5348 171.305C75.5348 171.305 75.5347 171.305 75.5346 171.305C75.5346 171.305 75.5345 171.305 75.5345 171.305C75.5344 171.305 75.5343 171.305 75.5343 171.305C75.5342 171.305 75.5342 171.305 75.5341 171.305C75.5341 171.305 75.534 171.305 75.5339 171.305C75.5339 171.305 75.5338 171.305 75.5338 171.305C75.5337 171.305 75.5336 171.305 75.5336 171.305C75.5335 171.305 75.5335 171.305 75.5334 171.305C75.5333 171.305 75.5333 171.305 75.5332 171.305C75.5332 171.305 75.5331 171.305 75.5331 171.305C75.533 171.305 75.5329 171.305 75.5329 171.305C75.5328 171.305 75.5328 171.305 75.5327 171.305C75.5326 171.305 75.5326 171.305 75.5325 171.305C75.5325 171.305 75.5324 171.305 75.5324 171.305C75.5323 171.305 75.5322 171.305 75.5322 171.305C75.5321 171.305 75.5321 171.305 75.532 171.305C75.5319 171.305 75.5319 171.305 75.5318 171.305C75.5318 171.305 75.5317 171.305 75.5317 171.305C75.5316 171.305 75.5315 171.305 75.5315 171.305C75.5314 171.305 75.5314 171.305 75.5313 171.305C75.5312 171.305 75.5312 171.305 75.5311 171.305C75.5311 171.305 75.531 171.305 75.531 171.305C75.5309 171.305 75.5308 171.305 75.5308 171.305C75.5307 171.305 75.5307 171.305 75.5306 171.305C75.5305 171.305 75.5305 171.305 75.5304 171.305C75.5304 171.305 75.5303 171.305 75.5303 171.305C75.5302 171.305 75.5301 171.305 75.5301 171.305C75.53 171.305 75.53 171.305 75.5299 171.305C75.5299 171.305 75.5298 171.305 75.5297 171.305C75.5297 171.305 75.5296 171.305 75.5296 171.305C75.5295 171.305 75.5294 171.305 75.5294 171.305C75.5293 171.305 75.5293 171.305 75.5292 171.305C75.5292 171.305 75.5291 171.305 75.529 171.305C75.529 171.305 75.5289 171.305 75.5289 171.305C75.5288 171.305 75.5288 171.305 75.5287 171.305C75.5286 171.305 75.5286 171.305 75.5285 171.305C75.5285 171.305 75.5284 171.305 75.5283 171.305C75.5283 171.305 75.5282 171.305 75.5282 171.305C75.5281 171.305 75.5281 171.305 75.528 171.305C75.5279 171.305 75.5279 171.305 75.5278 171.305C75.5278 171.305 75.5277 171.305 75.5277 171.305C75.5276 171.305 75.5275 171.305 75.5275 171.305C75.5274 171.305 75.5274 171.305 75.5273 171.305C75.5273 171.305 75.5272 171.305 75.5271 171.305C75.5271 171.305 75.527 171.305 75.527 171.305C75.5269 171.305 75.5269 171.305 75.5268 171.305C75.5267 171.305 75.5267 171.305 75.5266 171.305C75.5266 171.305 75.5265 171.305 75.5265 171.305C75.5264 171.305 75.5263 171.305 75.5263 171.305C75.5262 171.305 75.5262 171.305 75.5261 171.305C75.5261 171.305 75.526 171.305 75.5259 171.305C75.5259 171.305 75.5258 171.305 75.5258 171.305C75.5257 171.305 75.5257 171.305 75.5256 171.305C75.5255 171.305 75.5255 171.305 75.5254 171.305C75.5254 171.305 75.5253 171.305 75.5253 171.305C75.5252 171.305 75.5251 171.305 75.5251 171.305C75.525 171.305 75.525 171.305 75.5249 171.305C75.5249 171.305 75.5248 171.305 75.5247 171.305C75.5247 171.305 75.5246 171.305 75.5246 171.305C75.5245 171.305 75.5245 171.305 75.5244 171.305C75.5243 171.305 75.5243 171.305 75.5242 171.305C75.5242 171.305 75.5241 171.305 75.5241 171.305C75.524 171.305 75.5239 171.305 75.5239 171.305C75.5238 171.305 75.5238 171.305 75.5237 171.305C75.5237 171.305 75.5236 171.305 75.5235 171.305C75.5235 171.305 75.5234 171.305 75.5234 171.305C75.5233 171.305 75.5233 171.305 75.5232 171.305C75.5231 171.305 75.5231 171.305 75.523 171.305C75.523 171.305 75.5229 171.305 75.5229 171.305C75.5228 171.305 75.5228 171.305 75.5227 171.305C75.5226 171.305 75.5226 171.305 75.5225 171.305C75.5225 171.305 75.5224 171.305 75.5224 171.305C75.5223 171.305 75.5222 171.305 75.5222 171.305C75.5221 171.305 75.5221 171.305 75.522 171.305C75.522 171.305 75.5219 171.305 75.5218 171.305C75.5218 171.305 75.5217 171.305 75.5217 171.305C75.5216 171.305 75.5216 171.305 75.5215 171.305C75.5215 171.305 75.5214 171.305 75.5213 171.305C75.5213 171.305 75.5212 171.305 75.5212 171.305C75.5211 171.305 75.5211 171.305 75.521 171.305C75.521 171.305 75.5209 171.305 75.5208 171.305C75.5208 171.305 75.5207 171.305 75.5207 171.305C75.5206 171.305 75.5206 171.305 75.5205 171.305C75.5204 171.305 75.5204 171.305 75.5203 171.305C75.5203 171.305 75.5202 171.305 75.5202 171.305C75.5201 171.305 75.5201 171.305 75.52 171.305C75.5199 171.305 75.5199 171.305 75.5198 171.305C75.5198 171.305 75.5197 171.305 75.5197 171.305C75.5196 171.305 75.5195 171.305 75.5195 171.305C75.5194 171.305 75.5194 171.305 75.5193 171.305C75.5193 171.305 75.5192 171.305 75.5192 171.305C75.5191 171.305 75.519 171.305 75.519 171.305C75.5189 171.305 75.5189 171.305 75.5188 171.305C75.5188 171.305 75.5187 171.305 75.5187 171.305C75.5186 171.305 75.5185 171.305 75.5185 171.305C75.5184 171.305 75.5184 171.305 75.5183 171.305C75.5183 171.305 75.5182 171.305 75.5182 171.305C75.5181 171.305 75.518 171.305 75.518 171.305C75.5179 171.305 75.5179 171.305 75.5178 171.305C75.5178 171.305 75.5177 171.305 75.5177 171.305C75.5176 171.305 75.5175 171.305 75.5175 171.305C75.5174 171.305 75.5174 171.305 75.5173 171.305C75.5173 171.305 75.5172 171.305 75.5172 171.305C75.5171 171.305 75.517 171.305 75.517 171.305C75.5169 171.305 75.5169 171.305 75.5168 171.305C75.5168 171.305 75.5167 171.305 75.5167 171.305C75.5166 171.305 75.5165 171.305 75.5165 171.305C75.5164 171.305 75.5164 171.305 75.5163 171.305C75.5163 171.305 75.5162 171.305 75.5162 171.305C75.5161 171.305 75.5161 171.305 75.516 171.305C75.5159 171.305 75.5159 171.305 75.5158 171.305C75.5158 171.305 75.5157 171.305 75.5157 171.305C75.5156 171.305 75.5156 171.305 75.5155 171.305C75.5154 171.305 75.5154 171.305 75.5153 171.305C75.5153 171.305 75.5152 171.305 75.5152 171.305C75.5151 171.305 75.5151 171.305 75.515 171.305C75.5149 171.305 75.5149 171.305 75.5148 171.305C75.5148 171.305 75.5147 171.305 75.5147 171.305C75.5146 171.305 75.5146 171.305 75.5145 171.305C75.5145 171.305 75.5144 171.305 75.5143 171.305C75.5143 171.305 75.5142 171.305 75.5142 171.305C75.5141 171.305 75.5141 171.305 75.514 171.305C75.514 171.305 75.5139 171.305 75.5139 171.305C75.5138 171.305 75.5137 171.305 75.5137 171.305C75.5136 171.305 75.5136 171.305 75.5135 171.305C75.5135 171.305 75.5134 171.305 75.5134 171.305C75.5133 171.305 75.5133 171.305 75.5132 171.305C75.5131 171.305 75.5131 171.305 75.513 171.305C75.513 171.305 75.5129 171.305 75.5129 171.305C75.5128 171.305 75.5128 171.305 75.5127 171.305C75.5127 171.305 75.5126 171.305 75.5125 171.305C75.5125 171.305 75.5124 171.305 75.5124 171.305C75.5123 171.305 75.5123 171.305 75.5122 171.305C75.5122 171.305 75.5121 171.305 75.5121 171.305C75.512 171.305 75.5119 171.305 75.5119 171.305C75.5118 171.305 75.5118 171.305 75.5117 171.305C75.5117 171.305 75.5116 171.305 75.5116 171.305C75.5115 171.305 75.5115 171.305 75.5114 171.305C75.5114 171.305 75.5113 171.305 75.5112 171.305C75.5112 171.305 75.5111 171.305 75.5111 171.305C75.511 171.305 75.511 171.305 75.5109 171.305C75.5109 171.305 75.5108 171.305 75.5108 171.305C75.5107 171.305 75.5106 171.305 75.5106 171.305C75.5105 171.305 75.5105 171.305 75.5104 171.305C75.5104 171.305 75.5103 171.305 75.5103 171.305C75.5102 171.305 75.5102 171.305 75.5101 171.305C75.5101 171.305 75.51 171.305 75.5099 171.305C75.5099 171.305 75.5098 171.305 75.5098 171.305C75.5097 171.305 75.5097 171.305 75.5096 171.305C75.5096 171.305 75.5095 171.305 75.5095 171.305C75.5094 171.305 75.5094 171.305 75.5093 171.305C75.5092 171.305 75.5092 171.305 75.5091 171.305C75.5091 171.305 75.509 171.305 75.509 171.305C75.5089 171.305 75.5089 171.305 75.5088 171.305C75.5088 171.305 75.5087 171.305 75.5087 171.305C75.5086 171.305 75.5085 171.305 75.5085 171.305C75.5084 171.305 75.5084 171.305 75.5083 171.305C75.5083 171.305 75.5082 171.305 75.5082 171.305C75.5081 171.305 75.5081 171.305 75.508 171.305C75.508 171.305 75.5079 171.305 75.5079 171.305C75.5078 171.305 75.5077 171.305 75.5077 171.305C75.5076 171.305 75.5076 171.305 75.5075 171.305C75.5075 171.305 75.5074 171.305 75.5074 171.305C75.5073 171.305 75.5073 171.305 75.5072 171.305C75.5072 171.305 75.5071 171.305 75.5071 171.305C75.507 171.305 75.5069 171.305 75.5069 171.305C75.5068 171.305 75.5068 171.305 75.5067 171.305C75.5067 171.305 75.5066 171.305 75.5066 171.305C75.5065 171.305 75.5065 171.305 75.5064 171.305C75.5064 171.305 75.5063 171.305 75.5063 171.305C75.5062 171.305 75.5061 171.305 75.5061 171.305C75.506 171.305 75.506 171.305 75.5059 171.305C75.5059 171.305 75.5058 171.305 75.5058 171.305C75.5057 171.305 75.5057 171.305 75.5056 171.305C75.5056 171.305 75.5055 171.305 75.5055 171.305C75.5054 171.305 75.5054 171.305 75.5053 171.305C75.5052 171.305 75.5052 171.305 75.5051 171.305C75.5051 171.305 75.505 171.305 75.505 171.305C75.5049 171.305 75.5049 171.305 75.5048 171.305C75.5048 171.305 75.5047 171.305 75.5047 171.305C75.5046 171.305 75.5046 171.305 75.5045 171.305C75.5045 171.305 75.5044 171.305 75.5044 171.305C75.5043 171.305 75.5042 171.305 75.5042 171.305C75.5041 171.305 75.5041 171.305 75.504 171.305C75.504 171.305 75.5039 171.305 75.5039 171.305V172.416ZM86.1616 172.103L85.9247 172.605L85.9326 172.609L86.1616 172.103ZM86.2828 173.516L85.8208 173.824L86.028 174.135L86.394 174.06L86.2828 173.516ZM82.7292 173.18L83.054 173.63L83.0607 173.625L82.7292 173.18ZM82.6215 175.131L82.3075 175.589L82.6215 175.131ZM83.9945 175.697L83.8504 176.233L83.8598 176.235L83.9945 175.697ZM85.3944 176.114L85.1931 176.631L85.1979 176.633L85.3944 176.114ZM86.3904 176.612L86.0973 177.084L86.1009 177.086L86.3904 176.612ZM86.3904 180.354L86.7313 180.792L86.7351 180.789L86.3904 180.354ZM81.6928 180.731L81.4511 181.231L81.4612 181.235L81.6928 180.731ZM81.5716 179.102L82.0696 178.856L81.8705 178.453L81.4345 178.564L81.5716 179.102ZM85.5559 179.667L85.8796 180.119L85.8813 180.117L85.5559 179.667ZM85.5559 177.42L85.2672 177.894L85.2717 177.897L85.5559 177.42ZM83.6041 176.72L83.4669 177.258L83.4733 177.259L83.6041 176.72ZM81.4942 174.243C81.4942 173.756 81.7007 173.324 82.1996 172.928L81.509 172.058C80.7875 172.631 80.3838 173.366 80.3838 174.243H81.4942ZM82.1996 172.928C82.698 172.532 83.3207 172.321 84.1022 172.321V171.211C83.1069 171.211 82.231 171.485 81.509 172.058L82.1996 172.928ZM84.1022 172.321C84.9677 172.321 85.558 172.432 85.9247 172.605L86.3985 171.601C85.814 171.325 85.0314 171.211 84.1022 171.211V172.321ZM85.9326 172.609C86.1288 172.697 86.2315 172.778 86.2805 172.834C86.3206 172.879 86.3198 172.9 86.3198 172.91H87.4302C87.4302 172.252 86.9302 171.841 86.3907 171.597L85.9326 172.609ZM86.3198 172.91C86.3198 172.934 86.3162 172.94 86.3183 172.934C86.3209 172.928 86.3259 172.92 86.3299 172.916C86.3354 172.91 86.3047 172.945 86.1715 172.972L86.394 174.06C86.6556 174.007 86.9211 173.9 87.1239 173.692C87.3389 173.472 87.4302 173.194 87.4302 172.91H86.3198ZM86.7447 173.208C86.2461 172.46 85.3139 172.194 84.2233 172.194V173.304C85.1967 173.304 85.6374 173.549 85.8208 173.824L86.7447 173.208ZM84.2233 172.194C83.5261 172.194 82.9025 172.359 82.3977 172.734L83.0607 173.625C83.3277 173.426 83.7002 173.304 84.2233 173.304V172.194ZM82.4045 172.729C81.9032 173.091 81.5952 173.587 81.5952 174.203H82.7057C82.7057 174.011 82.7835 173.825 83.0539 173.63L82.4045 172.729ZM81.5952 174.203C81.5952 174.776 81.832 175.263 82.3075 175.589L82.9355 174.673C82.783 174.569 82.7057 174.436 82.7057 174.203H81.5952ZM82.3075 175.589C82.6958 175.855 83.222 176.064 83.8504 176.233L84.1386 175.16C83.5646 175.006 83.1754 174.838 82.9355 174.673L82.3075 175.589ZM83.8598 176.235C84.4624 176.386 84.9026 176.518 85.1931 176.631L85.5956 175.596C85.2401 175.458 84.747 175.312 84.1292 175.158L83.8598 176.235ZM85.1979 176.633C85.493 176.745 85.7928 176.894 86.0973 177.083L86.6836 176.14C86.324 175.917 85.9598 175.734 85.5909 175.595L85.1979 176.633ZM86.1009 177.086C86.5713 177.373 86.8043 177.784 86.8043 178.402H87.9148C87.9148 177.423 87.5018 176.64 86.68 176.138L86.1009 177.086ZM86.8043 178.402C86.8043 179.014 86.5656 179.507 86.0458 179.919L86.7351 180.789C87.5075 180.178 87.9148 179.37 87.9148 178.402H86.8043ZM86.0496 179.916C85.518 180.329 84.8368 180.552 83.9676 180.552V181.663C85.0366 181.663 85.9707 181.384 86.7313 180.792L86.0496 179.916ZM83.9676 180.552C83.0353 180.552 82.3681 180.43 81.9244 180.226L81.4612 181.235C82.1122 181.534 82.9616 181.663 83.9676 181.663V180.552ZM81.9344 180.231C81.4438 179.994 81.4404 179.829 81.4404 179.815H80.3299C80.3299 180.502 80.865 180.947 81.4512 181.231L81.9344 180.231ZM81.4404 179.815C81.4404 179.785 81.445 179.772 81.4465 179.768C81.4476 179.765 81.4494 179.761 81.4569 179.753C81.4751 179.734 81.5392 179.683 81.7088 179.64L81.4345 178.564C81.1465 178.637 80.8673 178.764 80.6567 178.983C80.4336 179.215 80.3299 179.506 80.3299 179.815H81.4404ZM81.0737 179.348C81.5452 180.304 82.5708 180.667 83.8195 180.667V179.556C82.7352 179.556 82.2621 179.247 82.0696 178.856L81.0737 179.348ZM83.8195 180.667C84.6288 180.667 85.3377 180.507 85.8795 180.119L85.2322 179.216C84.9485 179.42 84.4998 179.556 83.8195 179.556V180.667ZM85.8813 180.117C86.4281 179.722 86.7438 179.177 86.7438 178.51H85.6333C85.6333 178.776 85.5272 179.003 85.2305 179.218L85.8813 180.117ZM86.7438 178.51C86.7438 177.831 86.4233 177.29 85.8401 176.943L85.2717 177.897C85.532 178.052 85.6333 178.238 85.6333 178.51H86.7438ZM85.8446 176.945C85.3569 176.648 84.6387 176.399 83.735 176.18L83.4733 177.259C84.3463 177.471 84.9293 177.688 85.2672 177.894L85.8446 176.945ZM83.7414 176.182C82.9028 175.968 82.3285 175.694 81.9691 175.393L81.2549 176.243C81.7929 176.695 82.5467 177.023 83.4669 177.258L83.7414 176.182ZM81.9691 175.393C81.6655 175.138 81.4942 174.779 81.4942 174.243H80.3838C80.3838 175.053 80.6612 175.744 81.2549 176.243L81.9691 175.393ZM92.0808 172.035L92.2675 172.558L92.2727 172.556L92.0808 172.035ZM95.2709 172.035L95.0759 172.555L95.0841 172.558L95.2709 172.035ZM96.6573 172.843L96.2974 173.266L96.3018 173.27L96.6573 172.843ZM97.6803 174.324L97.1647 174.53L97.1684 174.539L97.6803 174.324ZM97.6803 178.564L97.1684 178.349L97.1669 178.352L97.6803 178.564ZM96.6573 180.017L96.3018 179.591L96.2974 179.595L96.6573 180.017ZM95.2709 180.838L95.4577 181.361L95.4658 181.358L95.2709 180.838ZM92.0808 180.838L91.8858 181.358L91.897 181.362L92.0808 180.838ZM90.6809 180.017L90.321 180.44L90.3255 180.444L90.6809 180.017ZM89.6714 178.564L89.1569 178.772L89.158 178.775L89.6714 178.564ZM89.6714 174.324L90.1859 174.532L90.1869 174.53L89.6714 174.324ZM90.6809 172.843L90.3254 172.416L90.3211 172.42L90.6809 172.843ZM95.9439 173.731L95.5513 174.124L95.5541 174.127L95.9439 173.731ZM91.4078 173.731L91.0179 173.336L91.0152 173.339L91.4078 173.731ZM91.4078 179.129L91.0151 179.522L91.018 179.524L91.4078 179.129ZM95.9439 179.129L95.5541 178.734L95.5513 178.736L95.9439 179.129ZM92.2727 172.556C92.7215 172.391 93.1903 172.308 93.6826 172.308V171.198C93.0621 171.198 92.4631 171.303 91.8888 171.514L92.2727 172.556ZM93.6826 172.308C94.1748 172.308 94.638 172.391 95.0759 172.555L95.4658 171.516C94.8987 171.303 94.303 171.198 93.6826 171.198V172.308ZM95.0841 172.558C95.521 172.714 95.9249 172.949 96.2974 173.266L97.0172 172.42C96.5462 172.019 96.0258 171.715 95.4576 171.513L95.0841 172.558ZM96.3018 173.27C96.6485 173.558 96.9407 173.97 97.1648 174.53L98.1958 174.117C97.9173 173.421 97.5275 172.845 97.0127 172.417L96.3018 173.27ZM97.1684 174.539C97.3951 175.078 97.5154 175.712 97.5154 176.45H98.6259C98.6259 175.592 98.4859 174.807 98.1921 174.109L97.1684 174.539ZM97.5154 176.45C97.5154 177.179 97.3954 177.808 97.1684 178.349L98.1921 178.779C98.4856 178.081 98.6259 177.301 98.6259 176.45H97.5154ZM97.1669 178.352C96.9439 178.894 96.6519 179.299 96.3018 179.591L97.0127 180.444C97.5242 180.018 97.9141 179.454 98.1937 178.775L97.1669 178.352ZM96.2974 179.595C95.923 179.913 95.5164 180.153 95.0759 180.319L95.4658 181.358C96.0304 181.147 96.548 180.839 97.0172 180.44L96.2974 179.595ZM95.0841 180.316C94.6441 180.473 94.178 180.552 93.6826 180.552V181.663C94.2998 181.663 94.8926 181.563 95.4576 181.361L95.0841 180.316ZM93.6826 180.552C93.1871 180.552 92.7155 180.473 92.2646 180.315L91.897 181.362C92.4691 181.563 93.0653 181.663 93.6826 181.663V180.552ZM92.2757 180.319C91.8342 180.153 91.4214 179.912 91.0364 179.591L90.3255 180.444C90.8019 180.841 91.3224 181.147 91.8858 181.358L92.2757 180.319ZM91.0408 179.595C90.698 179.303 90.4088 178.896 90.1848 178.352L89.158 178.775C89.4365 179.451 89.8203 180.014 90.3211 180.44L91.0408 179.595ZM90.1859 178.355C89.966 177.813 89.8497 177.181 89.8497 176.45H88.7393C88.7393 177.299 88.8743 178.076 89.1569 178.772L90.1859 178.355ZM89.8497 176.45C89.8497 175.71 89.9662 175.074 90.1859 174.532L89.1569 174.115C88.874 174.812 88.7393 175.594 88.7393 176.45H89.8497ZM90.1869 174.53C90.412 173.967 90.7014 173.555 91.0408 173.266L90.3211 172.42C89.817 172.849 89.4333 173.424 89.1559 174.117L90.1869 174.53ZM91.0364 173.27C91.4195 172.95 91.8296 172.715 92.2675 172.558L91.894 171.513C91.327 171.715 90.8038 172.018 90.3255 172.417L91.0364 173.27ZM96.3365 173.339C95.6054 172.608 94.7109 172.234 93.6826 172.234V173.344C94.413 173.344 95.0261 173.599 95.5513 174.124L96.3365 173.339ZM93.6826 172.234C92.6544 172.234 91.7569 172.607 91.018 173.336L91.7976 174.127C92.3328 173.599 92.9519 173.344 93.6826 173.344V172.234ZM91.0152 173.339C90.2525 174.101 89.9103 175.163 89.9103 176.437H91.0208C91.0208 175.359 91.3067 174.618 91.8004 174.124L91.0152 173.339ZM89.9103 176.437C89.9103 177.703 90.2533 178.76 91.0152 179.522L91.8004 178.736C91.3059 178.242 91.0208 177.504 91.0208 176.437H89.9103ZM91.018 179.524C91.7569 180.253 92.6544 180.626 93.6826 180.626V179.516C92.9519 179.516 92.3328 179.261 91.7976 178.734L91.018 179.524ZM93.6826 180.626C94.7109 180.626 95.6054 180.253 96.3365 179.522L95.5513 178.736C95.0261 179.262 94.413 179.516 93.6826 179.516V180.626ZM96.3337 179.524C97.1061 178.763 97.4548 177.705 97.4548 176.437H96.3443C96.3443 177.502 96.056 178.239 95.5541 178.734L96.3337 179.524ZM97.4548 176.437C97.4548 175.161 97.1069 174.098 96.3337 173.336L95.5541 174.127C96.0552 174.621 96.3443 175.361 96.3443 176.437H97.4548Z" fill="white" mask="url(#path-9-outside-1_44_1486)"/>
<path d="M182 36V36C185.502 43.0044 195.498 43.0044 199 36V36" stroke="white" stroke-width="4" stroke-linecap="round"/>
<defs>
<filter id="filter0_d_44_1486" x="0.744443" y="0.903173" width="452.68" height="218.289" filterUnits="userSpaceOnUse" color-interpolation-filters="sRGB">
<feFlood flood-opacity="0" result="BackgroundImageFix"/>
<feColorMatrix in="SourceAlpha" type="matrix" values="0 0 0 0 0 0 0 0 0 0 0 0 0 0 0 0 0 0 127 0" result="hardAlpha"/>
<feOffset dx="5.88889" dy="5.04762"/>
<feGaussianBlur stdDeviation="12.0722"/>
<feComposite in2="hardAlpha" operator="out"/>
<feColorMatrix type="matrix" values="0 0 0 0 0.236045 0 0 0 0 0.0814139 0 0 0 0 0.263333 0 0 0 1 0"/>
<feBlend mode="normal" in2="BackgroundImageFix" result="effect1_dropShadow_44_1486"/>
<feBlend mode="normal" in="SourceGraphic" in2="effect1_dropShadow_44_1486" result="shape"/>
</filter>
</defs>
</svg>
