<svg width="572" height="220" viewBox="0 0 572 220" fill="none" xmlns="http://www.w3.org/2000/svg">
<g filter="url(#filter0_bd_48_366)">
<rect x="511.098" y="134" width="59.4653" height="59.0191" rx="29.5096" transform="rotate(6.90733 511.098 134)" fill="url(#paint0_linear_48_366)" shape-rendering="crispEdges"/>
<path d="M518.279 174.165L518.748 170.295L525.242 171.082C525.62 171.128 525.973 171.088 526.299 170.963C526.626 170.838 526.887 170.641 527.085 170.372C527.3 170.105 527.431 169.782 527.477 169.404C527.52 169.043 527.469 168.707 527.324 168.397C527.199 168.07 526.993 167.808 526.706 167.608C526.421 167.391 526.089 167.259 525.71 167.213L520.136 166.538L520.586 162.831L526.295 163.522C526.655 163.566 526.981 163.523 527.271 163.394C527.561 163.264 527.804 163.074 527.999 162.823C528.212 162.574 528.34 162.278 528.381 161.936C528.423 161.593 528.37 161.275 528.222 160.983C528.093 160.693 527.902 160.45 527.651 160.255C527.4 160.06 527.095 159.94 526.734 159.897L520.105 159.094L520.574 155.224L527.906 156.113C528.97 156.242 529.888 156.6 530.659 157.187C531.447 157.777 532.036 158.507 532.425 159.378C532.832 160.251 532.975 161.184 532.855 162.176C532.765 162.915 532.507 163.607 532.082 164.251C531.674 164.897 531.142 165.437 530.485 165.87C530.861 166.245 531.167 166.666 531.403 167.134C531.641 167.584 531.803 168.061 531.888 168.565C531.994 169.054 532.015 169.56 531.952 170.083C531.823 171.147 531.444 172.081 530.816 172.883C530.209 173.67 529.441 174.263 528.514 174.663C527.589 175.045 526.586 175.171 525.503 175.04L518.279 174.165ZM534.508 176.46C533.787 176.373 533.195 176.045 532.733 175.476C532.292 174.892 532.113 174.248 532.199 173.545C532.286 172.823 532.613 172.24 533.179 171.797C533.766 171.337 534.42 171.151 535.141 171.238C535.845 171.323 536.417 171.658 536.859 172.242C537.321 172.811 537.508 173.456 537.421 174.177C537.364 174.646 537.194 175.065 536.912 175.434C536.629 175.802 536.275 176.079 535.85 176.266C535.443 176.454 534.995 176.519 534.508 176.46ZM545.348 177.773C543.905 177.598 542.66 177.146 541.614 176.415C540.57 175.666 539.794 174.739 539.287 173.635C538.783 172.512 538.609 171.301 538.767 170.003L539.478 164.131C539.635 162.832 540.092 161.707 540.848 160.755C541.606 159.786 542.58 159.071 543.771 158.611C544.961 158.151 546.278 158.009 547.721 158.184C549.128 158.354 550.345 158.804 551.374 159.532C552.42 160.263 553.195 161.19 553.7 162.312C554.207 163.417 554.381 164.619 554.224 165.918L553.513 171.789C553.356 173.088 552.889 174.221 552.113 175.188C551.357 176.14 550.382 176.855 549.19 177.333C548.017 177.795 546.737 177.942 545.348 177.773ZM545.82 173.877C546.361 173.943 546.862 173.884 547.323 173.702C547.805 173.504 548.207 173.205 548.53 172.805C548.853 172.405 549.048 171.934 549.113 171.393L549.857 165.251C549.923 164.71 549.845 164.216 549.625 163.768C549.407 163.302 549.088 162.916 548.667 162.609C548.265 162.304 547.793 162.118 547.252 162.053C546.693 161.985 546.164 162.049 545.664 162.245C545.185 162.425 544.783 162.715 544.46 163.115C544.137 163.515 543.943 163.986 543.878 164.527L543.133 170.669C543.068 171.21 543.144 171.713 543.362 172.179C543.58 172.645 543.9 173.031 544.32 173.338C544.761 173.63 545.261 173.809 545.82 173.877Z" fill="white"/>
</g>
<rect x="0.5" y="0.5" width="183" height="30" rx="15" stroke="white"/>
<path d="M31.7578 10.0499H37.2893C37.6978 10.0499 37.9021 10.2541 37.9021 10.6627C37.9021 11.0605 37.6978 11.2594 37.2893 11.2594H32.5318V14.7105L36.6603 14.7105C37.0581 14.7105 37.257 14.9148 37.257 15.3233C37.257 15.7211 37.0581 15.92 36.6603 15.92L32.5318 15.92V20.4033C32.5318 20.8011 32.3222 21 31.9029 21H31.7578C31.3385 21 31.1288 20.7957 31.1288 20.3872L31.1288 10.6627C31.1288 10.2541 31.3385 10.0499 31.7578 10.0499ZM43.3918 10.2595C44.0046 10.0337 44.6443 9.92085 45.3109 9.92085C45.9774 9.92085 46.6118 10.0337 47.2138 10.2595C47.8159 10.4745 48.3696 10.7971 48.8749 11.2271C49.391 11.6572 49.7995 12.2485 50.1005 13.0011C50.4123 13.7429 50.5682 14.5923 50.5682 15.5491C50.5682 16.4952 50.4123 17.3392 50.1005 18.081C49.7995 18.8121 49.391 19.3927 48.8749 19.8227C48.3696 20.2528 47.8159 20.5807 47.2138 20.8065C46.6118 21.0215 45.9774 21.129 45.3109 21.129C44.6443 21.129 44.0046 21.0215 43.3918 20.8065C42.7897 20.5807 42.2306 20.2528 41.7146 19.8227C41.2093 19.3927 40.8061 18.8121 40.5051 18.081C40.204 17.3392 40.0535 16.4952 40.0535 15.5491C40.0535 14.5923 40.204 13.7429 40.5051 13.0011C40.8061 12.2485 41.2093 11.6572 41.7146 11.2271C42.2306 10.7971 42.7897 10.4745 43.3918 10.2595ZM48.0202 12.2915C47.2676 11.5389 46.3645 11.1626 45.3109 11.1626C44.2573 11.1626 43.3488 11.5389 42.5854 12.2915C41.8328 13.0441 41.4566 14.1246 41.4566 15.533C41.4566 16.9307 41.8328 18.0058 42.5854 18.7584C43.3488 19.511 44.2573 19.8872 45.3109 19.8872C46.3645 19.8872 47.2676 19.511 48.0202 18.7584C48.7835 18.0058 49.1652 16.9307 49.1652 15.533C49.1652 14.1246 48.7835 13.0441 48.0202 12.2915ZM54.9483 11.2594V15.0814L57.2061 15.0814C57.8726 15.0814 58.4102 14.9148 58.8188 14.5815C59.2381 14.2482 59.4477 13.7752 59.4477 13.1623C59.4477 12.5388 59.2488 12.0657 58.851 11.7432C58.464 11.4206 57.9156 11.2594 57.2061 11.2594H54.9483ZM57.2544 10.0499C57.878 10.0499 58.4425 10.1412 58.9478 10.324C59.4531 10.496 59.8885 10.8293 60.254 11.3239C60.6196 11.8184 60.8024 12.4689 60.8024 13.2752C60.8024 14.0708 60.5067 14.7374 59.9154 15.275C59.3241 15.8125 58.6037 16.1136 57.7544 16.1781C58.1307 16.8877 58.6951 17.6886 59.4477 18.581C60.211 19.4733 60.9367 20.156 61.6248 20.6291C61.4098 20.9731 61.1303 21.1451 60.7862 21.1451C60.4422 21.1451 60.1035 21.0323 59.7702 20.8065C59.4477 20.5807 59.152 20.3173 58.8833 20.0163C58.6145 19.7152 58.3081 19.3121 57.964 18.8067C57.5985 18.2692 57.0878 17.4145 56.432 16.2426H54.9483V20.4033C54.9483 20.8011 54.7333 21 54.3032 21H54.2226C53.8033 21 53.5937 20.8011 53.5937 20.4033V10.6788C53.5937 10.2703 53.8033 10.066 54.2226 10.066L57.1416 10.0499C57.1738 10.0499 57.2114 10.0499 57.2544 10.0499ZM64.2985 20.4033L64.3952 10.8401C64.3952 10.3133 64.6586 10.0499 65.1855 10.0499L65.7176 10.0499C66.309 10.0499 66.7283 10.3885 66.9755 11.0659C67.2766 11.9152 67.7443 13.2914 68.3786 15.1943C69.0237 17.0973 69.5343 18.5702 69.9106 19.6131C70.2547 18.6455 70.7492 17.2209 71.3943 15.3395C72.0501 13.458 72.5501 12.0335 72.8941 11.0659C73.1306 10.3885 73.5445 10.0499 74.1359 10.0499H74.7164C74.9637 10.0499 75.1626 10.1251 75.3131 10.2756C75.4636 10.4154 75.5389 10.6036 75.5389 10.8401V11.7271L75.6034 20.4033C75.6034 20.8011 75.3938 21 74.9745 21H74.8293C74.41 21 74.2004 20.8011 74.2004 20.4033L74.2488 11.0659C72.4103 16.0867 71.276 19.1669 70.846 20.3065C70.6632 20.7688 70.3568 21 69.9268 21H69.8139C69.3623 21 69.0559 20.7688 68.8946 20.3065C68.6044 19.511 68.099 18.0488 67.3787 15.92C66.6691 13.7805 66.0939 12.1625 65.6531 11.0659L65.7015 20.4033C65.7015 20.8011 65.4919 21 65.0726 21H64.9274C64.5081 21 64.2985 20.8011 64.2985 20.4033ZM83.2043 10.066H83.3817C83.6505 10.066 83.8225 10.0982 83.8978 10.1628C83.9838 10.2273 84.0375 10.2703 84.0591 10.2918C84.0913 10.3025 84.1289 10.3455 84.1719 10.4208C84.2257 10.496 84.2579 10.5444 84.2687 10.5659C84.2902 10.5874 84.3278 10.6519 84.3816 10.7594C84.4353 10.867 84.473 10.9368 84.4945 10.9691C85.8169 13.3666 87.0371 16.4415 88.1553 20.1937C88.1875 20.3227 88.2037 20.4463 88.2037 20.5646C88.2037 20.8549 88.037 21 87.7037 21H87.3167C87.1339 21 87.0049 20.9677 86.9296 20.9032C86.8651 20.8387 86.8167 20.7904 86.7845 20.7581C86.7522 20.7258 86.72 20.6667 86.6877 20.5807C86.6555 20.4839 86.634 20.4141 86.6232 20.3711C86.591 20.3065 86.4835 19.941 86.3007 19.2744C86.1287 18.5971 85.9351 17.9466 85.7201 17.3231H80.8498C80.581 18.1509 80.3714 18.8551 80.2209 19.4357C80.0703 20.0163 79.9843 20.328 79.9628 20.3711C79.9521 20.4141 79.9306 20.4839 79.8983 20.5807C79.8661 20.6667 79.8338 20.7258 79.8016 20.7581C79.7693 20.7904 79.7263 20.828 79.6725 20.871C79.5865 20.957 79.4521 21 79.2694 21H78.8823C78.5383 21 78.3663 20.8549 78.3663 20.5646C78.3663 20.4893 78.3878 20.3657 78.4308 20.1937C79.5489 16.4415 80.7692 13.3666 82.0916 10.9691C82.1131 10.9368 82.1507 10.867 82.2045 10.7594C82.2582 10.6519 82.2905 10.5874 82.3012 10.5659C82.3227 10.5444 82.355 10.496 82.398 10.4208C82.4517 10.3455 82.4894 10.3025 82.5109 10.2918C82.5431 10.2703 82.5861 10.238 82.6399 10.195C82.6936 10.152 82.742 10.1251 82.785 10.1144C82.9355 10.0821 83.0753 10.066 83.2043 10.066ZM83.285 11.598C82.5861 12.8344 81.9088 14.3557 81.253 16.1619H85.3331C84.946 15.0976 84.2633 13.5763 83.285 11.598ZM95.6304 9.92085C96.7701 9.92085 97.7054 10.1466 98.4365 10.5982C99.1784 11.0497 99.5493 11.5497 99.5493 12.098C99.5493 12.3345 99.4579 12.528 99.2751 12.6785C99.1031 12.8183 98.8719 12.8882 98.5817 12.8882C98.2484 11.7486 97.2646 11.1787 95.6304 11.1787C94.5553 11.1787 93.6415 11.5443 92.8889 12.2754C92.147 12.9957 91.7761 14.0708 91.7761 15.5007C91.7761 16.9199 92.1524 18.0112 92.905 18.7745C93.6576 19.5271 94.5661 19.9034 95.6304 19.9034C97.2861 19.9034 98.3398 19.2959 98.7913 18.081C99.0493 18.081 99.2482 18.1563 99.388 18.3068C99.5385 18.4466 99.6138 18.6347 99.6138 18.8713C99.6138 19.4196 99.2375 19.9356 98.4849 20.4194C97.7323 20.8925 96.7808 21.129 95.6304 21.129C94.1145 21.129 92.8459 20.6398 91.8245 19.6615C90.8031 18.6831 90.2925 17.2962 90.2925 15.5007C90.2925 13.7053 90.8031 12.3291 91.8245 11.3723C92.8459 10.4047 94.1145 9.92085 95.6304 9.92085ZM95.9369 21.4516H95.7272L95.9369 20.7742H95.2273L94.9854 21.387C94.9531 21.4731 94.937 21.5429 94.937 21.5967C94.937 21.8117 95.0606 21.9192 95.3079 21.9192H95.6627C96.039 21.9192 96.2271 22.0375 96.2271 22.274C96.2271 22.403 96.168 22.5052 96.0497 22.5804C95.9315 22.6557 95.781 22.6933 95.5982 22.6933C95.1251 22.6933 94.8886 22.5589 94.8886 22.2901C94.7381 22.2901 94.6145 22.3385 94.5177 22.4353C94.4209 22.5428 94.3726 22.6718 94.3726 22.8223C94.3726 23.2954 94.765 23.5319 95.5498 23.5319C95.9476 23.5319 96.297 23.4298 96.5981 23.2255C96.9098 23.0212 97.0657 22.7525 97.0657 22.4192C97.0657 22.0859 96.9582 21.8386 96.7432 21.6773C96.5389 21.5268 96.2701 21.4516 95.9369 21.4516ZM106.52 10.066H106.697C106.966 10.066 107.138 10.0982 107.213 10.1628C107.299 10.2273 107.353 10.2703 107.374 10.2918C107.407 10.3025 107.444 10.3455 107.487 10.4208C107.541 10.496 107.573 10.5444 107.584 10.5659C107.605 10.5874 107.643 10.6519 107.697 10.7594C107.751 10.867 107.788 10.9368 107.81 10.9691C109.132 13.3666 110.352 16.4415 111.471 20.1937C111.503 20.3227 111.519 20.4463 111.519 20.5646C111.519 20.8549 111.352 21 111.019 21H110.632C110.449 21 110.32 20.9677 110.245 20.9032C110.18 20.8387 110.132 20.7904 110.1 20.7581C110.068 20.7258 110.035 20.6667 110.003 20.5807C109.971 20.4839 109.949 20.4141 109.939 20.3711C109.906 20.3065 109.799 19.941 109.616 19.2744C109.444 18.5971 109.25 17.9466 109.035 17.3231H104.165C103.896 18.1509 103.687 18.8551 103.536 19.4357C103.386 20.0163 103.3 20.328 103.278 20.3711C103.267 20.4141 103.246 20.4839 103.214 20.5807C103.181 20.6667 103.149 20.7258 103.117 20.7581C103.085 20.7904 103.042 20.828 102.988 20.871C102.902 20.957 102.767 21 102.585 21H102.198C101.854 21 101.682 20.8549 101.682 20.5646C101.682 20.4893 101.703 20.3657 101.746 20.1937C102.864 16.4415 104.084 13.3666 105.407 10.9691C105.428 10.9368 105.466 10.867 105.52 10.7594C105.573 10.6519 105.606 10.5874 105.617 10.5659C105.638 10.5444 105.67 10.496 105.713 10.4208C105.767 10.3455 105.805 10.3025 105.826 10.2918C105.858 10.2703 105.901 10.238 105.955 10.195C106.009 10.152 106.057 10.1251 106.1 10.1144C106.251 10.0821 106.391 10.066 106.52 10.066ZM106.6 11.598C105.901 12.8344 105.224 14.3557 104.568 16.1619H108.648C108.261 15.0976 107.579 13.5763 106.6 11.598ZM106.826 8.84035C106.805 8.8296 106.735 8.80272 106.616 8.75971C106.509 8.70596 106.353 8.63608 106.149 8.55007C105.944 8.4533 105.713 8.40492 105.455 8.40492C105.197 8.40492 104.988 8.46943 104.826 8.59845C104.665 8.72746 104.541 8.79197 104.455 8.79197C104.219 8.79197 104.101 8.6737 104.101 8.43718C104.101 7.65234 104.552 7.25992 105.455 7.25992C105.617 7.25992 105.746 7.27067 105.842 7.29217C105.95 7.31367 106.02 7.3298 106.052 7.34055C106.095 7.34055 106.159 7.35668 106.245 7.38893C106.331 7.42119 106.385 7.44269 106.407 7.45344C106.428 7.46419 106.493 7.49644 106.6 7.5502C106.719 7.5932 106.788 7.62008 106.81 7.63083C107.197 7.80285 107.519 7.88886 107.778 7.88886C108.036 7.88886 108.245 7.82436 108.406 7.69534C108.568 7.56633 108.691 7.50182 108.777 7.50182C108.874 7.50182 108.955 7.53407 109.019 7.59858C109.095 7.66309 109.132 7.7491 109.132 7.85661C109.132 8.64145 108.681 9.03387 107.778 9.03387C107.616 9.03387 107.482 9.02312 107.374 9.00162C107.278 8.98011 107.208 8.96936 107.165 8.96936C107.132 8.95861 107.073 8.93711 106.987 8.90486C106.901 8.8726 106.848 8.8511 106.826 8.84035ZM116.865 10.2595C117.478 10.0337 118.118 9.92085 118.784 9.92085C119.451 9.92085 120.085 10.0337 120.687 10.2595C121.289 10.4745 121.843 10.7971 122.348 11.2271C122.865 11.6572 123.273 12.2485 123.574 13.0011C123.886 13.7429 124.042 14.5923 124.042 15.5491C124.042 16.4952 123.886 17.3392 123.574 18.081C123.273 18.8121 122.865 19.3927 122.348 19.8227C121.843 20.2528 121.289 20.5807 120.687 20.8065C120.085 21.0215 119.451 21.129 118.784 21.129C118.118 21.129 117.478 21.0215 116.865 20.8065C116.263 20.5807 115.704 20.2528 115.188 19.8227C114.683 19.3927 114.28 18.8121 113.979 18.081C113.678 17.3392 113.527 16.4952 113.527 15.5491C113.527 14.5923 113.678 13.7429 113.979 13.0011C114.28 12.2485 114.683 11.6572 115.188 11.2271C115.704 10.7971 116.263 10.4745 116.865 10.2595ZM121.494 12.2915C120.741 11.5389 119.838 11.1626 118.784 11.1626C117.731 11.1626 116.822 11.5389 116.059 12.2915C115.306 13.0441 114.93 14.1246 114.93 15.533C114.93 16.9307 115.306 18.0058 116.059 18.7584C116.822 19.511 117.731 19.8872 118.784 19.8872C119.838 19.8872 120.741 19.511 121.494 18.7584C122.257 18.0058 122.639 16.9307 122.639 15.533C122.639 14.1246 122.257 13.0441 121.494 12.2915ZM132.369 10.0499H137.933C138.331 10.0499 138.53 10.2541 138.53 10.6627C138.53 11.0605 138.331 11.2594 137.933 11.2594H133.143V14.7105L137.401 14.7105C137.799 14.7105 137.997 14.9148 137.997 15.3233C137.997 15.7211 137.799 15.92 137.401 15.92L133.143 15.92V19.7905L137.933 19.7905C138.331 19.7905 138.53 19.9948 138.53 20.4033C138.53 20.8011 138.331 21 137.933 21H132.369C131.95 21 131.74 20.7957 131.74 20.3872V10.6627C131.74 10.2541 131.95 10.0499 132.369 10.0499ZM141.532 20.4033L141.628 10.8401C141.628 10.3133 141.892 10.0499 142.419 10.0499H142.951C143.542 10.0499 143.961 10.3885 144.209 11.0659C144.51 11.9152 144.977 13.2914 145.612 15.1943C146.257 17.0973 146.767 18.5702 147.144 19.6131C147.488 18.6455 147.982 17.2209 148.627 15.3395C149.283 13.458 149.783 12.0335 150.127 11.0659C150.364 10.3885 150.778 10.0499 151.369 10.0499H151.95C152.197 10.0499 152.396 10.1251 152.546 10.2756C152.697 10.4154 152.772 10.6036 152.772 10.8401V11.7271L152.837 20.4033C152.837 20.8011 152.627 21 152.208 21H152.062C151.643 21 151.434 20.8011 151.434 20.4033L151.482 11.0659C149.643 16.0867 148.509 19.1669 148.079 20.3065C147.896 20.7688 147.59 21 147.16 21H147.047C146.595 21 146.289 20.7688 146.128 20.3065C145.838 19.511 145.332 18.0488 144.612 15.92C143.902 13.7805 143.327 12.1625 142.886 11.0659L142.935 20.4033C142.935 20.8011 142.725 21 142.306 21H142.161C141.741 21 141.532 20.8011 141.532 20.4033Z" fill="white"/>
<path d="M46.5327 116.896C43.005 116.896 39.8412 116.14 37.0414 114.629C34.2416 113.061 32.0297 110.905 30.4058 108.161C28.782 105.417 27.97 102.309 27.97 98.8376V73.1355C27.97 72.2395 27.746 71.4276 27.2981 70.6996C26.8501 69.9717 26.2621 69.3837 25.5342 68.9358C24.8062 68.4878 23.9943 68.2638 23.0984 68.2638C22.2024 68.2638 21.3905 68.4878 20.6625 68.9358C19.9346 69.3837 19.3466 69.9717 18.8987 70.6996C18.5067 71.4276 18.3107 72.2395 18.3107 73.1355V115.888H4.53568V74.1434C4.53568 70.6156 5.31962 67.5079 6.88751 64.82C8.5114 62.1322 10.7232 60.0044 13.523 58.4365C16.3788 56.8686 19.5706 56.0847 23.0984 56.0847C26.6821 56.0847 29.8739 56.8686 32.6737 58.4365C35.4735 60.0044 37.6853 62.1322 39.3092 64.82C40.9331 67.5079 41.745 70.6156 41.745 74.1434V99.8456C41.745 100.742 41.969 101.581 42.417 102.365C42.865 103.093 43.4249 103.681 44.0969 104.129C44.8248 104.521 45.6088 104.717 46.4487 104.717C47.3446 104.717 48.1566 104.521 48.8845 104.129C49.6685 103.681 50.2844 103.093 50.7324 102.365C51.1804 101.581 51.4044 100.742 51.4044 99.8456V57.0926H65.0954V98.8376C65.0954 102.309 64.2834 105.417 62.6596 108.161C61.0357 110.905 58.8238 113.061 56.024 114.629C53.2242 116.14 50.0605 116.896 46.5327 116.896ZM99.6235 116.896C94.7518 116.896 90.4122 115.916 86.6044 113.957C82.8527 111.997 79.9129 109.197 77.785 105.557C75.6572 101.917 74.5933 97.5777 74.5933 92.5381V57.0926H88.5363V93.294C88.5363 95.4779 88.9843 97.4657 89.8802 99.2576C90.7761 100.993 92.064 102.393 93.7439 103.457C95.4238 104.465 97.3837 104.969 99.6235 104.969C101.919 104.969 103.879 104.465 105.503 103.457C107.183 102.393 108.471 100.993 109.367 99.2576C110.263 97.4657 110.711 95.4779 110.711 93.294V57.0926H124.654V92.5381C124.654 97.5777 123.562 101.917 121.378 105.557C119.25 109.197 116.31 111.997 112.559 113.957C108.807 115.916 104.495 116.896 99.6235 116.896ZM164.798 115.888C161.214 115.888 158.05 115.104 155.306 113.537C152.618 111.913 150.491 109.757 148.923 107.069C147.411 104.381 146.655 101.385 146.655 98.0817V68.8518H130.696V57.0926H176.641V68.8518H160.766V99.3416C160.766 100.63 161.214 101.749 162.11 102.701C163.006 103.653 164.126 104.129 165.47 104.129H170.089V115.888H164.798ZM183.037 115.888V57.0926H209.915C213.891 57.0926 217.502 57.9605 220.75 59.6964C224.054 61.4323 226.658 63.8401 228.562 66.9199C230.521 69.9997 231.501 73.5554 231.501 77.5871C231.501 81.3389 230.605 84.7266 228.814 87.7504C227.022 90.7182 224.67 93.126 221.758 94.9739L226.462 102.953C226.742 103.345 227.05 103.653 227.386 103.877C227.778 104.101 228.282 104.213 228.898 104.213H234.105V115.888H225.874C223.354 115.888 221.058 115.3 218.986 114.125C216.914 112.893 215.291 111.297 214.115 109.337L207.815 98.1657C207.423 98.1657 207.003 98.1657 206.555 98.1657C206.163 98.1657 205.743 98.1657 205.295 98.1657H197.148V115.888H183.037ZM197.148 86.4905H208.319C209.943 86.4905 211.455 86.1545 212.855 85.4826C214.255 84.7546 215.347 83.7467 216.13 82.4588C216.97 81.1149 217.39 79.519 217.39 77.6711C217.39 75.8233 216.97 74.2554 216.13 72.9675C215.291 71.6236 214.171 70.6156 212.771 69.9437C211.427 69.2157 209.943 68.8518 208.319 68.8518H197.148V86.4905ZM239.111 115.888V104.129H249.274V68.8518H239.111V57.0926H273.464V68.8518H263.301V104.129H273.464V115.888H239.111ZM310.928 115.888C306.112 115.888 301.772 115.16 297.909 113.705C294.045 112.193 290.769 110.093 288.081 107.405C285.393 104.717 283.322 101.609 281.866 98.0817C280.41 94.4979 279.682 90.6342 279.682 86.4905C279.682 82.3468 280.41 78.5111 281.866 74.9833C283.322 71.3996 285.393 68.2638 288.081 65.576C290.825 62.8882 294.101 60.8163 297.909 59.3604C301.772 57.8485 306.112 57.0926 310.928 57.0926H319.999V68.8518H311.264C308.632 68.8518 306.224 69.2997 304.04 70.1957C301.912 71.0916 300.064 72.3515 298.496 73.9754C296.985 75.5433 295.809 77.3912 294.969 79.519C294.185 81.6469 293.793 83.9707 293.793 86.4905C293.793 89.0103 294.185 91.3342 294.969 93.462C295.809 95.5899 296.985 97.4657 298.496 99.0896C300.064 100.658 301.912 101.889 304.04 102.785C306.224 103.681 308.632 104.129 311.264 104.129H319.999V115.888H310.928ZM294.465 132.939L302.78 113.537H314.623L306.308 132.939H294.465ZM322.442 115.888L341.509 63.8961C342.461 61.3203 344.028 59.3884 346.212 58.1005C348.396 56.7566 350.86 56.0847 353.604 56.0847C356.348 56.0847 358.811 56.7286 360.995 58.0165C363.179 59.2484 364.747 61.1803 365.699 63.8121L384.85 115.888H369.647L365.951 104.549H341.005L337.141 115.888H322.442ZM344.616 92.8741H362.339L354.864 69.4397C354.752 69.1037 354.584 68.8798 354.36 68.7678C354.192 68.5998 353.968 68.5158 353.688 68.5158C353.408 68.5158 353.156 68.5998 352.932 68.7678C352.764 68.9358 352.652 69.1597 352.596 69.4397L344.616 92.8741ZM358.727 53.2289C357.272 53.2289 356.04 53.0889 355.032 52.8089C354.024 52.4729 353.156 52.053 352.428 51.549C351.756 50.989 351.084 50.4571 350.412 49.9531C349.964 49.5611 349.516 49.2252 349.068 48.9452C348.676 48.6652 348.256 48.5252 347.808 48.5252C347.416 48.5252 347.08 48.6652 346.8 48.9452C346.52 49.1692 346.38 49.5331 346.38 50.0371V52.3889H338.989V50.1211C338.989 47.3213 339.857 45.1094 341.593 43.4856C343.329 41.8057 345.512 40.9657 348.144 40.9657C350.104 40.9657 351.7 41.3577 352.932 42.1417C354.164 42.8696 355.284 43.5696 356.292 44.2415C356.74 44.5775 357.188 44.9135 357.635 45.2494C358.139 45.5854 358.615 45.7534 359.063 45.7534C359.455 45.7534 359.791 45.6414 360.071 45.4174C360.407 45.1374 360.575 44.7175 360.575 44.1575V41.8057H367.883V44.0735C367.883 46.8733 367.015 49.1132 365.279 50.793C363.543 52.4169 361.359 53.2289 358.727 53.2289ZM415.918 116.98C411.214 116.98 406.959 116.196 403.151 114.629C399.343 113.061 396.068 110.877 393.324 108.077C390.58 105.277 388.452 102.029 386.94 98.3337C385.484 94.6379 384.756 90.6622 384.756 86.4065C384.756 82.1508 385.484 78.1751 386.94 74.4794C388.452 70.7836 390.552 67.5639 393.24 64.82C395.984 62.0202 399.259 59.8644 403.067 58.3525C406.931 56.7846 411.214 56.0007 415.918 56.0007C420.566 56.0007 424.794 56.7846 428.601 58.3525C432.465 59.8644 435.741 62.0202 438.429 64.82C441.172 67.5639 443.3 70.8116 444.812 74.5634C446.324 78.2591 447.08 82.2068 447.08 86.4065C447.08 90.6622 446.324 94.6379 444.812 98.3337C443.3 102.029 441.172 105.277 438.429 108.077C435.741 110.877 432.465 113.061 428.601 114.629C424.794 116.196 420.566 116.98 415.918 116.98ZM415.918 104.969C418.382 104.969 420.65 104.521 422.722 103.625C424.85 102.673 426.669 101.357 428.181 99.6776C429.693 97.9977 430.869 96.0378 431.709 93.798C432.549 91.5022 432.969 89.0383 432.969 86.4065C432.969 83.7747 432.549 81.3389 431.709 79.099C430.869 76.8592 429.693 74.8993 428.181 73.2195C426.669 71.5396 424.85 70.2517 422.722 69.3557C420.65 68.4038 418.382 67.9278 415.918 67.9278C413.398 67.9278 411.102 68.4038 409.031 69.3557C406.959 70.2517 405.139 71.5396 403.571 73.2195C402.059 74.8993 400.883 76.8872 400.043 79.183C399.259 81.4229 398.867 83.8307 398.867 86.4065C398.867 89.0383 399.259 91.5022 400.043 93.798C400.883 96.0378 402.059 97.9977 403.571 99.6776C405.139 101.357 406.959 102.673 409.031 103.625C411.102 104.521 413.398 104.969 415.918 104.969ZM4.36769 204.888V163.479C4.36769 160.232 5.15163 157.292 6.71952 154.66C8.34341 152.028 10.4993 149.956 13.1871 148.444C15.9309 146.877 18.9827 146.093 22.3424 146.093H44.2649V157.852H24.1063C22.5384 157.852 21.1945 158.412 20.0746 159.532C19.0107 160.652 18.4787 162.023 18.4787 163.647V172.131H41.4091V183.806H18.4787V204.888H4.36769ZM76.6564 205.896C71.7847 205.896 67.445 204.916 63.6373 202.957C59.8856 200.997 56.9458 198.197 54.8179 194.557C52.6901 190.917 51.6262 186.578 51.6262 181.538V146.093H65.5692V182.294C65.5692 184.478 66.0171 186.466 66.9131 188.258C67.809 189.993 69.0969 191.393 70.7768 192.457C72.4567 193.465 74.4165 193.969 76.6564 193.969C78.9522 193.969 80.9121 193.465 82.536 192.457C84.2158 191.393 85.5038 189.993 86.3997 188.258C87.2956 186.466 87.7436 184.478 87.7436 182.294V146.093H101.687V181.538C101.687 186.578 100.595 190.917 98.4108 194.557C96.283 198.197 93.3432 200.997 89.5915 202.957C85.8397 204.916 81.528 205.896 76.6564 205.896ZM153.002 205.896C149.474 205.896 146.31 205.14 143.51 203.629C140.711 202.061 138.499 199.905 136.875 197.161C135.251 194.417 134.439 191.309 134.439 187.838V162.135C134.439 161.24 134.215 160.428 133.767 159.7C133.319 158.972 132.731 158.384 132.003 157.936C131.275 157.488 130.463 157.264 129.567 157.264C128.671 157.264 127.859 157.488 127.132 157.936C126.404 158.384 125.816 158.972 125.368 159.7C124.976 160.428 124.78 161.24 124.78 162.135V204.888H111.005V163.143C111.005 159.616 111.789 156.508 113.357 153.82C114.98 151.132 117.192 149.004 119.992 147.437C122.848 145.869 126.04 145.085 129.567 145.085C133.151 145.085 136.343 145.869 139.143 147.437C141.942 149.004 144.154 151.132 145.778 153.82C147.402 156.508 148.214 159.616 148.214 163.143V188.846C148.214 189.742 148.438 190.581 148.886 191.365C149.334 192.093 149.894 192.681 150.566 193.129C151.294 193.521 152.078 193.717 152.918 193.717C153.814 193.717 154.626 193.521 155.354 193.129C156.137 192.681 156.753 192.093 157.201 191.365C157.649 190.581 157.873 189.742 157.873 188.846V146.093H171.564V187.838C171.564 191.309 170.752 194.417 169.129 197.161C167.505 199.905 165.293 202.061 162.493 203.629C159.693 205.14 156.529 205.896 153.002 205.896ZM209.872 204.888C205.057 204.888 200.717 204.16 196.853 202.705C192.989 201.193 189.714 199.093 187.026 196.405C184.338 193.717 182.266 190.609 180.81 187.082C179.354 183.498 178.626 179.634 178.626 175.491C178.626 171.347 179.354 167.511 180.81 163.983C182.266 160.4 184.338 157.264 187.026 154.576C189.77 151.888 193.045 149.816 196.853 148.36C200.717 146.849 205.057 146.093 209.872 146.093H218.944V157.852H210.208C207.576 157.852 205.169 158.3 202.985 159.196C200.857 160.092 199.009 161.352 197.441 162.975C195.929 164.543 194.753 166.391 193.913 168.519C193.129 170.647 192.737 172.971 192.737 175.491C192.737 178.01 193.129 180.334 193.913 182.462C194.753 184.59 195.929 186.466 197.441 188.09C199.009 189.658 200.857 190.889 202.985 191.785C205.169 192.681 207.576 193.129 210.208 193.129H218.944V204.888H209.872ZM225.577 204.888V193.129H235.74V157.852H225.577V146.093H259.93V157.852H249.767V193.129H259.93V204.888H225.577ZM297.309 205.98C292.606 205.98 288.35 205.196 284.542 203.629C280.735 202.061 277.459 199.877 274.715 197.077C271.971 194.277 269.843 191.029 268.331 187.334C266.876 183.638 266.148 179.662 266.148 175.407C266.148 171.151 266.876 167.175 268.331 163.479C269.843 159.784 271.943 156.564 274.631 153.82C277.375 151.02 280.651 148.864 284.458 147.353C288.322 145.785 292.606 145.001 297.309 145.001C301.957 145.001 306.185 145.785 309.992 147.353C313.856 148.864 317.132 151.02 319.82 153.82C322.564 156.564 324.691 159.812 326.203 163.563C327.715 167.259 328.471 171.207 328.471 175.407C328.471 179.662 327.715 183.638 326.203 187.334C324.691 191.029 322.564 194.277 319.82 197.077C317.132 199.877 313.856 202.061 309.992 203.629C306.185 205.196 301.957 205.98 297.309 205.98ZM297.309 193.969C299.773 193.969 302.041 193.521 304.113 192.625C306.241 191.673 308.061 190.357 309.573 188.678C311.084 186.998 312.26 185.038 313.1 182.798C313.94 180.502 314.36 178.038 314.36 175.407C314.36 172.775 313.94 170.339 313.1 168.099C312.26 165.859 311.084 163.899 309.573 162.219C308.061 160.54 306.241 159.252 304.113 158.356C302.041 157.404 299.773 156.928 297.309 156.928C294.79 156.928 292.494 157.404 290.422 158.356C288.35 159.252 286.53 160.54 284.962 162.219C283.45 163.899 282.274 165.887 281.435 168.183C280.651 170.423 280.259 172.831 280.259 175.407C280.259 178.038 280.651 180.502 281.435 182.798C282.274 185.038 283.45 186.998 284.962 188.678C286.53 190.357 288.35 191.673 290.422 192.625C292.494 193.521 294.79 193.969 297.309 193.969ZM377.341 205.896C373.814 205.896 370.65 205.14 367.85 203.629C365.05 202.061 362.838 199.905 361.214 197.161C359.591 194.417 358.779 191.309 358.779 187.838V162.135C358.779 161.24 358.555 160.428 358.107 159.7C357.659 158.972 357.071 158.384 356.343 157.936C355.615 157.488 354.803 157.264 353.907 157.264C353.011 157.264 352.199 157.488 351.471 157.936C350.743 158.384 350.155 158.972 349.707 159.7C349.315 160.428 349.119 161.24 349.119 162.135V204.888H335.344V163.143C335.344 159.616 336.128 156.508 337.696 153.82C339.32 151.132 341.532 149.004 344.332 147.437C347.187 145.869 350.379 145.085 353.907 145.085C357.491 145.085 360.682 145.869 363.482 147.437C366.282 149.004 368.494 151.132 370.118 153.82C371.742 156.508 372.554 159.616 372.554 163.143V188.846C372.554 189.742 372.778 190.581 373.226 191.365C373.674 192.093 374.233 192.681 374.905 193.129C375.633 193.521 376.417 193.717 377.257 193.717C378.153 193.717 378.965 193.521 379.693 193.129C380.477 192.681 381.093 192.093 381.541 191.365C381.989 190.581 382.213 189.742 382.213 188.846V146.093H395.904V187.838C395.904 191.309 395.092 194.417 393.468 197.161C391.844 199.905 389.632 202.061 386.833 203.629C384.033 205.14 380.869 205.896 377.341 205.896ZM400.53 204.888L419.597 152.896C420.549 150.32 422.117 148.388 424.3 147.101C426.484 145.757 428.948 145.085 431.692 145.085C434.436 145.085 436.9 145.729 439.083 147.017C441.267 148.248 442.835 150.18 443.787 152.812L462.938 204.888H447.735L444.039 193.549H419.093L415.229 204.888H400.53ZM422.705 181.874H440.427L432.952 158.44C432.84 158.104 432.672 157.88 432.448 157.768C432.28 157.6 432.056 157.516 431.776 157.516C431.496 157.516 431.244 157.6 431.02 157.768C430.852 157.936 430.74 158.16 430.684 158.44L422.705 181.874ZM484.316 204.888C480.676 204.888 477.484 204.076 474.74 202.453C471.996 200.829 469.869 198.673 468.357 195.985C466.845 193.297 466.089 190.329 466.089 187.082V146.093H480.2V188.09C480.2 189.434 480.676 190.609 481.628 191.617C482.58 192.625 483.756 193.129 485.155 193.129H500.694V204.888H484.316Z" fill="white"/>
<defs>
<filter id="filter0_bd_48_366" x="476.782" y="118.01" width="109.189" height="97.7218" filterUnits="userSpaceOnUse" color-interpolation-filters="sRGB">
<feFlood flood-opacity="0" result="BackgroundImageFix"/>
<feGaussianBlur in="BackgroundImageFix" stdDeviation="7.92005"/>
<feComposite in2="SourceAlpha" operator="in" result="effect1_backgroundBlur_48_366"/>
<feColorMatrix in="SourceAlpha" type="matrix" values="0 0 0 0 0 0 0 0 0 0 0 0 0 0 0 0 0 0 127 0" result="hardAlpha"/>
<feOffset dx="-11.2285"/>
<feGaussianBlur stdDeviation="7.9949"/>
<feComposite in2="hardAlpha" operator="out"/>
<feColorMatrix type="matrix" values="0 0 0 0 0.364706 0 0 0 0 0.0823529 0 0 0 0 0.72549 0 0 0 0.23 0"/>
<feBlend mode="normal" in2="effect1_backgroundBlur_48_366" result="effect2_dropShadow_48_366"/>
<feBlend mode="normal" in="SourceGraphic" in2="effect2_dropShadow_48_366" result="shape"/>
</filter>
<linearGradient id="paint0_linear_48_366" x1="540.83" y1="134" x2="540.83" y2="193.019" gradientUnits="userSpaceOnUse">
<stop stop-color="#4C04D2"/>
<stop offset="1" stop-color="#C27A2D"/>
</linearGradient>
</defs>
</svg>
